<svg width="1326" height="72" viewBox="0 0 1326 72" fill="none" xmlns="http://www.w3.org/2000/svg">
<path d="M13.1676 71L0.894886 21.9091H18.5369L24.1619 51.8239H24.5455L30.8097 21.9091H47.9403L54.4602 51.5682H54.8438L60.2131 21.9091H77.8551L65.5824 71H46.5341L39.6307 44.6648H39.1193L32.2159 71H13.1676ZM100.468 71.8949C95.2268 71.8949 90.7097 70.8935 86.9171 68.8906C83.1458 66.8665 80.2374 63.9687 78.192 60.1974C76.1678 56.4048 75.1558 51.8665 75.1558 46.5824C75.1558 41.5114 76.1785 37.0795 78.2239 33.2869C80.2694 29.4943 83.1565 26.5433 86.8852 24.4339C90.6138 22.3246 95.0137 21.2699 100.085 21.2699C103.792 21.2699 107.148 21.8452 110.152 22.9957C113.156 24.1463 115.724 25.8189 117.855 28.0135C119.985 30.1868 121.626 32.8288 122.776 35.9396C123.927 39.0504 124.502 42.5554 124.502 46.4545V50.5455H80.6529V40.8295H108.267C108.245 39.4233 107.883 38.1875 107.18 37.1222C106.498 36.0355 105.571 35.1939 104.399 34.5973C103.249 33.9794 101.938 33.6705 100.468 33.6705C99.0407 33.6705 97.7303 33.9794 96.5371 34.5973C95.344 35.1939 94.3852 36.0249 93.6607 37.0902C92.9576 38.1555 92.5847 39.402 92.5421 40.8295V51.3125C92.5421 52.8892 92.8724 54.2955 93.5329 55.5312C94.1934 56.767 95.1415 57.7365 96.3773 58.4396C97.6131 59.1428 99.1046 59.4943 100.852 59.4943C102.066 59.4943 103.174 59.3239 104.176 58.983C105.198 58.642 106.072 58.152 106.796 57.5128C107.521 56.8523 108.053 56.0639 108.394 55.1477H124.502C123.948 58.5568 122.638 61.5185 120.571 64.0327C118.504 66.5256 115.767 68.4645 112.357 69.8494C108.97 71.2131 105.007 71.8949 100.468 71.8949ZM138.575 71V5.54545H156.217V30.4744H156.473C157.112 28.8125 158.05 27.2891 159.286 25.9041C160.521 24.4979 162.056 23.3793 163.888 22.5483C165.72 21.696 167.851 21.2699 170.28 21.2699C173.519 21.2699 176.597 22.1328 179.516 23.8587C182.457 25.5845 184.843 28.3011 186.676 32.0085C188.529 35.7159 189.456 40.5312 189.456 46.4545C189.456 52.1222 188.572 56.8203 186.803 60.549C185.056 64.2777 182.712 67.0582 179.772 68.8906C176.853 70.723 173.646 71.6392 170.152 71.6392C167.851 71.6392 165.795 71.2663 163.984 70.5206C162.194 69.7536 160.66 68.7202 159.382 67.4205C158.124 66.0994 157.155 64.608 156.473 62.946H156.09V71H138.575ZM155.834 46.4545C155.834 48.8409 156.143 50.9077 156.761 52.6548C157.4 54.3807 158.295 55.723 159.445 56.6818C160.617 57.6193 162.013 58.0881 163.632 58.0881C165.252 58.0881 166.626 57.63 167.755 56.7138C168.906 55.7763 169.779 54.4446 170.376 52.7188C170.994 50.9716 171.303 48.8835 171.303 46.4545C171.303 44.0256 170.994 41.9482 170.376 40.2223C169.779 38.4751 168.906 37.1435 167.755 36.2273C166.626 35.2898 165.252 34.821 163.632 34.821C162.013 34.821 160.617 35.2898 159.445 36.2273C158.295 37.1435 157.4 38.4751 156.761 40.2223C156.143 41.9482 155.834 44.0256 155.834 46.4545ZM223.271 49.5227V21.9091H240.913V71H224.166V61.6676H223.655C222.589 64.7997 220.725 67.25 218.062 69.0185C215.398 70.7656 212.234 71.6392 208.57 71.6392C205.139 71.6392 202.135 70.8509 199.557 69.2741C197 67.6974 195.008 65.5241 193.58 62.7543C192.174 59.9844 191.46 56.8097 191.439 53.2301V21.9091H209.081V49.5227C209.102 51.9517 209.72 53.8587 210.935 55.2436C212.17 56.6286 213.896 57.321 216.112 57.321C217.582 57.321 218.85 57.0121 219.915 56.3942C221.002 55.755 221.833 54.8601 222.408 53.7095C223.005 52.5376 223.293 51.142 223.271 49.5227ZM244.486 71V21.9091H262.128V71H244.486ZM253.339 16.7955C250.931 16.7955 248.875 16.0071 247.171 14.4304C245.466 12.8537 244.614 10.9574 244.614 8.74148C244.614 6.52557 245.466 4.62926 247.171 3.05255C248.875 1.47585 250.921 0.6875 253.307 0.6875C255.715 0.6875 257.76 1.47585 259.444 3.05255C261.148 4.62926 262 6.52557 262 8.74148C262 10.9574 261.148 12.8537 259.444 14.4304C257.76 16.0071 255.725 16.7955 253.339 16.7955ZM283.359 5.54545V71H265.717V5.54545H283.359ZM304.718 71.6392C301.223 71.6392 298.006 70.723 295.066 68.8906C292.147 67.0582 289.803 64.2777 288.035 60.549C286.287 56.8203 285.414 52.1222 285.414 46.4545C285.414 40.5312 286.33 35.7159 288.162 32.0085C290.016 28.3011 292.402 25.5845 295.321 23.8587C298.262 22.1328 301.351 21.2699 304.59 21.2699C307.019 21.2699 309.15 21.696 310.982 22.5483C312.814 23.3793 314.348 24.4979 315.584 25.9041C316.82 27.2891 317.758 28.8125 318.397 30.4744H318.652V5.54545H336.294V71H318.78V62.946H318.397C317.715 64.608 316.735 66.0994 315.456 67.4205C314.199 68.7202 312.665 69.7536 310.854 70.5206C309.064 71.2663 307.019 71.6392 304.718 71.6392ZM311.238 58.0881C312.857 58.0881 314.242 57.6193 315.392 56.6818C316.564 55.723 317.459 54.3807 318.077 52.6548C318.716 50.9077 319.036 48.8409 319.036 46.4545C319.036 44.0256 318.716 41.9482 318.077 40.2223C317.459 38.4751 316.564 37.1435 315.392 36.2273C314.242 35.2898 312.857 34.821 311.238 34.821C309.618 34.821 308.233 35.2898 307.083 36.2273C305.954 37.1435 305.08 38.4751 304.462 40.2223C303.865 41.9482 303.567 44.0256 303.567 46.4545C303.567 48.8835 303.865 50.9716 304.462 52.7188C305.08 54.4446 305.954 55.7763 307.083 56.7138C308.233 57.63 309.618 58.0881 311.238 58.0881ZM393.891 21.9091V34.6932H361.547V21.9091H393.891ZM367.811 10.1477H385.453V55.2116C385.453 55.8935 385.57 56.4688 385.805 56.9375C386.039 57.3849 386.401 57.7259 386.891 57.9602C387.381 58.1733 388.01 58.2798 388.777 58.2798C389.31 58.2798 389.928 58.2159 390.631 58.0881C391.355 57.9602 391.888 57.8537 392.229 57.7685L394.786 70.169C393.997 70.4034 392.868 70.6911 391.398 71.032C389.949 71.3729 388.223 71.5966 386.22 71.7031C382.172 71.9162 378.773 71.5007 376.025 70.4567C373.276 69.3913 371.21 67.7187 369.825 65.4389C368.44 63.1591 367.768 60.304 367.811 56.8736V10.1477ZM414.386 43.3864V71H396.744V5.54545H413.747V31.2415H414.259C415.367 28.1094 417.21 25.6697 419.788 23.9226C422.366 22.1541 425.466 21.2699 429.088 21.2699C432.561 21.2699 435.576 22.0582 438.133 23.6349C440.711 25.2116 442.703 27.3849 444.109 30.1548C445.537 32.9247 446.24 36.0994 446.219 39.679V71H428.577V43.3864C428.598 40.9574 427.991 39.0504 426.755 37.6655C425.541 36.2805 423.804 35.5881 421.545 35.5881C420.118 35.5881 418.861 35.9077 417.774 36.5469C416.709 37.1648 415.878 38.0597 415.281 39.2315C414.706 40.3821 414.408 41.767 414.386 43.3864ZM473.051 71.8949C467.809 71.8949 463.292 70.8935 459.5 68.8906C455.728 66.8665 452.82 63.9687 450.774 60.1974C448.75 56.4048 447.738 51.8665 447.738 46.5824C447.738 41.5114 448.761 37.0795 450.806 33.2869C452.852 29.4943 455.739 26.5433 459.468 24.4339C463.196 22.3246 467.596 21.2699 472.667 21.2699C476.375 21.2699 479.73 21.8452 482.735 22.9957C485.739 24.1463 488.306 25.8189 490.437 28.0135C492.568 30.1868 494.208 32.8288 495.359 35.9396C496.509 39.0504 497.085 42.5554 497.085 46.4545V50.5455H453.235V40.8295H480.849C480.828 39.4233 480.465 38.1875 479.762 37.1222C479.081 36.0355 478.154 35.1939 476.982 34.5973C475.831 33.9794 474.521 33.6705 473.051 33.6705C471.623 33.6705 470.313 33.9794 469.12 34.5973C467.926 35.1939 466.968 36.0249 466.243 37.0902C465.54 38.1555 465.167 39.402 465.125 40.8295V51.3125C465.125 52.8892 465.455 54.2955 466.115 55.5312C466.776 56.767 467.724 57.7365 468.96 58.4396C470.196 59.1428 471.687 59.4943 473.434 59.4943C474.649 59.4943 475.757 59.3239 476.758 58.983C477.781 58.642 478.654 58.152 479.379 57.5128C480.103 56.8523 480.636 56.0639 480.977 55.1477H497.085C496.531 58.5568 495.22 61.5185 493.154 64.0327C491.087 66.5256 488.349 68.4645 484.94 69.8494C481.552 71.2131 477.589 71.8949 473.051 71.8949ZM520.107 71L507.834 21.9091H525.476L531.101 51.8239H531.485L537.749 21.9091H554.879L561.399 51.5682H561.783L567.152 21.9091H584.794L572.521 71H553.473L546.57 44.6648H546.058L539.155 71H520.107ZM607.535 71.8949C602.208 71.8949 597.649 70.8402 593.856 68.7308C590.064 66.6001 587.155 63.6385 585.131 59.8459C583.107 56.032 582.095 51.6108 582.095 46.5824C582.095 41.554 583.107 37.1435 585.131 33.3509C587.155 29.5369 590.064 26.5753 593.856 24.4659C597.649 22.3352 602.208 21.2699 607.535 21.2699C612.862 21.2699 617.422 22.3352 621.214 24.4659C625.007 26.5753 627.915 29.5369 629.939 33.3509C631.963 37.1435 632.976 41.554 632.976 46.5824C632.976 51.6108 631.963 56.032 629.939 59.8459C627.915 63.6385 625.007 66.6001 621.214 68.7308C617.422 70.8402 612.862 71.8949 607.535 71.8949ZM607.663 58.8551C609.154 58.8551 610.444 58.3544 611.53 57.353C612.617 56.3516 613.458 54.924 614.055 53.0703C614.652 51.2166 614.95 49.0114 614.95 46.4545C614.95 43.8764 614.652 41.6712 614.055 39.8388C613.458 37.9851 612.617 36.5575 611.53 35.5561C610.444 34.5547 609.154 34.054 607.663 34.054C606.086 34.054 604.733 34.5547 603.604 35.5561C602.475 36.5575 601.612 37.9851 601.015 39.8388C600.419 41.6712 600.12 43.8764 600.12 46.4545C600.12 49.0114 600.419 51.2166 601.015 53.0703C601.612 54.924 602.475 56.3516 603.604 57.353C604.733 58.3544 606.086 58.8551 607.663 58.8551ZM634.735 71V21.9091H651.865V31.2415H652.377C653.271 27.7898 654.688 25.2649 656.627 23.6669C658.588 22.0689 660.878 21.2699 663.499 21.2699C664.266 21.2699 665.022 21.3338 665.768 21.4616C666.535 21.5682 667.27 21.728 667.973 21.9411V36.9943C667.1 36.696 666.024 36.4723 664.745 36.3232C663.467 36.174 662.37 36.0994 661.453 36.0994C659.727 36.0994 658.172 36.4936 656.787 37.282C655.423 38.049 654.347 39.1357 653.559 40.5419C652.771 41.9268 652.377 43.5568 652.377 45.4318V71H634.735ZM686 5.54545V71H668.358V5.54545H686ZM707.359 71.6392C703.864 71.6392 700.647 70.723 697.707 68.8906C694.788 67.0582 692.444 64.2777 690.676 60.549C688.928 56.8203 688.055 52.1222 688.055 46.4545C688.055 40.5312 688.971 35.7159 690.803 32.0085C692.657 28.3011 695.043 25.5845 697.962 23.8587C700.903 22.1328 703.992 21.2699 707.231 21.2699C709.66 21.2699 711.791 21.696 713.623 22.5483C715.455 23.3793 716.989 24.4979 718.225 25.9041C719.461 27.2891 720.399 28.8125 721.038 30.4744H721.293V5.54545H738.935V71H721.421V62.946H721.038C720.356 64.608 719.376 66.0994 718.097 67.4205C716.84 68.7202 715.306 69.7536 713.495 70.5206C711.705 71.2663 709.66 71.6392 707.359 71.6392ZM713.879 58.0881C715.498 58.0881 716.883 57.6193 718.033 56.6818C719.205 55.723 720.1 54.3807 720.718 52.6548C721.357 50.9077 721.677 48.8409 721.677 46.4545C721.677 44.0256 721.357 41.9482 720.718 40.2223C720.1 38.4751 719.205 37.1435 718.033 36.2273C716.883 35.2898 715.498 34.821 713.879 34.821C712.259 34.821 710.874 35.2898 709.724 36.2273C708.595 37.1435 707.721 38.4751 707.103 40.2223C706.506 41.9482 706.208 44.0256 706.208 46.4545C706.208 48.8835 706.506 50.9716 707.103 52.7188C707.721 54.4446 708.595 55.7763 709.724 56.7138C710.874 57.63 712.259 58.0881 713.879 58.0881ZM756.771 5.54545V13.2159C756.771 15.304 756.344 17.392 755.492 19.4801C754.661 21.5469 753.596 23.4751 752.296 25.2649C751.018 27.0334 749.697 28.5142 748.333 29.7074L741.046 26C741.941 24.4659 742.74 22.6868 743.443 20.6626C744.146 18.6385 744.498 16.1562 744.498 13.2159V5.54545H756.771ZM799.159 37.8892H782.923C782.838 36.8878 782.487 36.0249 781.869 35.3004C781.251 34.576 780.452 34.022 779.472 33.6385C778.513 33.2337 777.447 33.0312 776.276 33.0312C774.763 33.0312 773.463 33.3082 772.376 33.8622C771.29 34.4162 770.757 35.2045 770.778 36.2273C770.757 36.9517 771.066 37.6229 771.705 38.2408C772.366 38.8587 773.634 39.3381 775.509 39.679L785.48 41.4688C790.509 42.3849 794.248 43.9297 796.698 46.103C799.17 48.255 800.416 51.142 800.438 54.7642C800.416 58.2585 799.372 61.2947 797.305 63.8729C795.26 66.4297 792.458 68.4112 788.9 69.8175C785.363 71.2024 781.325 71.8949 776.787 71.8949C769.287 71.8949 763.417 70.3608 759.177 67.2926C754.958 64.2244 752.604 60.1761 752.114 55.1477H769.628C769.862 56.7031 770.629 57.907 771.929 58.7592C773.25 59.5902 774.912 60.0057 776.915 60.0057C778.534 60.0057 779.866 59.7287 780.91 59.1747C781.975 58.6207 782.518 57.8324 782.54 56.8097C782.518 55.8722 782.05 55.1264 781.134 54.5724C780.239 54.0185 778.832 53.571 776.915 53.2301L768.222 51.696C763.214 50.8224 759.464 49.1605 756.972 46.7102C754.479 44.2599 753.243 41.1065 753.264 37.25C753.243 33.8409 754.138 30.9538 755.949 28.5888C757.781 26.2024 760.391 24.3913 763.779 23.1555C767.188 21.8984 771.226 21.2699 775.892 21.2699C782.987 21.2699 788.58 22.7401 792.671 25.6804C796.783 28.6207 798.946 32.6903 799.159 37.8892ZM843.73 21.9091V34.6932H810.875V21.9091H843.73ZM817.139 71V20.5028C817.139 16.4545 817.864 13.0987 819.313 10.4354C820.761 7.77202 822.807 5.77983 825.449 4.4588C828.091 3.13778 831.202 2.47727 834.781 2.47727C837.019 2.47727 839.192 2.64772 841.301 2.98864C843.432 3.32955 845.009 3.62784 846.031 3.88352L843.475 16.5398C842.835 16.348 842.09 16.1989 841.237 16.0923C840.385 15.9645 839.639 15.9006 839 15.9006C837.338 15.9006 836.22 16.2521 835.644 16.9553C835.069 17.6584 834.781 18.5852 834.781 19.7358V71H817.139ZM856.795 71.767C853.663 71.767 850.893 71.2557 848.486 70.233C846.099 69.1889 844.224 67.6122 842.861 65.5028C841.497 63.3935 840.815 60.7088 840.815 57.4489C840.815 54.7642 841.273 52.4737 842.189 50.5774C843.106 48.6598 844.384 47.0938 846.025 45.8793C847.665 44.6648 849.572 43.7379 851.745 43.0987C853.94 42.4595 856.305 42.044 858.841 41.8523C861.589 41.6392 863.794 41.3835 865.456 41.0852C867.14 40.7656 868.354 40.3288 869.1 39.7749C869.846 39.1996 870.218 38.4432 870.218 37.5057V37.3778C870.218 36.0994 869.728 35.1193 868.748 34.4375C867.768 33.7557 866.511 33.4148 864.977 33.4148C863.294 33.4148 861.919 33.7876 860.854 34.5334C859.81 35.2578 859.182 36.3764 858.968 37.8892H842.733C842.946 34.9062 843.894 32.1577 845.577 29.6435C847.282 27.108 849.764 25.0838 853.024 23.571C856.284 22.0369 860.353 21.2699 865.233 21.2699C868.748 21.2699 871.902 21.6854 874.693 22.5163C877.484 23.326 879.86 24.4659 881.82 25.9361C883.78 27.3849 885.272 29.0895 886.294 31.0497C887.339 32.9886 887.861 35.098 887.861 37.3778V71H871.369V64.0966H870.986C870.005 65.929 868.812 67.4098 867.406 68.5391C866.021 69.6683 864.434 70.4886 862.644 71C860.875 71.5114 858.926 71.767 856.795 71.767ZM862.548 60.6449C863.89 60.6449 865.147 60.3679 866.319 59.8139C867.513 59.2599 868.482 58.4609 869.228 57.4169C869.973 56.3729 870.346 55.1051 870.346 53.6136V49.5227C869.878 49.7145 869.377 49.8956 868.844 50.0661C868.333 50.2365 867.779 50.3963 867.182 50.5455C866.607 50.6946 865.989 50.8331 865.329 50.9609C864.689 51.0888 864.018 51.206 863.315 51.3125C861.951 51.5256 860.833 51.8771 859.959 52.3672C859.107 52.8359 858.468 53.4219 858.042 54.125C857.637 54.8068 857.434 55.5739 857.434 56.4261C857.434 57.7898 857.914 58.8338 858.873 59.5582C859.831 60.2827 861.057 60.6449 862.548 60.6449ZM935.762 37.8892H919.526C919.441 36.8878 919.09 36.0249 918.472 35.3004C917.854 34.576 917.055 34.022 916.075 33.6385C915.116 33.2337 914.051 33.0312 912.879 33.0312C911.366 33.0312 910.066 33.3082 908.98 33.8622C907.893 34.4162 907.36 35.2045 907.382 36.2273C907.36 36.9517 907.669 37.6229 908.308 38.2408C908.969 38.8587 910.237 39.3381 912.112 39.679L922.083 41.4688C927.112 42.3849 930.851 43.9297 933.301 46.103C935.773 48.255 937.019 51.142 937.041 54.7642C937.019 58.2585 935.975 61.2947 933.909 63.8729C931.863 66.4297 929.061 68.4112 925.503 69.8175C921.966 71.2024 917.928 71.8949 913.39 71.8949C905.89 71.8949 900.02 70.3608 895.78 67.2926C891.561 64.2244 889.207 60.1761 888.717 55.1477H906.231C906.465 56.7031 907.232 57.907 908.532 58.7592C909.853 59.5902 911.515 60.0057 913.518 60.0057C915.137 60.0057 916.469 59.7287 917.513 59.1747C918.578 58.6207 919.122 57.8324 919.143 56.8097C919.122 55.8722 918.653 55.1264 917.737 54.5724C916.842 54.0185 915.436 53.571 913.518 53.2301L904.825 51.696C899.818 50.8224 896.068 49.1605 893.575 46.7102C891.082 44.2599 889.846 41.1065 889.867 37.25C889.846 33.8409 890.741 30.9538 892.552 28.5888C894.384 26.2024 896.994 24.3913 900.382 23.1555C903.791 21.8984 907.829 21.2699 912.495 21.2699C919.59 21.2699 925.183 22.7401 929.274 25.6804C933.387 28.6207 935.549 32.6903 935.762 37.8892ZM967.676 21.9091V34.6932H935.332V21.9091H967.676ZM941.596 10.1477H959.238V55.2116C959.238 55.8935 959.355 56.4688 959.59 56.9375C959.824 57.3849 960.186 57.7259 960.676 57.9602C961.167 58.1733 961.795 58.2798 962.562 58.2798C963.095 58.2798 963.713 58.2159 964.416 58.0881C965.14 57.9602 965.673 57.8537 966.014 57.7685L968.571 70.169C967.782 70.4034 966.653 70.6911 965.183 71.032C963.734 71.3729 962.008 71.5966 960.005 71.7031C955.957 71.9162 952.559 71.5007 949.81 70.4567C947.061 69.3913 944.995 67.7187 943.61 65.4389C942.225 63.1591 941.554 60.304 941.596 56.8736V10.1477ZM992.47 71.8949C987.229 71.8949 982.712 70.8935 978.919 68.8906C975.148 66.8665 972.239 63.9687 970.194 60.1974C968.17 56.4048 967.158 51.8665 967.158 46.5824C967.158 41.5114 968.18 37.0795 970.226 33.2869C972.271 29.4943 975.158 26.5433 978.887 24.4339C982.616 22.3246 987.016 21.2699 992.087 21.2699C995.794 21.2699 999.15 21.8452 1002.15 22.9957C1005.16 24.1463 1007.73 25.8189 1009.86 28.0135C1011.99 30.1868 1013.63 32.8288 1014.78 35.9396C1015.93 39.0504 1016.5 42.5554 1016.5 46.4545V50.5455H972.655V40.8295H1000.27C1000.25 39.4233 999.885 38.1875 999.182 37.1222C998.5 36.0355 997.573 35.1939 996.401 34.5973C995.251 33.9794 993.94 33.6705 992.47 33.6705C991.043 33.6705 989.732 33.9794 988.539 34.5973C987.346 35.1939 986.387 36.0249 985.663 37.0902C984.96 38.1555 984.587 39.402 984.544 40.8295V51.3125C984.544 52.8892 984.874 54.2955 985.535 55.5312C986.195 56.767 987.143 57.7365 988.379 58.4396C989.615 59.1428 991.107 59.4943 992.854 59.4943C994.068 59.4943 995.176 59.3239 996.178 58.983C997.2 58.642 998.074 58.152 998.798 57.5128C999.523 56.8523 1000.06 56.0639 1000.4 55.1477H1016.5C1015.95 58.5568 1014.64 61.5185 1012.57 64.0327C1010.51 66.5256 1007.77 68.4645 1004.36 69.8494C1000.97 71.2131 997.009 71.8949 992.47 71.8949ZM1063.18 37.8892H1046.94C1046.85 36.8878 1046.5 36.0249 1045.89 35.3004C1045.27 34.576 1044.47 34.022 1043.49 33.6385C1042.53 33.2337 1041.46 33.0312 1040.29 33.0312C1038.78 33.0312 1037.48 33.3082 1036.39 33.8622C1035.31 34.4162 1034.77 35.2045 1034.79 36.2273C1034.77 36.9517 1035.08 37.6229 1035.72 38.2408C1036.38 38.8587 1037.65 39.3381 1039.52 39.679L1049.5 41.4688C1054.52 42.3849 1058.26 43.9297 1060.71 46.103C1063.19 48.255 1064.43 51.142 1064.45 54.7642C1064.43 58.2585 1063.39 61.2947 1061.32 63.8729C1059.28 66.4297 1056.47 68.4112 1052.92 69.8175C1049.38 71.2024 1045.34 71.8949 1040.8 71.8949C1033.3 71.8949 1027.43 70.3608 1023.19 67.2926C1018.97 64.2244 1016.62 60.1761 1016.13 55.1477H1033.64C1033.88 56.7031 1034.65 57.907 1035.95 58.7592C1037.27 59.5902 1038.93 60.0057 1040.93 60.0057C1042.55 60.0057 1043.88 59.7287 1044.93 59.1747C1045.99 58.6207 1046.53 57.8324 1046.56 56.8097C1046.53 55.8722 1046.07 55.1264 1045.15 54.5724C1044.26 54.0185 1042.85 53.571 1040.93 53.2301L1032.24 51.696C1027.23 50.8224 1023.48 49.1605 1020.99 46.7102C1018.5 44.2599 1017.26 41.1065 1017.28 37.25C1017.26 33.8409 1018.15 30.9538 1019.97 28.5888C1021.8 26.2024 1024.41 24.3913 1027.8 23.1555C1031.2 21.8984 1035.24 21.2699 1039.91 21.2699C1047 21.2699 1052.6 22.7401 1056.69 25.6804C1060.8 28.6207 1062.96 32.6903 1063.18 37.8892ZM1095.09 21.9091V34.6932H1062.75V21.9091H1095.09ZM1069.01 10.1477H1086.65V55.2116C1086.65 55.8935 1086.77 56.4688 1087 56.9375C1087.24 57.3849 1087.6 57.7259 1088.09 57.9602C1088.58 58.1733 1089.21 58.2798 1089.98 58.2798C1090.51 58.2798 1091.13 58.2159 1091.83 58.0881C1092.55 57.9602 1093.09 57.8537 1093.43 57.7685L1095.98 70.169C1095.2 70.4034 1094.07 70.6911 1092.6 71.032C1091.15 71.3729 1089.42 71.5966 1087.42 71.7031C1083.37 71.9162 1079.97 71.5007 1077.22 70.4567C1074.47 69.3913 1072.41 67.7187 1071.02 65.4389C1069.64 63.1591 1068.97 60.304 1069.01 56.8736V10.1477ZM1109.16 71V5.54545H1126.8V30.4744H1127.06C1127.7 28.8125 1128.64 27.2891 1129.87 25.9041C1131.11 24.4979 1132.64 23.3793 1134.47 22.5483C1136.31 21.696 1138.44 21.2699 1140.87 21.2699C1144.11 21.2699 1147.18 22.1328 1150.1 23.8587C1153.04 25.5845 1155.43 28.3011 1157.26 32.0085C1159.12 35.7159 1160.04 40.5312 1160.04 46.4545C1160.04 52.1222 1159.16 56.8203 1157.39 60.549C1155.64 64.2777 1153.3 67.0582 1150.36 68.8906C1147.44 70.723 1144.23 71.6392 1140.74 71.6392C1138.44 71.6392 1136.38 71.2663 1134.57 70.5206C1132.78 69.7536 1131.25 68.7202 1129.97 67.4205C1128.71 66.0994 1127.74 64.608 1127.06 62.946H1126.68V71H1109.16ZM1126.42 46.4545C1126.42 48.8409 1126.73 50.9077 1127.35 52.6548C1127.99 54.3807 1128.88 55.723 1130.03 56.6818C1131.2 57.6193 1132.6 58.0881 1134.22 58.0881C1135.84 58.0881 1137.21 57.63 1138.34 56.7138C1139.49 55.7763 1140.37 54.4446 1140.96 52.7188C1141.58 50.9716 1141.89 48.8835 1141.89 46.4545C1141.89 44.0256 1141.58 41.9482 1140.96 40.2223C1140.37 38.4751 1139.49 37.1435 1138.34 36.2273C1137.21 35.2898 1135.84 34.821 1134.22 34.821C1132.6 34.821 1131.2 35.2898 1130.03 36.2273C1128.88 37.1435 1127.99 38.4751 1127.35 40.2223C1126.73 41.9482 1126.42 44.0256 1126.42 46.4545ZM1162.03 71V21.9091H1179.67V71H1162.03ZM1170.88 16.7955C1168.47 16.7955 1166.41 16.0071 1164.71 14.4304C1163.01 12.8537 1162.15 10.9574 1162.15 8.74148C1162.15 6.52557 1163.01 4.62926 1164.71 3.05255C1166.41 1.47585 1168.46 0.6875 1170.85 0.6875C1173.25 0.6875 1175.3 1.47585 1176.98 3.05255C1178.69 4.62926 1179.54 6.52557 1179.54 8.74148C1179.54 10.9574 1178.69 12.8537 1176.98 14.4304C1175.3 16.0071 1173.26 16.7955 1170.88 16.7955ZM1199.11 59.3665L1199.24 38.4006H1201.54L1213.43 21.9091H1233.24L1213.3 47.6051H1208.31L1199.11 59.3665ZM1183.26 71V5.54545H1200.9V71H1183.26ZM1213.55 71L1202.3 51.5682L1213.81 39.0398L1233.75 71H1213.55ZM1253.94 71.8949C1248.7 71.8949 1244.18 70.8935 1240.39 68.8906C1236.62 66.8665 1233.71 63.9687 1231.66 60.1974C1229.64 56.4048 1228.63 51.8665 1228.63 46.5824C1228.63 41.5114 1229.65 37.0795 1231.69 33.2869C1233.74 29.4943 1236.63 26.5433 1240.35 24.4339C1244.08 22.3246 1248.48 21.2699 1253.55 21.2699C1257.26 21.2699 1260.62 21.8452 1263.62 22.9957C1266.63 24.1463 1269.19 25.8189 1271.32 28.0135C1273.45 30.1868 1275.1 32.8288 1276.25 35.9396C1277.4 39.0504 1277.97 42.5554 1277.97 46.4545V50.5455H1234.12V40.8295H1261.74C1261.71 39.4233 1261.35 38.1875 1260.65 37.1222C1259.97 36.0355 1259.04 35.1939 1257.87 34.5973C1256.72 33.9794 1255.41 33.6705 1253.94 33.6705C1252.51 33.6705 1251.2 33.9794 1250.01 34.5973C1248.81 35.1939 1247.85 36.0249 1247.13 37.0902C1246.43 38.1555 1246.05 39.402 1246.01 40.8295V51.3125C1246.01 52.8892 1246.34 54.2955 1247 55.5312C1247.66 56.767 1248.61 57.7365 1249.85 58.4396C1251.08 59.1428 1252.57 59.4943 1254.32 59.4943C1255.54 59.4943 1256.64 59.3239 1257.65 58.983C1258.67 58.642 1259.54 58.152 1260.27 57.5128C1260.99 56.8523 1261.52 56.0639 1261.86 55.1477H1277.97C1277.42 58.5568 1276.11 61.5185 1274.04 64.0327C1271.97 66.5256 1269.24 68.4645 1265.83 69.8494C1262.44 71.2131 1258.48 71.8949 1253.94 71.8949ZM1324.64 37.8892H1308.41C1308.32 36.8878 1307.97 36.0249 1307.35 35.3004C1306.73 34.576 1305.94 34.022 1304.96 33.6385C1304 33.2337 1302.93 33.0312 1301.76 33.0312C1300.25 33.0312 1298.95 33.3082 1297.86 33.8622C1296.77 34.4162 1296.24 35.2045 1296.26 36.2273C1296.24 36.9517 1296.55 37.6229 1297.19 38.2408C1297.85 38.8587 1299.12 39.3381 1300.99 39.679L1310.96 41.4688C1315.99 42.3849 1319.73 43.9297 1322.18 46.103C1324.65 48.255 1325.9 51.142 1325.92 54.7642C1325.9 58.2585 1324.86 61.2947 1322.79 63.8729C1320.74 66.4297 1317.94 68.4112 1314.38 69.8175C1310.85 71.2024 1306.81 71.8949 1302.27 71.8949C1294.77 71.8949 1288.9 70.3608 1284.66 67.2926C1280.44 64.2244 1278.09 60.1761 1277.6 55.1477H1295.11C1295.35 56.7031 1296.11 57.907 1297.41 58.7592C1298.73 59.5902 1300.4 60.0057 1302.4 60.0057C1304.02 60.0057 1305.35 59.7287 1306.39 59.1747C1307.46 58.6207 1308 57.8324 1308.02 56.8097C1308 55.8722 1307.53 55.1264 1306.62 54.5724C1305.72 54.0185 1304.32 53.571 1302.4 53.2301L1293.71 51.696C1288.7 50.8224 1284.95 49.1605 1282.46 46.7102C1279.96 44.2599 1278.73 41.1065 1278.75 37.25C1278.73 33.8409 1279.62 30.9538 1281.43 28.5888C1283.27 26.2024 1285.88 24.3913 1289.26 23.1555C1292.67 21.8984 1296.71 21.2699 1301.38 21.2699C1308.47 21.2699 1314.06 22.7401 1318.16 25.6804C1322.27 28.6207 1324.43 32.6903 1324.64 37.8892Z" fill="#009400"/>
</svg>
