<svg width="512" height="245" viewBox="0 0 512 245" fill="none" xmlns="http://www.w3.org/2000/svg">
<path d="M24.25 66.8352C19.2784 66.8352 15.0227 65.8509 11.483 63.8821C7.94318 61.8935 5.22869 59.1293 3.33949 55.5895C1.45028 52.0298 0.505682 47.9034 0.505682 43.2102C0.505682 38.517 1.45028 34.4006 3.33949 30.8608C5.22869 27.3011 7.94318 24.5369 11.483 22.5682C15.0227 20.5795 19.2784 19.5852 24.25 19.5852C28.7443 19.5852 32.6321 20.4006 35.9134 22.0312C39.2145 23.642 41.7699 25.929 43.5795 28.892C45.3892 31.8352 46.304 35.2955 46.3239 39.2727H31.0511C30.8324 36.8665 30.1364 35.0369 28.9631 33.7841C27.8097 32.5114 26.3182 31.875 24.4886 31.875C23.0568 31.875 21.804 32.2926 20.7301 33.1278C19.6563 33.9432 18.821 35.1861 18.2244 36.8565C17.6278 38.5071 17.3295 40.5852 17.3295 43.0909C17.3295 45.5966 17.6278 47.6847 18.2244 49.3551C18.821 51.0057 19.6563 52.2486 20.7301 53.0838C21.804 53.8991 23.0568 54.3068 24.4886 54.3068C25.7017 54.3068 26.7756 54.0284 27.7102 53.4716C28.6449 52.8949 29.4006 52.0597 29.9773 50.9659C30.5739 49.8523 30.9318 48.5 31.0511 46.9091H46.3239C46.2642 50.946 45.3395 54.4659 43.5497 57.4688C41.7599 60.4517 39.2244 62.7585 35.9432 64.3892C32.6818 66.0199 28.7841 66.8352 24.25 66.8352ZM70.1514 66.8352C65.1798 66.8352 60.9241 65.8509 57.3844 63.8821C53.8446 61.8935 51.1301 59.1293 49.2409 55.5895C47.3517 52.0298 46.4071 47.9034 46.4071 43.2102C46.4071 38.517 47.3517 34.4006 49.2409 30.8608C51.1301 27.3011 53.8446 24.5369 57.3844 22.5682C60.9241 20.5795 65.1798 19.5852 70.1514 19.5852C75.123 19.5852 79.3787 20.5795 82.9185 22.5682C86.4582 24.5369 89.1727 27.3011 91.0619 30.8608C92.9511 34.4006 93.8957 38.517 93.8957 43.2102C93.8957 47.9034 92.9511 52.0298 91.0619 55.5895C89.1727 59.1293 86.4582 61.8935 82.9185 63.8821C79.3787 65.8509 75.123 66.8352 70.1514 66.8352ZM70.2707 54.6648C71.6628 54.6648 72.8659 54.1974 73.8801 53.2628C74.8943 52.3281 75.6798 50.9957 76.2366 49.2656C76.7935 47.5355 77.0719 45.4773 77.0719 43.0909C77.0719 40.6847 76.7935 38.6264 76.2366 36.9162C75.6798 35.1861 74.8943 33.8537 73.8801 32.919C72.8659 31.9844 71.6628 31.517 70.2707 31.517C68.7991 31.517 67.5363 31.9844 66.4824 32.919C65.4284 33.8537 64.623 35.1861 64.0662 36.9162C63.5094 38.6264 63.231 40.6847 63.231 43.0909C63.231 45.4773 63.5094 47.5355 64.0662 49.2656C64.623 50.9957 65.4284 52.3281 66.4824 53.2628C67.5363 54.1974 68.7991 54.6648 70.2707 54.6648ZM137.418 35.0966H122.265C122.185 34.1619 121.857 33.3565 121.28 32.6804C120.704 32.0043 119.958 31.4872 119.043 31.1293C118.148 30.7514 117.154 30.5625 116.06 30.5625C114.648 30.5625 113.435 30.821 112.421 31.3381C111.407 31.8551 110.91 32.5909 110.93 33.5455C110.91 34.2216 111.198 34.848 111.795 35.4247C112.411 36.0014 113.594 36.4489 115.344 36.767L124.651 38.4375C129.344 39.2926 132.834 40.7344 135.121 42.7628C137.428 44.7713 138.592 47.4659 138.611 50.8466C138.592 54.108 137.617 56.9418 135.688 59.348C133.779 61.7344 131.164 63.5838 127.843 64.8963C124.542 66.1889 120.773 66.8352 116.538 66.8352C109.538 66.8352 104.059 65.4034 100.101 62.5398C96.164 59.6761 93.9665 55.8977 93.5091 51.2045H109.856C110.074 52.6562 110.79 53.7798 112.003 54.5753C113.236 55.3509 114.788 55.7386 116.657 55.7386C118.168 55.7386 119.411 55.4801 120.386 54.9631C121.38 54.446 121.887 53.7102 121.907 52.7557C121.887 51.8807 121.449 51.1847 120.594 50.6676C119.759 50.1506 118.447 49.733 116.657 49.4148L108.543 47.983C103.87 47.1676 100.37 45.6165 98.0432 43.3295C95.7165 41.0426 94.5631 38.0994 94.583 34.5C94.5631 31.3182 95.3983 28.6236 97.0887 26.4162C98.7989 24.1889 101.235 22.4986 104.397 21.3452C107.579 20.1719 111.347 19.5852 115.702 19.5852C122.324 19.5852 127.545 20.9574 131.363 23.7017C135.201 26.446 137.219 30.2443 137.418 35.0966ZM167.204 20.1818V32.1136H137.017V20.1818H167.204ZM142.863 9.20454H159.329V51.2642C159.329 51.9006 159.439 52.4375 159.657 52.875C159.876 53.2926 160.214 53.6108 160.672 53.8295C161.129 54.0284 161.716 54.1278 162.431 54.1278C162.929 54.1278 163.505 54.0682 164.162 53.9489C164.838 53.8295 165.335 53.7301 165.653 53.6506L168.039 65.2244C167.304 65.4432 166.25 65.7116 164.878 66.0298C163.525 66.348 161.914 66.5568 160.045 66.6562C156.267 66.8551 153.095 66.4673 150.53 65.4929C147.964 64.4986 146.035 62.9375 144.743 60.8097C143.45 58.6818 142.824 56.017 142.863 52.8153V9.20454ZM168.883 66V20.1818H184.872V28.892H185.349C186.184 25.6705 187.507 23.3139 189.317 21.8224C191.146 20.331 193.284 19.5852 195.73 19.5852C196.446 19.5852 197.152 19.6449 197.848 19.7642C198.564 19.8636 199.25 20.0128 199.906 20.2116V34.2614C199.091 33.983 198.086 33.7741 196.893 33.6349C195.7 33.4957 194.676 33.4261 193.821 33.4261C192.21 33.4261 190.758 33.794 189.466 34.5298C188.193 35.2457 187.189 36.2599 186.453 37.5724C185.717 38.8651 185.349 40.3864 185.349 42.1364V66H168.883ZM229.975 45.9545V20.1818H246.441V66H230.811V57.2898H230.333C229.339 60.2131 227.599 62.5 225.113 64.1506C222.627 65.7812 219.674 66.5966 216.254 66.5966C213.052 66.5966 210.248 65.8608 207.842 64.3892C205.456 62.9176 203.596 60.8892 202.264 58.304C200.951 55.7187 200.285 52.7557 200.265 49.4148V20.1818H216.731V45.9545C216.751 48.2216 217.328 50.0014 218.461 51.294C219.615 52.5866 221.225 53.233 223.294 53.233C224.666 53.233 225.849 52.9446 226.843 52.3679C227.858 51.7713 228.633 50.9361 229.17 49.8622C229.727 48.7685 229.995 47.4659 229.975 45.9545ZM249.776 66V20.1818H266.242V66H249.776ZM258.039 15.4091C255.792 15.4091 253.873 14.6733 252.282 13.2017C250.691 11.7301 249.895 9.96023 249.895 7.89204C249.895 5.82386 250.691 4.05398 252.282 2.58238C253.873 1.11079 255.782 0.375 258.009 0.375C260.256 0.375 262.165 1.11079 263.736 2.58238C265.327 4.05398 266.123 5.82386 266.123 7.89204C266.123 9.96023 265.327 11.7301 263.736 13.2017C262.165 14.6733 260.266 15.4091 258.039 15.4091ZM282.358 66.7159C279.435 66.7159 276.85 66.2386 274.603 65.2841C272.376 64.3097 270.626 62.8381 269.353 60.8693C268.08 58.9006 267.444 56.3949 267.444 53.3523C267.444 50.8466 267.871 48.7088 268.726 46.9389C269.582 45.1491 270.775 43.6875 272.306 42.554C273.837 41.4205 275.617 40.5554 277.645 39.9588C279.694 39.3622 281.901 38.9744 284.268 38.7955C286.833 38.5966 288.891 38.358 290.442 38.0795C292.013 37.7812 293.147 37.3736 293.843 36.8565C294.539 36.3196 294.887 35.6136 294.887 34.7386V34.6193C294.887 33.4261 294.43 32.5114 293.515 31.875C292.6 31.2386 291.427 30.9205 289.995 30.9205C288.424 30.9205 287.141 31.2685 286.147 31.9645C285.172 32.6406 284.586 33.6847 284.387 35.0966H269.233C269.432 32.3125 270.317 29.7472 271.888 27.4006C273.479 25.0341 275.796 23.1449 278.839 21.733C281.881 20.3011 285.68 19.5852 290.233 19.5852C293.515 19.5852 296.458 19.973 299.063 20.7486C301.668 21.5043 303.885 22.5682 305.715 23.9403C307.545 25.2926 308.937 26.8835 309.891 28.7131C310.866 30.5227 311.353 32.4915 311.353 34.6193V66H295.961V59.5568H295.603C294.688 61.267 293.574 62.6491 292.262 63.7031C290.969 64.7571 289.488 65.5227 287.817 66C286.167 66.4773 284.347 66.7159 282.358 66.7159ZM287.728 56.3352C288.981 56.3352 290.154 56.0767 291.248 55.5597C292.361 55.0426 293.266 54.2969 293.962 53.3224C294.658 52.348 295.006 51.1648 295.006 49.7727V45.9545C294.569 46.1335 294.101 46.3026 293.604 46.4616C293.127 46.6207 292.61 46.7699 292.053 46.9091C291.516 47.0483 290.939 47.1776 290.323 47.2969C289.726 47.4162 289.1 47.5256 288.444 47.625C287.171 47.8239 286.127 48.152 285.312 48.6094C284.516 49.0469 283.92 49.5938 283.522 50.25C283.144 50.8864 282.955 51.6023 282.955 52.3977C282.955 53.6705 283.403 54.6449 284.297 55.321C285.192 55.9972 286.336 56.3352 287.728 56.3352ZM314.18 66V20.1818H329.811V28.892H330.288C331.243 26.0284 332.874 23.7614 335.18 22.0909C337.487 20.4205 340.231 19.5852 343.413 19.5852C346.635 19.5852 349.409 20.4403 351.736 22.1506C354.062 23.8409 355.464 26.0881 355.942 28.892H356.419C357.195 26.0881 358.845 23.8409 361.371 22.1506C363.896 20.4403 366.859 19.5852 370.26 19.5852C374.655 19.5852 378.214 20.9972 380.939 23.821C383.683 26.6449 385.055 30.4034 385.055 35.0966V66H368.589V39.2727C368.589 37.2642 368.082 35.6932 367.068 34.5597C366.054 33.4062 364.692 32.8295 362.981 32.8295C361.291 32.8295 359.949 33.4062 358.954 34.5597C357.98 35.6932 357.493 37.2642 357.493 39.2727V66H341.743V39.2727C341.743 37.2642 341.236 35.6932 340.222 34.5597C339.207 33.4062 337.845 32.8295 336.135 32.8295C335.001 32.8295 334.027 33.0881 333.212 33.6051C332.396 34.1222 331.76 34.8679 331.303 35.8423C330.865 36.7969 330.646 37.9403 330.646 39.2727V66H314.18ZM410.21 66.8352C405.239 66.8352 400.983 65.8509 397.443 63.8821C393.904 61.8935 391.189 59.1293 389.3 55.5895C387.411 52.0298 386.466 47.9034 386.466 43.2102C386.466 38.517 387.411 34.4006 389.3 30.8608C391.189 27.3011 393.904 24.5369 397.443 22.5682C400.983 20.5795 405.239 19.5852 410.21 19.5852C415.182 19.5852 419.438 20.5795 422.977 22.5682C426.517 24.5369 429.232 27.3011 431.121 30.8608C433.01 34.4006 433.955 38.517 433.955 43.2102C433.955 47.9034 433.01 52.0298 431.121 55.5895C429.232 59.1293 426.517 61.8935 422.977 63.8821C419.438 65.8509 415.182 66.8352 410.21 66.8352ZM410.33 54.6648C411.722 54.6648 412.925 54.1974 413.939 53.2628C414.953 52.3281 415.739 50.9957 416.296 49.2656C416.852 47.5355 417.131 45.4773 417.131 43.0909C417.131 40.6847 416.852 38.6264 416.296 36.9162C415.739 35.1861 414.953 33.8537 413.939 32.919C412.925 31.9844 411.722 31.517 410.33 31.517C408.858 31.517 407.595 31.9844 406.541 32.919C405.487 33.8537 404.682 35.1861 404.125 36.9162C403.568 38.6264 403.29 40.6847 403.29 43.0909C403.29 45.4773 403.568 47.5355 404.125 49.2656C404.682 50.9957 405.487 52.3281 406.541 53.2628C407.595 54.1974 408.858 54.6648 410.33 54.6648ZM463.757 4.90909V66H447.291V4.90909H463.757ZM489.061 66.8352C484.169 66.8352 479.953 65.9006 476.413 64.0312C472.893 62.142 470.179 59.4375 468.27 55.9176C466.38 52.3778 465.436 48.142 465.436 43.2102C465.436 38.4773 466.39 34.3409 468.299 30.8011C470.209 27.2614 472.903 24.5071 476.383 22.5384C479.863 20.5696 483.97 19.5852 488.703 19.5852C492.163 19.5852 495.295 20.1222 498.099 21.196C500.903 22.2699 503.299 23.831 505.288 25.8793C507.277 27.9077 508.808 30.3736 509.882 33.277C510.956 36.1804 511.493 39.4517 511.493 43.0909V46.9091H470.567V37.8409H496.339C496.319 36.5284 495.981 35.375 495.325 34.3807C494.689 33.3665 493.824 32.581 492.73 32.0241C491.656 31.4474 490.433 31.1591 489.061 31.1591C487.728 31.1591 486.505 31.4474 485.392 32.0241C484.278 32.581 483.383 33.3565 482.707 34.3509C482.051 35.3452 481.703 36.5085 481.663 37.8409V47.625C481.663 49.0966 481.971 50.4091 482.588 51.5625C483.204 52.7159 484.089 53.6207 485.243 54.277C486.396 54.9332 487.788 55.2614 489.419 55.2614C490.552 55.2614 491.586 55.1023 492.521 54.7841C493.476 54.4659 494.291 54.0085 494.967 53.4119C495.643 52.7955 496.14 52.0597 496.459 51.2045H511.493C510.976 54.3864 509.753 57.1506 507.824 59.4972C505.895 61.8239 503.339 63.6335 500.157 64.9261C496.995 66.1989 493.297 66.8352 489.061 66.8352ZM1.9375 155V93.9091H18.4034V117.176H18.642C19.2386 115.625 20.1136 114.203 21.267 112.911C22.4205 111.598 23.8523 110.554 25.5625 109.778C27.2727 108.983 29.2614 108.585 31.5284 108.585C34.5511 108.585 37.4247 109.391 40.1491 111.001C42.8935 112.612 45.1207 115.148 46.831 118.608C48.5611 122.068 49.4261 126.562 49.4261 132.091C49.4261 137.381 48.6009 141.766 46.9503 145.246C45.3196 148.726 43.1321 151.321 40.3878 153.031C37.6634 154.741 34.6705 155.597 31.4091 155.597C29.2614 155.597 27.3423 155.249 25.652 154.553C23.9815 153.837 22.5497 152.872 21.3565 151.659C20.1832 150.426 19.2784 149.034 18.642 147.483H18.2841V155H1.9375ZM18.0455 132.091C18.0455 134.318 18.3338 136.247 18.9105 137.878C19.5071 139.489 20.3423 140.741 21.4162 141.636C22.5099 142.511 23.8125 142.949 25.3239 142.949C26.8352 142.949 28.1179 142.521 29.1719 141.666C30.2457 140.791 31.0611 139.548 31.6179 137.938C32.1946 136.307 32.483 134.358 32.483 132.091C32.483 129.824 32.1946 127.885 31.6179 126.274C31.0611 124.643 30.2457 123.401 29.1719 122.545C28.1179 121.67 26.8352 121.233 25.3239 121.233C23.8125 121.233 22.5099 121.67 21.4162 122.545C20.3423 123.401 19.5071 124.643 18.9105 126.274C18.3338 127.885 18.0455 129.824 18.0455 132.091ZM51.2768 155V109.182H67.7427V155H51.2768ZM59.5395 104.409C57.2924 104.409 55.3734 103.673 53.7824 102.202C52.1915 100.73 51.3961 98.9602 51.3961 96.892C51.3961 94.8239 52.1915 93.054 53.7824 91.5824C55.3734 90.1108 57.2824 89.375 59.5097 89.375C61.7569 89.375 63.666 90.1108 65.237 91.5824C66.8279 93.054 67.6234 94.8239 67.6234 96.892C67.6234 98.9602 66.8279 100.73 65.237 102.202C63.666 103.673 61.7668 104.409 59.5395 104.409ZM93.1661 155.835C88.1945 155.835 83.9388 154.851 80.399 152.882C76.8593 150.893 74.1448 148.129 72.2556 144.589C70.3664 141.03 69.4218 136.903 69.4218 132.21C69.4218 127.517 70.3664 123.401 72.2556 119.861C74.1448 116.301 76.8593 113.537 80.399 111.568C83.9388 109.58 88.1945 108.585 93.1661 108.585C97.6604 108.585 101.548 109.401 104.829 111.031C108.131 112.642 110.686 114.929 112.496 117.892C114.305 120.835 115.22 124.295 115.24 128.273H99.9672C99.7485 125.866 99.0525 124.037 97.8792 122.784C96.7258 121.511 95.2343 120.875 93.4047 120.875C91.9729 120.875 90.7201 121.293 89.6462 122.128C88.5723 122.943 87.7371 124.186 87.1405 125.857C86.5439 127.507 86.2456 129.585 86.2456 132.091C86.2456 134.597 86.5439 136.685 87.1405 138.355C87.7371 140.006 88.5723 141.249 89.6462 142.084C90.7201 142.899 91.9729 143.307 93.4047 143.307C94.6178 143.307 95.6917 143.028 96.6263 142.472C97.561 141.895 98.3167 141.06 98.8934 139.966C99.49 138.852 99.8479 137.5 99.9672 135.909H115.24C115.18 139.946 114.256 143.466 112.466 146.469C110.676 149.452 108.141 151.759 104.859 153.389C101.598 155.02 97.7002 155.835 93.1661 155.835ZM116.994 155V109.182H133.46V155H116.994ZM125.256 104.409C123.009 104.409 121.09 103.673 119.499 102.202C117.908 100.73 117.113 98.9602 117.113 96.892C117.113 94.8239 117.908 93.054 119.499 91.5824C121.09 90.1108 122.999 89.375 125.227 89.375C127.474 89.375 129.383 90.1108 130.954 91.5824C132.545 93.054 133.34 94.8239 133.34 96.892C133.34 98.9602 132.545 100.73 130.954 102.202C129.383 103.673 127.484 104.409 125.256 104.409ZM148.503 172.182V109.182H164.85V117.176H165.208C165.805 115.625 166.68 114.203 167.833 112.911C168.986 111.598 170.418 110.554 172.128 109.778C173.839 108.983 175.827 108.585 178.094 108.585C181.117 108.585 183.991 109.391 186.715 111.001C189.459 112.612 191.687 115.148 193.397 118.608C195.127 122.068 195.992 126.562 195.992 132.091C195.992 137.381 195.167 141.766 193.516 145.246C191.886 148.726 189.698 151.321 186.954 153.031C184.229 154.741 181.236 155.597 177.975 155.597C175.827 155.597 173.908 155.249 172.218 154.553C170.548 153.837 169.116 152.872 167.923 151.659C166.749 150.426 165.844 149.034 165.208 147.483H164.969V172.182H148.503ZM164.611 132.091C164.611 134.318 164.9 136.247 165.476 137.878C166.073 139.489 166.908 140.741 167.982 141.636C169.076 142.511 170.378 142.949 171.89 142.949C173.401 142.949 174.684 142.521 175.738 141.666C176.812 140.791 177.627 139.548 178.184 137.938C178.761 136.307 179.049 134.358 179.049 132.091C179.049 129.824 178.761 127.885 178.184 126.274C177.627 124.643 176.812 123.401 175.738 122.545C174.684 121.67 173.401 121.233 171.89 121.233C170.378 121.233 169.076 121.67 167.982 122.545C166.908 123.401 166.073 124.643 165.476 126.274C164.9 127.885 164.611 129.824 164.611 132.091ZM197.85 155V109.182H214.316V155H197.85ZM206.113 104.409C203.866 104.409 201.947 103.673 200.356 102.202C198.765 100.73 197.97 98.9602 197.97 96.892C197.97 94.8239 198.765 93.054 200.356 91.5824C201.947 90.1108 203.856 89.375 206.083 89.375C208.33 89.375 210.239 90.1108 211.81 91.5824C213.401 93.054 214.197 94.8239 214.197 96.892C214.197 98.9602 213.401 100.73 211.81 102.202C210.239 103.673 208.34 104.409 206.113 104.409ZM247.376 134.955V109.182H263.842V155H248.211V146.29H247.734C246.74 149.213 244.999 151.5 242.514 153.151C240.028 154.781 237.075 155.597 233.654 155.597C230.453 155.597 227.649 154.861 225.242 153.389C222.856 151.918 220.997 149.889 219.664 147.304C218.352 144.719 217.686 141.756 217.666 138.415V109.182H234.132V134.955C234.151 137.222 234.728 139.001 235.862 140.294C237.015 141.587 238.626 142.233 240.694 142.233C242.066 142.233 243.249 141.945 244.244 141.368C245.258 140.771 246.034 139.936 246.57 138.862C247.127 137.768 247.396 136.466 247.376 134.955ZM235.444 103.455L226.495 90.0909H240.575L246.302 103.455H235.444ZM325.047 109.182L309.655 155H290.564L275.172 109.182H292.473L299.871 139.489H300.348L307.746 109.182H325.047ZM345.25 155.835C340.358 155.835 336.142 154.901 332.602 153.031C329.083 151.142 326.368 148.437 324.459 144.918C322.57 141.378 321.625 137.142 321.625 132.21C321.625 127.477 322.58 123.341 324.489 119.801C326.398 116.261 329.093 113.507 332.573 111.538C336.053 109.57 340.159 108.585 344.892 108.585C348.352 108.585 351.485 109.122 354.289 110.196C357.093 111.27 359.489 112.831 361.477 114.879C363.466 116.908 364.997 119.374 366.071 122.277C367.145 125.18 367.682 128.452 367.682 132.091V135.909H326.756V126.841H352.529C352.509 125.528 352.171 124.375 351.514 123.381C350.878 122.366 350.013 121.581 348.919 121.024C347.845 120.447 346.622 120.159 345.25 120.159C343.918 120.159 342.695 120.447 341.581 121.024C340.468 121.581 339.573 122.357 338.897 123.351C338.24 124.345 337.892 125.509 337.852 126.841V136.625C337.852 138.097 338.161 139.409 338.777 140.562C339.394 141.716 340.279 142.621 341.432 143.277C342.585 143.933 343.977 144.261 345.608 144.261C346.742 144.261 347.776 144.102 348.71 143.784C349.665 143.466 350.48 143.009 351.156 142.412C351.833 141.795 352.33 141.06 352.648 140.205H367.682C367.165 143.386 365.942 146.151 364.013 148.497C362.084 150.824 359.529 152.634 356.347 153.926C353.185 155.199 349.486 155.835 345.25 155.835ZM385.827 93.9091V155H369.361V93.9091H385.827ZM411.25 155.835C406.279 155.835 402.023 154.851 398.483 152.882C394.944 150.893 392.229 148.129 390.34 144.589C388.451 141.03 387.506 136.903 387.506 132.21C387.506 127.517 388.451 123.401 390.34 119.861C392.229 116.301 394.944 113.537 398.483 111.568C402.023 109.58 406.279 108.585 411.25 108.585C416.222 108.585 420.478 109.58 424.018 111.568C427.557 113.537 430.272 116.301 432.161 119.861C434.05 123.401 434.995 127.517 434.995 132.21C434.995 136.903 434.05 141.03 432.161 144.589C430.272 148.129 427.557 150.893 424.018 152.882C420.478 154.851 416.222 155.835 411.25 155.835ZM411.37 143.665C412.762 143.665 413.965 143.197 414.979 142.263C415.993 141.328 416.779 139.996 417.336 138.266C417.893 136.536 418.171 134.477 418.171 132.091C418.171 129.685 417.893 127.626 417.336 125.916C416.779 124.186 415.993 122.854 414.979 121.919C413.965 120.984 412.762 120.517 411.37 120.517C409.898 120.517 408.635 120.984 407.581 121.919C406.527 122.854 405.722 124.186 405.165 125.916C404.608 127.626 404.33 129.685 404.33 132.091C404.33 134.477 404.608 136.536 405.165 138.266C405.722 139.996 406.527 141.328 407.581 142.263C408.635 143.197 409.898 143.665 411.37 143.665ZM458.71 155.835C453.739 155.835 449.483 154.851 445.943 152.882C442.404 150.893 439.689 148.129 437.8 144.589C435.911 141.03 434.966 136.903 434.966 132.21C434.966 127.517 435.911 123.401 437.8 119.861C439.689 116.301 442.404 113.537 445.943 111.568C449.483 109.58 453.739 108.585 458.71 108.585C463.205 108.585 467.093 109.401 470.374 111.031C473.675 112.642 476.23 114.929 478.04 117.892C479.85 120.835 480.764 124.295 480.784 128.273H465.512C465.293 125.866 464.597 124.037 463.424 122.784C462.27 121.511 460.779 120.875 458.949 120.875C457.517 120.875 456.264 121.293 455.191 122.128C454.117 122.943 453.282 124.186 452.685 125.857C452.088 127.507 451.79 129.585 451.79 132.091C451.79 134.597 452.088 136.685 452.685 138.355C453.282 140.006 454.117 141.249 455.191 142.084C456.264 142.899 457.517 143.307 458.949 143.307C460.162 143.307 461.236 143.028 462.171 142.472C463.105 141.895 463.861 141.06 464.438 139.966C465.034 138.852 465.392 137.5 465.512 135.909H480.784C480.725 139.946 479.8 143.466 478.01 146.469C476.22 149.452 473.685 151.759 470.404 153.389C467.142 155.02 463.245 155.835 458.71 155.835ZM482.538 155V109.182H499.004V155H482.538ZM490.801 104.409C488.554 104.409 486.635 103.673 485.044 102.202C483.453 100.73 482.657 98.9602 482.657 96.892C482.657 94.8239 483.453 93.054 485.044 91.5824C486.635 90.1108 488.544 89.375 490.771 89.375C493.018 89.375 494.927 90.1108 496.498 91.5824C498.089 93.054 498.885 94.8239 498.885 96.892C498.885 98.9602 498.089 100.73 496.498 102.202C494.927 103.673 493.028 104.409 490.801 104.409ZM14.9432 244.716C12.0199 244.716 9.43466 244.239 7.1875 243.284C4.96023 242.31 3.21023 240.838 1.9375 238.869C0.664773 236.901 0.0284092 234.395 0.0284092 231.352C0.0284092 228.847 0.455966 226.709 1.31108 224.939C2.16619 223.149 3.35938 221.688 4.89062 220.554C6.42188 219.42 8.2017 218.555 10.2301 217.959C12.2784 217.362 14.4858 216.974 16.8523 216.795C19.4176 216.597 21.4759 216.358 23.027 216.08C24.598 215.781 25.7315 215.374 26.4276 214.857C27.1236 214.32 27.4716 213.614 27.4716 212.739V212.619C27.4716 211.426 27.0142 210.511 26.0994 209.875C25.1847 209.239 24.0114 208.92 22.5795 208.92C21.0085 208.92 19.7259 209.268 18.7315 209.964C17.7571 210.641 17.1705 211.685 16.9716 213.097H1.81818C2.01705 210.312 2.90199 207.747 4.47301 205.401C6.06392 203.034 8.38068 201.145 11.4233 199.733C14.4659 198.301 18.2642 197.585 22.8182 197.585C26.0994 197.585 29.0426 197.973 31.6477 198.749C34.2528 199.504 36.4702 200.568 38.2997 201.94C40.1293 203.293 41.5213 204.884 42.4759 206.713C43.4503 208.523 43.9375 210.491 43.9375 212.619V244H28.5455V237.557H28.1875C27.2727 239.267 26.1591 240.649 24.8466 241.703C23.554 242.757 22.0724 243.523 20.402 244C18.7514 244.477 16.9318 244.716 14.9432 244.716ZM20.3125 234.335C21.5653 234.335 22.7386 234.077 23.8324 233.56C24.946 233.043 25.8509 232.297 26.5469 231.322C27.2429 230.348 27.5909 229.165 27.5909 227.773V223.955C27.1534 224.134 26.6861 224.303 26.1889 224.462C25.7116 224.621 25.1946 224.77 24.6378 224.909C24.1009 225.048 23.5241 225.178 22.9077 225.297C22.3111 225.416 21.6847 225.526 21.0284 225.625C19.7557 225.824 18.7116 226.152 17.8963 226.609C17.1009 227.047 16.5043 227.594 16.1065 228.25C15.7287 228.886 15.5398 229.602 15.5398 230.398C15.5398 231.67 15.9872 232.645 16.8821 233.321C17.777 233.997 18.9205 234.335 20.3125 234.335ZM63.231 182.909V244H46.765V182.909H63.231ZM78.2749 244V198.182H93.9056V206.892H94.3828C95.3374 204.028 96.9681 201.761 99.2749 200.091C101.582 198.42 104.326 197.585 107.508 197.585C110.729 197.585 113.504 198.44 115.83 200.151C118.157 201.841 119.559 204.088 120.036 206.892H120.514C121.289 204.088 122.94 201.841 125.465 200.151C127.991 198.44 130.954 197.585 134.354 197.585C138.749 197.585 142.309 198.997 145.033 201.821C147.778 204.645 149.15 208.403 149.15 213.097V244H132.684V217.273C132.684 215.264 132.177 213.693 131.163 212.56C130.148 211.406 128.786 210.83 127.076 210.83C125.386 210.83 124.043 211.406 123.049 212.56C122.075 213.693 121.587 215.264 121.587 217.273V244H105.837V217.273C105.837 215.264 105.33 213.693 104.316 212.56C103.302 211.406 101.94 210.83 100.229 210.83C99.0959 210.83 98.1215 211.088 97.3061 211.605C96.4908 212.122 95.8544 212.868 95.397 213.842C94.9595 214.797 94.7408 215.94 94.7408 217.273V244H78.2749ZM174.305 244.835C169.333 244.835 165.078 243.851 161.538 241.882C157.998 239.893 155.284 237.129 153.394 233.589C151.505 230.03 150.561 225.903 150.561 221.21C150.561 216.517 151.505 212.401 153.394 208.861C155.284 205.301 157.998 202.537 161.538 200.568C165.078 198.58 169.333 197.585 174.305 197.585C179.276 197.585 183.532 198.58 187.072 200.568C190.612 202.537 193.326 205.301 195.215 208.861C197.105 212.401 198.049 216.517 198.049 221.21C198.049 225.903 197.105 230.03 195.215 233.589C193.326 237.129 190.612 239.893 187.072 241.882C183.532 243.851 179.276 244.835 174.305 244.835ZM174.424 232.665C175.816 232.665 177.019 232.197 178.034 231.263C179.048 230.328 179.833 228.996 180.39 227.266C180.947 225.536 181.225 223.477 181.225 221.091C181.225 218.685 180.947 216.626 180.39 214.916C179.833 213.186 179.048 211.854 178.034 210.919C177.019 209.984 175.816 209.517 174.424 209.517C172.953 209.517 171.69 209.984 170.636 210.919C169.582 211.854 168.776 213.186 168.22 214.916C167.663 216.626 167.384 218.685 167.384 221.091C167.384 223.477 167.663 225.536 168.22 227.266C168.776 228.996 169.582 230.328 170.636 231.263C171.69 232.197 172.953 232.665 174.424 232.665ZM216.157 218.227V244H199.691V198.182H215.322V206.892H215.799C216.793 203.989 218.543 201.712 221.049 200.061C223.575 198.411 226.518 197.585 229.878 197.585C233.12 197.585 235.934 198.331 238.32 199.822C240.726 201.294 242.586 203.322 243.898 205.908C245.231 208.493 245.887 211.446 245.867 214.767V244H229.401V218.227C229.421 215.96 228.844 214.18 227.671 212.888C226.518 211.595 224.907 210.949 222.839 210.949C221.486 210.949 220.303 211.247 219.289 211.844C218.295 212.42 217.529 213.256 216.992 214.349C216.455 215.423 216.177 216.716 216.157 218.227ZM265.541 244.597C262.28 244.597 259.277 243.741 256.532 242.031C253.808 240.321 251.62 237.726 249.97 234.246C248.339 230.766 247.524 226.381 247.524 221.091C247.524 215.562 248.379 211.068 250.089 207.608C251.819 204.148 254.047 201.612 256.771 200.001C259.515 198.391 262.399 197.585 265.422 197.585C267.689 197.585 269.677 197.983 271.387 198.778C273.098 199.554 274.53 200.598 275.683 201.911C276.836 203.203 277.711 204.625 278.308 206.176H278.547V182.909H295.012V244H278.666V236.483H278.308C277.672 238.034 276.757 239.426 275.564 240.659C274.39 241.872 272.959 242.837 271.268 243.553C269.598 244.249 267.689 244.597 265.541 244.597ZM271.626 231.949C273.137 231.949 274.43 231.511 275.504 230.636C276.598 229.741 277.433 228.489 278.01 226.878C278.606 225.247 278.905 223.318 278.905 221.091C278.905 218.824 278.606 216.885 278.01 215.274C277.433 213.643 276.598 212.401 275.504 211.545C274.43 210.67 273.137 210.233 271.626 210.233C270.115 210.233 268.822 210.67 267.748 211.545C266.694 212.401 265.879 213.643 265.302 215.274C264.745 216.885 264.467 218.824 264.467 221.091C264.467 223.358 264.745 225.307 265.302 226.938C265.879 228.548 266.694 229.791 267.748 230.666C268.822 231.521 270.115 231.949 271.626 231.949ZM320.13 244.835C315.159 244.835 310.903 243.851 307.363 241.882C303.823 239.893 301.109 237.129 299.22 233.589C297.33 230.03 296.386 225.903 296.386 221.21C296.386 216.517 297.33 212.401 299.22 208.861C301.109 205.301 303.823 202.537 307.363 200.568C310.903 198.58 315.159 197.585 320.13 197.585C325.102 197.585 329.357 198.58 332.897 200.568C336.437 202.537 339.151 205.301 341.041 208.861C342.93 212.401 343.874 216.517 343.874 221.21C343.874 225.903 342.93 230.03 341.041 233.589C339.151 237.129 336.437 239.893 332.897 241.882C329.357 243.851 325.102 244.835 320.13 244.835ZM320.249 232.665C321.642 232.665 322.845 232.197 323.859 231.263C324.873 230.328 325.659 228.996 326.215 227.266C326.772 225.536 327.051 223.477 327.051 221.091C327.051 218.685 326.772 216.626 326.215 214.916C325.659 213.186 324.873 211.854 323.859 210.919C322.845 209.984 321.642 209.517 320.249 209.517C318.778 209.517 317.515 209.984 316.461 210.919C315.407 211.854 314.602 213.186 314.045 214.916C313.488 216.626 313.21 218.685 313.21 221.091C313.21 223.477 313.488 225.536 314.045 227.266C314.602 228.996 315.407 230.328 316.461 231.263C317.515 232.197 318.778 232.665 320.249 232.665Z" fill="#009400"/>
</svg>
