<svg viewBox="0 0 1155 234" fill="none" xmlns="http://www.w3.org/2000/svg">
<path d="M18.2828 104L0.282837 32H26.1578L34.4078 75.875H34.9703L44.1578 32H69.2828L78.8453 75.5H79.4078L87.2828 32H113.158L95.1578 104H67.2203L57.0953 65.375H56.3453L46.2203 104H18.2828ZM146.324 105.312C138.636 105.312 132.011 103.844 126.449 100.906C120.918 97.9375 116.652 93.6875 113.652 88.1562C110.683 82.5937 109.199 75.9375 109.199 68.1875C109.199 60.75 110.699 54.25 113.699 48.6875C116.699 43.125 120.933 38.7969 126.402 35.7031C131.871 32.6094 138.324 31.0625 145.761 31.0625C151.199 31.0625 156.121 31.9063 160.527 33.5937C164.933 35.2812 168.699 37.7344 171.824 40.9531C174.949 44.1406 177.355 48.0156 179.043 52.5781C180.73 57.1406 181.574 62.2812 181.574 68V74H117.261V59.75H157.761C157.73 57.6875 157.199 55.875 156.168 54.3125C155.168 52.7187 153.808 51.4844 152.089 50.6094C150.402 49.7031 148.48 49.25 146.324 49.25C144.23 49.25 142.308 49.7031 140.558 50.6094C138.808 51.4844 137.402 52.7031 136.339 54.2656C135.308 55.8281 134.761 57.6562 134.699 59.75V75.125C134.699 77.4375 135.183 79.5 136.152 81.3125C137.121 83.125 138.511 84.5469 140.324 85.5781C142.136 86.6094 144.324 87.125 146.886 87.125C148.668 87.125 150.293 86.875 151.761 86.375C153.261 85.875 154.543 85.1562 155.605 84.2188C156.668 83.25 157.449 82.0937 157.949 80.75H181.574C180.761 85.75 178.839 90.0937 175.808 93.7812C172.777 97.4375 168.761 100.281 163.761 102.312C158.793 104.312 152.98 105.312 146.324 105.312ZM202.214 104V8H228.089V44.5625H228.464C229.402 42.125 230.777 39.8906 232.589 37.8594C234.402 35.7969 236.652 34.1562 239.339 32.9375C242.027 31.6875 245.152 31.0625 248.714 31.0625C253.464 31.0625 257.98 32.3281 262.261 34.8594C266.574 37.3906 270.074 41.375 272.761 46.8125C275.48 52.25 276.839 59.3125 276.839 68C276.839 76.3125 275.542 83.2031 272.949 88.6719C270.386 94.1406 266.949 98.2187 262.636 100.906C258.355 103.594 253.652 104.938 248.527 104.938C245.152 104.938 242.136 104.391 239.48 103.297C236.855 102.172 234.605 100.656 232.73 98.75C230.886 96.8125 229.464 94.625 228.464 92.1875H227.902V104H202.214ZM227.527 68C227.527 71.5 227.98 74.5312 228.886 77.0937C229.824 79.625 231.136 81.5937 232.824 83C234.542 84.375 236.589 85.0625 238.964 85.0625C241.339 85.0625 243.355 84.3906 245.011 83.0469C246.699 81.6719 247.98 79.7187 248.855 77.1875C249.761 74.625 250.214 71.5625 250.214 68C250.214 64.4375 249.761 61.3906 248.855 58.8594C247.98 56.2969 246.699 54.3437 245.011 53C243.355 51.625 241.339 50.9375 238.964 50.9375C236.589 50.9375 234.542 51.625 232.824 53C231.136 54.3437 229.824 56.2969 228.886 58.8594C227.98 61.3906 227.527 64.4375 227.527 68ZM326.435 72.5V32H352.31V104H327.747V90.3125H326.997C325.435 94.9062 322.701 98.5 318.794 101.094C314.888 103.656 310.247 104.938 304.872 104.938C299.841 104.938 295.435 103.781 291.654 101.469C287.904 99.1562 284.982 95.9687 282.888 91.9062C280.826 87.8437 279.779 83.1875 279.747 77.9375V32H305.622V72.5C305.654 76.0625 306.56 78.8594 308.341 80.8906C310.154 82.9219 312.685 83.9375 315.935 83.9375C318.091 83.9375 319.951 83.4844 321.513 82.5781C323.107 81.6406 324.326 80.3281 325.169 78.6406C326.044 76.9219 326.466 74.875 326.435 72.5ZM357.55 104V32H383.425V104H357.55ZM370.534 24.5C367.003 24.5 363.988 23.3437 361.488 21.0313C358.988 18.7187 357.738 15.9375 357.738 12.6875C357.738 9.4375 358.988 6.65625 361.488 4.34375C363.988 2.03125 366.988 0.875 370.488 0.875C374.019 0.875 377.019 2.03125 379.488 4.34375C381.988 6.65625 383.238 9.4375 383.238 12.6875C383.238 15.9375 381.988 18.7187 379.488 21.0313C377.019 23.3437 374.034 24.5 370.534 24.5ZM414.564 8V104H388.689V8H414.564ZM445.89 104.938C440.765 104.938 436.046 103.594 431.733 100.906C427.452 98.2187 424.015 94.1406 421.421 88.6719C418.858 83.2031 417.577 76.3125 417.577 68C417.577 59.3125 418.921 52.25 421.608 46.8125C424.327 41.375 427.827 37.3906 432.108 34.8594C436.421 32.3281 440.952 31.0625 445.702 31.0625C449.265 31.0625 452.39 31.6875 455.077 32.9375C457.765 34.1562 460.015 35.7969 461.827 37.8594C463.64 39.8906 465.015 42.125 465.952 44.5625H466.327V8H492.202V104H466.515V92.1875H465.952C464.952 94.625 463.515 96.8125 461.64 98.75C459.796 100.656 457.546 102.172 454.89 103.297C452.265 104.391 449.265 104.938 445.89 104.938ZM455.452 85.0625C457.827 85.0625 459.858 84.375 461.546 83C463.265 81.5937 464.577 79.625 465.483 77.0937C466.421 74.5312 466.89 71.5 466.89 68C466.89 64.4375 466.421 61.3906 465.483 58.8594C464.577 56.2969 463.265 54.3437 461.546 53C459.858 51.625 457.827 50.9375 455.452 50.9375C453.077 50.9375 451.046 51.625 449.358 53C447.702 54.3437 446.421 56.2969 445.515 58.8594C444.64 61.3906 444.202 64.4375 444.202 68C444.202 71.5625 444.64 74.625 445.515 77.1875C446.421 79.7187 447.702 81.6719 449.358 83.0469C451.046 84.3906 453.077 85.0625 455.452 85.0625ZM558.3 32V50.75H510.862V32H558.3ZM520.05 14.75H545.925V80.8437C545.925 81.8437 546.097 82.6875 546.44 83.375C546.784 84.0312 547.315 84.5312 548.034 84.875C548.753 85.1875 549.675 85.3437 550.8 85.3437C551.581 85.3437 552.487 85.25 553.518 85.0625C554.581 84.875 555.362 84.7187 555.862 84.5937L559.612 102.781C558.456 103.125 556.8 103.547 554.643 104.047C552.518 104.547 549.987 104.875 547.05 105.031C541.112 105.344 536.128 104.734 532.097 103.203C528.065 101.641 525.034 99.1875 523.003 95.8437C520.972 92.5 519.987 88.3125 520.05 83.2812V14.75ZM588.36 63.5V104H562.485V8H587.423V45.6875H588.173C589.798 41.0937 592.501 37.5156 596.282 34.9531C600.063 32.3594 604.61 31.0625 609.923 31.0625C615.016 31.0625 619.438 32.2187 623.188 34.5312C626.97 36.8437 629.891 40.0312 631.954 44.0937C634.048 48.1562 635.079 52.8125 635.048 58.0625V104H609.173V63.5C609.204 59.9375 608.313 57.1406 606.501 55.1094C604.72 53.0781 602.173 52.0625 598.86 52.0625C596.766 52.0625 594.923 52.5313 593.329 53.4688C591.766 54.375 590.548 55.6875 589.673 57.4062C588.829 59.0937 588.391 61.125 588.36 63.5ZM674.401 105.312C666.714 105.312 660.089 103.844 654.526 100.906C648.995 97.9375 644.729 93.6875 641.729 88.1562C638.76 82.5937 637.276 75.9375 637.276 68.1875C637.276 60.75 638.776 54.25 641.776 48.6875C644.776 43.125 649.01 38.7969 654.479 35.7031C659.948 32.6094 666.401 31.0625 673.839 31.0625C679.276 31.0625 684.198 31.9063 688.604 33.5937C693.01 35.2812 696.776 37.7344 699.901 40.9531C703.026 44.1406 705.432 48.0156 707.12 52.5781C708.807 57.1406 709.651 62.2812 709.651 68V74H645.339V59.75H685.839C685.807 57.6875 685.276 55.875 684.245 54.3125C683.245 52.7187 681.885 51.4844 680.167 50.6094C678.479 49.7031 676.557 49.25 674.401 49.25C672.307 49.25 670.385 49.7031 668.635 50.6094C666.885 51.4844 665.479 52.7031 664.417 54.2656C663.385 55.8281 662.839 57.6562 662.776 59.75V75.125C662.776 77.4375 663.26 79.5 664.229 81.3125C665.198 83.125 666.589 84.5469 668.401 85.5781C670.214 86.6094 672.401 87.125 674.964 87.125C676.745 87.125 678.37 86.875 679.839 86.375C681.339 85.875 682.62 85.1562 683.682 84.2188C684.745 83.25 685.526 82.0937 686.026 80.75H709.651C708.839 85.75 706.917 90.0937 703.886 93.7812C700.854 97.4375 696.839 100.281 691.839 102.312C686.87 104.312 681.057 105.312 674.401 105.312ZM743.417 104L725.417 32H751.292L759.542 75.875H760.104L769.292 32H794.417L803.979 75.5H804.542L812.417 32H838.292L820.292 104H792.354L782.229 65.375H781.479L771.354 104H743.417ZM871.645 105.312C863.833 105.312 857.145 103.766 851.583 100.672C846.02 97.5469 841.754 93.2031 838.786 87.6406C835.817 82.0469 834.333 75.5625 834.333 68.1875C834.333 60.8125 835.817 54.3437 838.786 48.7812C841.754 43.1875 846.02 38.8437 851.583 35.75C857.145 32.625 863.833 31.0625 871.645 31.0625C879.458 31.0625 886.145 32.625 891.708 35.75C897.27 38.8437 901.536 43.1875 904.504 48.7812C907.473 54.3437 908.958 60.8125 908.958 68.1875C908.958 75.5625 907.473 82.0469 904.504 87.6406C901.536 93.2031 897.27 97.5469 891.708 100.672C886.145 103.766 879.458 105.312 871.645 105.312ZM871.833 86.1875C874.02 86.1875 875.911 85.4531 877.504 83.9844C879.098 82.5156 880.333 80.4219 881.208 77.7031C882.083 74.9844 882.52 71.75 882.52 68C882.52 64.2187 882.083 60.9844 881.208 58.2969C880.333 55.5781 879.098 53.4844 877.504 52.0156C875.911 50.5469 874.02 49.8125 871.833 49.8125C869.52 49.8125 867.536 50.5469 865.879 52.0156C864.223 53.4844 862.958 55.5781 862.083 58.2969C861.208 60.9844 860.77 64.2187 860.77 68C860.77 71.75 861.208 74.9844 862.083 77.7031C862.958 80.4219 864.223 82.5156 865.879 83.9844C867.536 85.4531 869.52 86.1875 871.833 86.1875ZM911.538 104V32H936.663V45.6875H937.413C938.725 40.625 940.803 36.9219 943.647 34.5781C946.522 32.2344 949.881 31.0625 953.725 31.0625C954.85 31.0625 955.959 31.1563 957.053 31.3438C958.178 31.5 959.256 31.7344 960.288 32.0469V54.125C959.006 53.6875 957.428 53.3594 955.553 53.1406C953.678 52.9219 952.069 52.8125 950.725 52.8125C948.194 52.8125 945.913 53.3906 943.881 54.5469C941.881 55.6719 940.303 57.2656 939.147 59.3281C937.991 61.3594 937.413 63.75 937.413 66.5V104H911.538ZM986.727 8V104H960.852V8H986.727ZM1018.05 104.938C1012.93 104.938 1008.21 103.594 1003.9 100.906C999.615 98.2187 996.178 94.1406 993.584 88.6719C991.022 83.2031 989.74 76.3125 989.74 68C989.74 59.3125 991.084 52.25 993.772 46.8125C996.49 41.375 999.99 37.3906 1004.27 34.8594C1008.58 32.3281 1013.12 31.0625 1017.87 31.0625C1021.43 31.0625 1024.55 31.6875 1027.24 32.9375C1029.93 34.1562 1032.18 35.7969 1033.99 37.8594C1035.8 39.8906 1037.18 42.125 1038.12 44.5625H1038.49V8H1064.37V104H1038.68V92.1875H1038.12C1037.12 94.625 1035.68 96.8125 1033.8 98.75C1031.96 100.656 1029.71 102.172 1027.05 103.297C1024.43 104.391 1021.43 104.938 1018.05 104.938ZM1027.62 85.0625C1029.99 85.0625 1032.02 84.375 1033.71 83C1035.43 81.5937 1036.74 79.625 1037.65 77.0937C1038.58 74.5312 1039.05 71.5 1039.05 68C1039.05 64.4375 1038.58 61.3906 1037.65 58.8594C1036.74 56.2969 1035.43 54.3437 1033.71 53C1032.02 51.625 1029.99 50.9375 1027.62 50.9375C1025.24 50.9375 1023.21 51.625 1021.52 53C1019.87 54.3437 1018.58 56.2969 1017.68 58.8594C1016.8 61.3906 1016.37 64.4375 1016.37 68C1016.37 71.5625 1016.8 74.625 1017.68 77.1875C1018.58 79.7187 1019.87 81.6719 1021.52 83.0469C1023.21 84.3906 1025.24 85.0625 1027.62 85.0625ZM1090.52 8V19.25C1090.52 22.3125 1089.9 25.375 1088.65 28.4375C1087.43 31.4687 1085.87 34.2969 1083.96 36.9219C1082.09 39.5156 1080.15 41.6875 1078.15 43.4375L1067.46 38C1068.77 35.75 1069.95 33.1406 1070.98 30.1719C1072.01 27.2031 1072.52 23.5625 1072.52 19.25V8H1090.52ZM1152.69 55.4375H1128.88C1128.76 53.9687 1128.24 52.7031 1127.33 51.6406C1126.43 50.5781 1125.26 49.7656 1123.82 49.2031C1122.41 48.6094 1120.85 48.3125 1119.13 48.3125C1116.91 48.3125 1115.01 48.7187 1113.41 49.5312C1111.82 50.3437 1111.04 51.5 1111.07 53C1111.04 54.0625 1111.49 55.0469 1112.43 55.9531C1113.4 56.8594 1115.26 57.5625 1118.01 58.0625L1132.63 60.6875C1140.01 62.0312 1145.49 64.2969 1149.08 67.4844C1152.71 70.6406 1154.54 74.875 1154.57 80.1875C1154.54 85.3125 1153.01 89.7656 1149.97 93.5469C1146.97 97.2969 1142.87 100.203 1137.65 102.266C1132.46 104.297 1126.54 105.312 1119.88 105.312C1108.88 105.312 1100.27 103.062 1094.05 98.5625C1087.87 94.0625 1084.41 88.125 1083.69 80.75H1109.38C1109.72 83.0312 1110.85 84.7969 1112.76 86.0469C1114.69 87.2656 1117.13 87.875 1120.07 87.875C1122.44 87.875 1124.4 87.4687 1125.93 86.6562C1127.49 85.8437 1128.29 84.6875 1128.32 83.1875C1128.29 81.8125 1127.6 80.7187 1126.26 79.9062C1124.94 79.0937 1122.88 78.4375 1120.07 77.9375L1107.32 75.6875C1099.97 74.4062 1094.47 71.9687 1090.82 68.375C1087.16 64.7812 1085.35 60.1562 1085.38 54.5C1085.35 49.5 1086.66 45.2656 1089.32 41.7969C1092.01 38.2969 1095.83 35.6406 1100.8 33.8281C1105.8 31.9844 1111.72 31.0625 1118.57 31.0625C1128.97 31.0625 1137.18 33.2188 1143.18 37.5313C1149.21 41.8437 1152.38 47.8125 1152.69 55.4375ZM439.435 160V178.75H391.247V160H439.435ZM400.435 232V157.937C400.435 152 401.497 147.078 403.622 143.172C405.747 139.266 408.747 136.344 412.622 134.406C416.497 132.469 421.06 131.5 426.31 131.5C429.591 131.5 432.778 131.75 435.872 132.25C438.997 132.75 441.31 133.187 442.81 133.562L439.06 152.125C438.122 151.844 437.028 151.625 435.778 151.469C434.528 151.281 433.435 151.187 432.497 151.187C430.06 151.187 428.419 151.703 427.575 152.734C426.731 153.766 426.31 155.125 426.31 156.812V232H400.435ZM458.597 233.125C454.003 233.125 449.94 232.375 446.409 230.875C442.909 229.344 440.159 227.031 438.159 223.937C436.159 220.844 435.159 216.906 435.159 212.125C435.159 208.187 435.831 204.828 437.175 202.047C438.518 199.234 440.393 196.938 442.8 195.156C445.206 193.375 448.003 192.016 451.19 191.078C454.409 190.141 457.878 189.531 461.597 189.25C465.628 188.937 468.862 188.562 471.3 188.125C473.768 187.656 475.55 187.016 476.643 186.203C477.737 185.359 478.284 184.25 478.284 182.875V182.687C478.284 180.812 477.565 179.375 476.128 178.375C474.69 177.375 472.847 176.875 470.597 176.875C468.128 176.875 466.112 177.422 464.55 178.516C463.018 179.578 462.097 181.219 461.784 183.437H437.972C438.284 179.062 439.675 175.031 442.143 171.344C444.643 167.625 448.284 164.656 453.065 162.438C457.847 160.188 463.815 159.063 470.972 159.063C476.128 159.063 480.753 159.672 484.847 160.891C488.94 162.078 492.425 163.75 495.3 165.906C498.175 168.031 500.362 170.531 501.862 173.406C503.393 176.25 504.159 179.344 504.159 182.687V232H479.972V221.875H479.409C477.972 224.562 476.222 226.734 474.159 228.391C472.128 230.047 469.8 231.25 467.175 232C464.581 232.75 461.722 233.125 458.597 233.125ZM467.034 216.812C469.003 216.812 470.847 216.406 472.565 215.594C474.315 214.781 475.737 213.609 476.831 212.078C477.925 210.547 478.472 208.687 478.472 206.5V200.5C477.784 200.781 477.05 201.047 476.268 201.297C475.518 201.547 474.706 201.781 473.831 202C472.987 202.219 472.081 202.422 471.112 202.609C470.175 202.797 469.19 202.969 468.159 203.125C466.159 203.437 464.518 203.953 463.237 204.672C461.987 205.359 461.05 206.219 460.425 207.25C459.831 208.25 459.534 209.375 459.534 210.625C459.534 212.625 460.237 214.156 461.643 215.219C463.05 216.281 464.847 216.812 467.034 216.812ZM574.415 183.437H550.602C550.477 181.969 549.962 180.703 549.055 179.641C548.149 178.578 546.977 177.766 545.54 177.203C544.134 176.609 542.571 176.312 540.852 176.312C538.634 176.312 536.727 176.719 535.134 177.531C533.54 178.344 532.759 179.5 532.79 181C532.759 182.062 533.212 183.047 534.149 183.953C535.118 184.859 536.977 185.562 539.727 186.062L554.352 188.688C561.727 190.031 567.212 192.297 570.805 195.484C574.43 198.641 576.259 202.875 576.29 208.187C576.259 213.312 574.727 217.766 571.696 221.547C568.696 225.297 564.587 228.203 559.368 230.266C554.18 232.297 548.259 233.312 541.602 233.312C530.602 233.312 521.993 231.062 515.774 226.562C509.587 222.062 506.134 216.125 505.415 208.75H531.102C531.446 211.031 532.571 212.797 534.477 214.047C536.415 215.266 538.852 215.875 541.79 215.875C544.165 215.875 546.118 215.469 547.649 214.656C549.212 213.844 550.009 212.688 550.04 211.188C550.009 209.813 549.321 208.719 547.977 207.906C546.665 207.094 544.602 206.437 541.79 205.937L529.04 203.687C521.696 202.406 516.196 199.969 512.54 196.375C508.884 192.781 507.071 188.156 507.102 182.5C507.071 177.5 508.384 173.266 511.04 169.797C513.727 166.297 517.555 163.641 522.524 161.828C527.524 159.984 533.446 159.063 540.29 159.063C550.696 159.063 558.899 161.219 564.899 165.531C570.93 169.844 574.102 175.812 574.415 183.437ZM621.221 160V178.75H573.784V160H621.221ZM582.971 142.75H608.846V208.844C608.846 209.844 609.018 210.688 609.362 211.375C609.706 212.031 610.237 212.531 610.956 212.875C611.675 213.187 612.596 213.344 613.721 213.344C614.503 213.344 615.409 213.25 616.44 213.063C617.503 212.875 618.284 212.719 618.784 212.594L622.534 230.781C621.378 231.125 619.721 231.547 617.565 232.047C615.44 232.547 612.909 232.875 609.971 233.031C604.034 233.344 599.05 232.734 595.018 231.203C590.987 229.641 587.956 227.187 585.925 223.844C583.893 220.5 582.909 216.312 582.971 211.281V142.75ZM657.587 233.312C649.899 233.312 643.274 231.844 637.712 228.906C632.18 225.937 627.915 221.687 624.915 216.156C621.946 210.594 620.462 203.937 620.462 196.188C620.462 188.75 621.962 182.25 624.962 176.687C627.962 171.125 632.196 166.797 637.665 163.703C643.133 160.609 649.587 159.063 657.024 159.063C662.462 159.063 667.383 159.906 671.79 161.594C676.196 163.281 679.962 165.734 683.087 168.953C686.212 172.141 688.618 176.016 690.305 180.578C691.993 185.141 692.837 190.281 692.837 196V202H628.524V187.75H669.024C668.993 185.687 668.462 183.875 667.43 182.312C666.43 180.719 665.071 179.484 663.352 178.609C661.665 177.703 659.743 177.25 657.587 177.25C655.493 177.25 653.571 177.703 651.821 178.609C650.071 179.484 648.665 180.703 647.602 182.266C646.571 183.828 646.024 185.656 645.962 187.75V203.125C645.962 205.437 646.446 207.5 647.415 209.312C648.383 211.125 649.774 212.547 651.587 213.578C653.399 214.609 655.587 215.125 658.149 215.125C659.93 215.125 661.555 214.875 663.024 214.375C664.524 213.875 665.805 213.156 666.868 212.219C667.93 211.25 668.712 210.094 669.212 208.75H692.837C692.024 213.75 690.102 218.094 687.071 221.781C684.04 225.438 680.024 228.281 675.024 230.312C670.055 232.312 664.243 233.312 657.587 233.312ZM761.288 183.437H737.475C737.35 181.969 736.834 180.703 735.928 179.641C735.022 178.578 733.85 177.766 732.413 177.203C731.006 176.609 729.444 176.312 727.725 176.312C725.506 176.312 723.6 176.719 722.006 177.531C720.413 178.344 719.631 179.5 719.663 181C719.631 182.062 720.084 183.047 721.022 183.953C721.991 184.859 723.85 185.562 726.6 186.062L741.225 188.688C748.6 190.031 754.084 192.297 757.678 195.484C761.303 198.641 763.131 202.875 763.163 208.187C763.131 213.312 761.6 217.766 758.569 221.547C755.569 225.297 751.459 228.203 746.241 230.266C741.053 232.297 735.131 233.312 728.475 233.312C717.475 233.312 708.866 231.062 702.647 226.562C696.459 222.062 693.006 216.125 692.288 208.75H717.975C718.319 211.031 719.444 212.797 721.35 214.047C723.288 215.266 725.725 215.875 728.663 215.875C731.038 215.875 732.991 215.469 734.522 214.656C736.084 213.844 736.881 212.688 736.913 211.188C736.881 209.813 736.194 208.719 734.85 207.906C733.538 207.094 731.475 206.437 728.663 205.937L715.913 203.687C708.569 202.406 703.069 199.969 699.413 196.375C695.756 192.781 693.944 188.156 693.975 182.5C693.944 177.5 695.256 173.266 697.913 169.797C700.6 166.297 704.428 163.641 709.397 161.828C714.397 159.984 720.319 159.063 727.163 159.063C737.569 159.063 745.772 161.219 751.772 165.531C757.803 169.844 760.975 175.812 761.288 183.437ZM808.094 160V178.75H760.657V160H808.094ZM769.844 142.75H795.719V208.844C795.719 209.844 795.891 210.688 796.235 211.375C796.579 212.031 797.11 212.531 797.829 212.875C798.547 213.187 799.469 213.344 800.594 213.344C801.375 213.344 802.282 213.25 803.313 213.063C804.375 212.875 805.157 212.719 805.657 212.594L809.407 230.781C808.25 231.125 806.594 231.547 804.438 232.047C802.313 232.547 799.782 232.875 796.844 233.031C790.907 233.344 785.922 232.734 781.891 231.203C777.86 229.641 774.829 227.187 772.797 223.844C770.766 220.5 769.782 216.312 769.844 211.281V142.75ZM828.735 232V136H854.61V172.562H854.985C855.922 170.125 857.297 167.891 859.11 165.859C860.922 163.797 863.172 162.156 865.86 160.937C868.547 159.687 871.672 159.063 875.235 159.063C879.985 159.063 884.5 160.328 888.781 162.859C893.094 165.391 896.594 169.375 899.281 174.812C902 180.25 903.36 187.312 903.36 196C903.36 204.312 902.063 211.203 899.469 216.672C896.906 222.141 893.469 226.219 889.156 228.906C884.875 231.594 880.172 232.938 875.047 232.938C871.672 232.938 868.656 232.391 866 231.297C863.375 230.172 861.125 228.656 859.25 226.75C857.406 224.812 855.985 222.625 854.985 220.187H854.422V232H828.735ZM854.047 196C854.047 199.5 854.5 202.531 855.406 205.094C856.344 207.625 857.656 209.594 859.344 211C861.063 212.375 863.11 213.063 865.485 213.063C867.86 213.063 869.875 212.391 871.531 211.047C873.219 209.672 874.5 207.719 875.375 205.188C876.281 202.625 876.735 199.562 876.735 196C876.735 192.437 876.281 189.391 875.375 186.859C874.5 184.297 873.219 182.344 871.531 181C869.875 179.625 867.86 178.937 865.485 178.937C863.11 178.937 861.063 179.625 859.344 181C857.656 182.344 856.344 184.297 855.406 186.859C854.5 189.391 854.047 192.437 854.047 196ZM906.268 232V160H932.143V232H906.268ZM919.252 152.5C915.721 152.5 912.705 151.344 910.205 149.031C907.705 146.719 906.455 143.937 906.455 140.687C906.455 137.437 907.705 134.656 910.205 132.344C912.705 130.031 915.705 128.875 919.205 128.875C922.737 128.875 925.737 130.031 928.205 132.344C930.705 134.656 931.955 137.437 931.955 140.687C931.955 143.937 930.705 146.719 928.205 149.031C925.737 151.344 922.752 152.5 919.252 152.5ZM960.656 214.937L960.844 184.188H964.219L981.656 160H1010.72L981.469 197.687H974.156L960.656 214.937ZM937.406 232V136H963.281V232H937.406ZM981.844 232L965.344 203.5L982.219 185.125L1011.47 232H981.844ZM1041.07 233.312C1033.38 233.312 1026.76 231.844 1021.2 228.906C1015.67 225.937 1011.4 221.687 1008.4 216.156C1005.43 210.594 1003.95 203.937 1003.95 196.188C1003.95 188.75 1005.45 182.25 1008.45 176.687C1011.45 171.125 1015.68 166.797 1021.15 163.703C1026.62 160.609 1033.07 159.063 1040.51 159.063C1045.95 159.063 1050.87 159.906 1055.28 161.594C1059.68 163.281 1063.45 165.734 1066.57 168.953C1069.7 172.141 1072.1 176.016 1073.79 180.578C1075.48 185.141 1076.32 190.281 1076.32 196V202H1012.01V187.75H1052.51C1052.48 185.687 1051.95 183.875 1050.92 182.312C1049.92 180.719 1048.56 179.484 1046.84 178.609C1045.15 177.703 1043.23 177.25 1041.07 177.25C1038.98 177.25 1037.06 177.703 1035.31 178.609C1033.56 179.484 1032.15 180.703 1031.09 182.266C1030.06 183.828 1029.51 185.656 1029.45 187.75V203.125C1029.45 205.437 1029.93 207.5 1030.9 209.312C1031.87 211.125 1033.26 212.547 1035.07 213.578C1036.88 214.609 1039.07 215.125 1041.63 215.125C1043.42 215.125 1045.04 214.875 1046.51 214.375C1048.01 213.875 1049.29 213.156 1050.35 212.219C1051.42 211.25 1052.2 210.094 1052.7 208.75H1076.32C1075.51 213.75 1073.59 218.094 1070.56 221.781C1067.53 225.438 1063.51 228.281 1058.51 230.312C1053.54 232.312 1047.73 233.312 1041.07 233.312ZM1144.77 183.437H1120.96C1120.84 181.969 1120.32 180.703 1119.41 179.641C1118.51 178.578 1117.34 177.766 1115.9 177.203C1114.49 176.609 1112.93 176.312 1111.21 176.312C1108.99 176.312 1107.09 176.719 1105.49 177.531C1103.9 178.344 1103.12 179.5 1103.15 181C1103.12 182.062 1103.57 183.047 1104.51 183.953C1105.48 184.859 1107.34 185.562 1110.09 186.062L1124.71 188.688C1132.09 190.031 1137.57 192.297 1141.16 195.484C1144.79 198.641 1146.62 202.875 1146.65 208.187C1146.62 213.312 1145.09 217.766 1142.05 221.547C1139.05 225.297 1134.95 228.203 1129.73 230.266C1124.54 232.297 1118.62 233.312 1111.96 233.312C1100.96 233.312 1092.35 231.062 1086.13 226.562C1079.95 222.062 1076.49 216.125 1075.77 208.75H1101.46C1101.8 211.031 1102.93 212.797 1104.84 214.047C1106.77 215.266 1109.21 215.875 1112.15 215.875C1114.52 215.875 1116.48 215.469 1118.01 214.656C1119.57 213.844 1120.37 212.688 1120.4 211.188C1120.37 209.813 1119.68 208.719 1118.34 207.906C1117.02 207.094 1114.96 206.437 1112.15 205.937L1099.4 203.687C1092.05 202.406 1086.55 199.969 1082.9 196.375C1079.24 192.781 1077.43 188.156 1077.46 182.5C1077.43 177.5 1078.74 173.266 1081.4 169.797C1084.09 166.297 1087.91 163.641 1092.88 161.828C1097.88 159.984 1103.8 159.063 1110.65 159.063C1121.05 159.063 1129.26 161.219 1135.26 165.531C1141.29 169.844 1144.46 175.812 1144.77 183.437Z" fill="#009400"/>
</svg>
