<svg width="574" height="258" viewBox="0 0 574 258" fill="none" xmlns="http://www.w3.org/2000/svg">
<path d="M14.6307 79L0.994318 24.4545H20.5966L26.8466 57.6932H27.2727L34.233 24.4545H53.267L60.5114 57.4091H60.9375L66.9034 24.4545H86.5057L72.8693 79H51.7045L44.0341 49.7386H43.4659L35.7955 79H14.6307ZM111.631 79.9943C105.808 79.9943 100.789 78.8816 96.5746 76.6562C92.3842 74.4072 89.1527 71.1875 86.88 66.9972C84.6309 62.7831 83.5064 57.7405 83.5064 51.8693C83.5064 46.2348 84.6428 41.3106 86.9155 37.0966C89.1882 32.8826 92.3961 29.6037 96.5391 27.2599C100.682 24.9162 105.571 23.7443 111.205 23.7443C115.325 23.7443 119.053 24.3835 122.391 25.6619C125.729 26.9403 128.582 28.7988 130.95 31.2372C133.317 33.652 135.14 36.5876 136.418 40.044C137.697 43.5005 138.336 47.3949 138.336 51.7273V56.2727H89.6143V45.4773H120.296C120.272 43.9148 119.87 42.5417 119.089 41.358C118.331 40.1506 117.301 39.2154 115.999 38.5526C114.721 37.866 113.265 37.5227 111.631 37.5227C110.045 37.5227 108.589 37.866 107.263 38.5526C105.938 39.2154 104.872 40.1387 104.067 41.3224C103.286 42.5062 102.872 43.8911 102.825 45.4773V57.125C102.825 58.8769 103.192 60.4394 103.925 61.8125C104.659 63.1856 105.713 64.2628 107.086 65.044C108.459 65.8253 110.116 66.2159 112.058 66.2159C113.407 66.2159 114.638 66.0265 115.751 65.6477C116.887 65.2689 117.858 64.7244 118.663 64.0142C119.468 63.2803 120.059 62.4044 120.438 61.3864H138.336C137.72 65.1742 136.264 68.465 133.968 71.2585C131.672 74.0284 128.629 76.1828 124.842 77.7216C121.077 79.2367 116.674 79.9943 111.631 79.9943ZM153.973 79V6.27273H173.575V33.9716H173.859C174.569 32.125 175.611 30.4323 176.984 28.8935C178.357 27.331 180.062 26.0881 182.098 25.1648C184.134 24.2178 186.501 23.7443 189.2 23.7443C192.798 23.7443 196.219 24.7031 199.463 26.6207C202.73 28.5384 205.381 31.5568 207.417 35.6761C209.477 39.7955 210.507 45.1458 210.507 51.7273C210.507 58.0246 209.524 63.2448 207.559 67.3878C205.618 71.5308 203.014 74.6203 199.747 76.6562C196.503 78.6922 192.94 79.7102 189.058 79.7102C186.501 79.7102 184.217 79.2959 182.204 78.4673C180.216 77.6151 178.511 76.4669 177.091 75.0227C175.694 73.5549 174.617 71.8977 173.859 70.0511H173.433V79H153.973ZM173.149 51.7273C173.149 54.3788 173.492 56.6752 174.179 58.6165C174.889 60.5341 175.883 62.0256 177.162 63.0909C178.464 64.1326 180.014 64.6534 181.814 64.6534C183.613 64.6534 185.14 64.1444 186.395 63.1264C187.673 62.0848 188.644 60.6051 189.306 58.6875C189.993 56.7462 190.336 54.4261 190.336 51.7273C190.336 49.0284 189.993 46.7202 189.306 44.8026C188.644 42.8613 187.673 41.3816 186.395 40.3636C185.14 39.322 183.613 38.8011 181.814 38.8011C180.014 38.8011 178.464 39.322 177.162 40.3636C175.883 41.3816 174.889 42.8613 174.179 44.8026C173.492 46.7202 173.149 49.0284 173.149 51.7273ZM248.079 55.1364V24.4545H267.681V79H249.074V68.6307H248.505C247.322 72.1108 245.25 74.8333 242.291 76.7983C239.332 78.7396 235.816 79.7102 231.744 79.7102C227.932 79.7102 224.594 78.8343 221.73 77.0824C218.889 75.3305 216.675 72.9157 215.089 69.8381C213.527 66.7604 212.734 63.233 212.71 59.2557V24.4545H232.312V55.1364C232.336 57.8352 233.022 59.9541 234.372 61.4929C235.745 63.0317 237.663 63.8011 240.125 63.8011C241.758 63.8011 243.167 63.4579 244.35 62.7713C245.558 62.0611 246.481 61.0668 247.12 59.7884C247.783 58.4863 248.103 56.9356 248.079 55.1364ZM271.651 79V24.4545H291.254V79H271.651ZM281.488 18.7727C278.813 18.7727 276.528 17.8968 274.634 16.1449C272.74 14.393 271.793 12.286 271.793 9.82386C271.793 7.36174 272.74 5.25473 274.634 3.50284C276.528 1.75095 278.801 0.875 281.452 0.875C284.128 0.875 286.4 1.75095 288.271 3.50284C290.165 5.25473 291.112 7.36174 291.112 9.82386C291.112 12.286 290.165 14.393 288.271 16.1449C286.4 17.8968 284.139 18.7727 281.488 18.7727ZM314.843 6.27273V79H295.241V6.27273H314.843ZM338.575 79.7102C334.693 79.7102 331.118 78.6922 327.851 76.6562C324.607 74.6203 322.003 71.5308 320.038 67.3878C318.097 63.2448 317.126 58.0246 317.126 51.7273C317.126 45.1458 318.144 39.7955 320.18 35.6761C322.24 31.5568 324.892 28.5384 328.135 26.6207C331.402 24.7031 334.835 23.7443 338.433 23.7443C341.132 23.7443 343.5 24.2178 345.536 25.1648C347.571 26.0881 349.276 27.331 350.649 28.8935C352.022 30.4323 353.064 32.125 353.774 33.9716H354.058V6.27273H373.661V79H354.2V70.0511H353.774C353.017 71.8977 351.928 73.5549 350.507 75.0227C349.11 76.4669 347.406 77.6151 345.393 78.4673C343.405 79.2959 341.132 79.7102 338.575 79.7102ZM345.82 64.6534C347.619 64.6534 349.158 64.1326 350.436 63.0909C351.738 62.0256 352.732 60.5341 353.419 58.6165C354.129 56.6752 354.484 54.3788 354.484 51.7273C354.484 49.0284 354.129 46.7202 353.419 44.8026C352.732 42.8613 351.738 41.3816 350.436 40.3636C349.158 39.322 347.619 38.8011 345.82 38.8011C344.02 38.8011 342.482 39.322 341.203 40.3636C339.948 41.3816 338.978 42.8613 338.291 44.8026C337.628 46.7202 337.297 49.0284 337.297 51.7273C337.297 54.4261 337.628 56.7462 338.291 58.6875C338.978 60.6051 339.948 62.0848 341.203 63.1264C342.482 64.1444 344.02 64.6534 345.82 64.6534ZM37.5 113.455V127.659H1.5625V113.455H37.5ZM8.52273 100.386H28.125V150.457C28.125 151.215 28.2552 151.854 28.5156 152.375C28.776 152.872 29.1785 153.251 29.723 153.511C30.2675 153.748 30.9659 153.866 31.8182 153.866C32.41 153.866 33.0966 153.795 33.8778 153.653C34.6828 153.511 35.2746 153.393 35.6534 153.298L38.4943 167.077C37.6184 167.337 36.3636 167.657 34.7301 168.036C33.1203 168.414 31.2027 168.663 28.9773 168.781C24.4792 169.018 20.7031 168.556 17.6491 167.396C14.5952 166.213 12.2988 164.354 10.7599 161.821C9.22112 159.288 8.47538 156.116 8.52273 152.304V100.386ZM60.2731 137.318V168H40.6708V95.2727H59.5629V123.824H60.131C61.3621 120.344 63.4099 117.633 66.2745 115.692C69.1391 113.727 72.5837 112.744 76.6083 112.744C80.4672 112.744 83.8171 113.62 86.658 115.372C89.5226 117.124 91.7362 119.539 93.2987 122.616C94.8848 125.694 95.6661 129.222 95.6424 133.199V168H76.0401V137.318C76.0638 134.619 75.3891 132.5 74.016 130.962C72.6665 129.423 70.7371 128.653 68.2276 128.653C66.6415 128.653 65.2447 129.009 64.0373 129.719C62.8536 130.405 61.9303 131.4 61.2674 132.702C60.6282 133.98 60.2968 135.519 60.2731 137.318ZM125.456 168.994C119.632 168.994 114.613 167.882 110.399 165.656C106.208 163.407 102.977 160.187 100.704 155.997C98.4551 151.783 97.3306 146.741 97.3306 140.869C97.3306 135.235 98.467 130.311 100.74 126.097C103.012 121.883 106.22 118.604 110.363 116.26C114.506 113.916 119.395 112.744 125.029 112.744C129.149 112.744 132.877 113.384 136.216 114.662C139.554 115.94 142.406 117.799 144.774 120.237C147.141 122.652 148.964 125.588 150.243 129.044C151.521 132.5 152.16 136.395 152.16 140.727V145.273H103.439V134.477H134.12C134.097 132.915 133.694 131.542 132.913 130.358C132.155 129.151 131.126 128.215 129.824 127.553C128.545 126.866 127.089 126.523 125.456 126.523C123.869 126.523 122.413 126.866 121.088 127.553C119.762 128.215 118.697 129.139 117.892 130.322C117.11 131.506 116.696 132.891 116.649 134.477V146.125C116.649 147.877 117.016 149.439 117.75 150.812C118.484 152.186 119.537 153.263 120.91 154.044C122.283 154.825 123.94 155.216 125.882 155.216C127.231 155.216 128.462 155.027 129.575 154.648C130.711 154.269 131.682 153.724 132.487 153.014C133.292 152.28 133.884 151.404 134.262 150.386H152.16C151.545 154.174 150.089 157.465 147.792 160.259C145.496 163.028 142.454 165.183 138.666 166.722C134.902 168.237 130.498 168.994 125.456 168.994ZM177.74 168L164.104 113.455H183.706L189.956 146.693H190.382L197.342 113.455H216.376L223.621 146.409H224.047L230.013 113.455H249.615L235.979 168H214.814L207.143 138.739H206.575L198.905 168H177.74ZM274.883 168.994C268.964 168.994 263.898 167.822 259.684 165.479C255.47 163.111 252.238 159.821 249.989 155.607C247.74 151.369 246.616 146.456 246.616 140.869C246.616 135.282 247.74 130.382 249.989 126.168C252.238 121.93 255.47 118.639 259.684 116.295C263.898 113.928 268.964 112.744 274.883 112.744C280.801 112.744 285.868 113.928 290.082 116.295C294.296 118.639 297.527 121.93 299.776 126.168C302.025 130.382 303.15 135.282 303.15 140.869C303.15 146.456 302.025 151.369 299.776 155.607C297.527 159.821 294.296 163.111 290.082 165.479C285.868 167.822 280.801 168.994 274.883 168.994ZM275.025 154.506C276.682 154.506 278.114 153.949 279.322 152.837C280.529 151.724 281.464 150.138 282.127 148.078C282.79 146.018 283.121 143.568 283.121 140.727C283.121 137.863 282.79 135.412 282.127 133.376C281.464 131.317 280.529 129.731 279.322 128.618C278.114 127.505 276.682 126.949 275.025 126.949C273.273 126.949 271.77 127.505 270.515 128.618C269.26 129.731 268.301 131.317 267.638 133.376C266.976 135.412 266.644 137.863 266.644 140.727C266.644 143.568 266.976 146.018 267.638 148.078C268.301 150.138 269.26 151.724 270.515 152.837C271.77 153.949 273.273 154.506 275.025 154.506ZM305.104 168V113.455H324.138V123.824H324.707C325.701 119.989 327.275 117.183 329.43 115.408C331.608 113.632 334.153 112.744 337.065 112.744C337.917 112.744 338.757 112.815 339.586 112.957C340.438 113.076 341.255 113.253 342.036 113.49V130.216C341.066 129.884 339.87 129.636 338.45 129.47C337.029 129.304 335.81 129.222 334.792 129.222C332.874 129.222 331.146 129.66 329.607 130.536C328.092 131.388 326.897 132.595 326.021 134.158C325.145 135.696 324.707 137.508 324.707 139.591V168H305.104ZM362.066 95.2727V168H342.464V95.2727H362.066ZM385.798 168.71C381.915 168.71 378.341 167.692 375.074 165.656C371.83 163.62 369.226 160.531 367.261 156.388C365.32 152.245 364.349 147.025 364.349 140.727C364.349 134.146 365.367 128.795 367.403 124.676C369.463 120.557 372.114 117.538 375.358 115.621C378.625 113.703 382.057 112.744 385.656 112.744C388.355 112.744 390.722 113.218 392.758 114.165C394.794 115.088 396.499 116.331 397.872 117.893C399.245 119.432 400.287 121.125 400.997 122.972H401.281V95.2727H420.883V168H401.423V159.051H400.997C400.239 160.898 399.15 162.555 397.73 164.023C396.333 165.467 394.628 166.615 392.616 167.467C390.627 168.296 388.355 168.71 385.798 168.71ZM393.042 153.653C394.842 153.653 396.38 153.133 397.659 152.091C398.961 151.026 399.955 149.534 400.642 147.616C401.352 145.675 401.707 143.379 401.707 140.727C401.707 138.028 401.352 135.72 400.642 133.803C399.955 131.861 398.961 130.382 397.659 129.364C396.38 128.322 394.842 127.801 393.042 127.801C391.243 127.801 389.704 128.322 388.426 129.364C387.171 130.382 386.2 131.861 385.514 133.803C384.851 135.72 384.52 138.028 384.52 140.727C384.52 143.426 384.851 145.746 385.514 147.688C386.2 149.605 387.171 151.085 388.426 152.126C389.704 153.144 391.243 153.653 393.042 153.653ZM440.7 95.2727V103.795C440.7 106.116 440.226 108.436 439.279 110.756C438.356 113.052 437.172 115.195 435.728 117.183C434.308 119.148 432.84 120.794 431.325 122.119L423.228 118C424.223 116.295 425.11 114.319 425.892 112.07C426.673 109.821 427.064 107.062 427.064 103.795V95.2727H440.7ZM487.798 131.21H469.759C469.664 130.098 469.273 129.139 468.587 128.334C467.9 127.529 467.012 126.913 465.923 126.487C464.858 126.037 463.674 125.812 462.372 125.812C460.691 125.812 459.247 126.12 458.04 126.736C456.832 127.351 456.241 128.227 456.264 129.364C456.241 130.169 456.584 130.914 457.294 131.601C458.028 132.287 459.437 132.82 461.52 133.199L472.599 135.188C478.187 136.205 482.341 137.922 485.064 140.337C487.81 142.728 489.195 145.936 489.219 149.96C489.195 153.843 488.035 157.216 485.739 160.081C483.466 162.922 480.353 165.124 476.399 166.686C472.469 168.225 467.983 168.994 462.94 168.994C454.607 168.994 448.085 167.29 443.374 163.881C438.686 160.472 436.07 155.973 435.526 150.386H454.986C455.246 152.115 456.098 153.452 457.543 154.399C459.01 155.322 460.857 155.784 463.082 155.784C464.882 155.784 466.361 155.476 467.521 154.861C468.705 154.245 469.309 153.369 469.332 152.233C469.309 151.191 468.788 150.363 467.77 149.747C466.776 149.132 465.213 148.634 463.082 148.256L453.423 146.551C447.86 145.58 443.693 143.734 440.923 141.011C438.153 138.289 436.78 134.785 436.804 130.5C436.78 126.712 437.775 123.504 439.787 120.876C441.823 118.225 444.723 116.213 448.487 114.839C452.275 113.443 456.761 112.744 461.946 112.744C469.83 112.744 476.044 114.378 480.589 117.645C485.159 120.912 487.562 125.434 487.798 131.21ZM37.642 202.455V216.659H1.13636V202.455H37.642ZM8.09659 257V200.892C8.09659 196.394 8.90152 192.665 10.5114 189.706C12.1212 186.747 14.3939 184.533 17.3295 183.065C20.2652 181.598 23.7216 180.864 27.6989 180.864C30.1847 180.864 32.5994 181.053 34.9432 181.432C37.3106 181.811 39.0625 182.142 40.1989 182.426L37.358 196.489C36.6477 196.276 35.8191 196.11 34.8722 195.991C33.9252 195.849 33.0966 195.778 32.3864 195.778C30.5398 195.778 29.2969 196.169 28.6577 196.95C28.0185 197.732 27.6989 198.761 27.6989 200.04V257H8.09659ZM52.1587 257.852C48.6786 257.852 45.601 257.284 42.9258 256.148C40.2743 254.988 38.1909 253.236 36.6758 250.892C35.1606 248.548 34.4031 245.565 34.4031 241.943C34.4031 238.96 34.9121 236.415 35.93 234.308C36.948 232.178 38.3685 230.438 40.1914 229.088C42.0143 227.739 44.1332 226.709 46.5479 225.999C48.9864 225.288 51.6142 224.827 54.4315 224.614C57.4854 224.377 59.9357 224.093 61.7823 223.761C63.6526 223.406 65.002 222.921 65.8306 222.305C66.6592 221.666 67.0735 220.826 67.0735 219.784V219.642C67.0735 218.222 66.529 217.133 65.44 216.375C64.351 215.617 62.9542 215.239 61.2496 215.239C59.3794 215.239 57.8524 215.653 56.6687 216.482C55.5086 217.286 54.8103 218.529 54.5735 220.21H36.5337C36.7705 216.896 37.824 213.842 39.6942 211.048C41.5882 208.231 44.3462 205.982 47.9684 204.301C51.5906 202.597 56.1123 201.744 61.5337 201.744C65.44 201.744 68.9438 202.206 72.0451 203.129C75.1464 204.029 77.7861 205.295 79.9641 206.929C82.1422 208.539 83.7994 210.433 84.9357 212.611C86.0958 214.765 86.6758 217.109 86.6758 219.642V257H68.3519V249.33H67.9258C66.8368 251.366 65.511 253.011 63.9485 254.266C62.4097 255.52 60.646 256.432 58.6573 257C56.6924 257.568 54.5262 257.852 52.1587 257.852ZM58.5508 245.494C60.0423 245.494 61.439 245.187 62.7411 244.571C64.0669 243.955 65.1441 243.068 65.9727 241.908C66.8013 240.748 67.2156 239.339 67.2156 237.682V233.136C66.6947 233.349 66.1384 233.551 65.5465 233.74C64.9783 233.929 64.3628 234.107 63.6999 234.273C63.0607 234.438 62.3742 234.592 61.6403 234.734C60.93 234.876 60.1843 235.007 59.4031 235.125C57.8879 235.362 56.645 235.752 55.6744 236.297C54.7274 236.818 54.0172 237.469 53.5437 238.25C53.0939 239.008 52.869 239.86 52.869 240.807C52.869 242.322 53.4016 243.482 54.467 244.287C55.5323 245.092 56.8936 245.494 58.5508 245.494ZM139.9 220.21H121.86C121.765 219.098 121.375 218.139 120.688 217.334C120.002 216.529 119.114 215.913 118.025 215.487C116.96 215.037 115.776 214.812 114.474 214.812C112.793 214.812 111.349 215.12 110.141 215.736C108.934 216.351 108.342 217.227 108.366 218.364C108.342 219.169 108.685 219.914 109.396 220.601C110.129 221.287 111.538 221.82 113.621 222.199L124.701 224.188C130.288 225.205 134.443 226.922 137.165 229.337C139.912 231.728 141.297 234.936 141.32 238.96C141.297 242.843 140.137 246.216 137.84 249.081C135.567 251.922 132.454 254.124 128.501 255.686C124.571 257.225 120.085 257.994 115.042 257.994C106.709 257.994 100.186 256.29 95.4751 252.881C90.7876 249.472 88.1716 244.973 87.6271 239.386H107.087C107.348 241.115 108.2 242.452 109.644 243.399C111.112 244.322 112.959 244.784 115.184 244.784C116.983 244.784 118.463 244.476 119.623 243.861C120.807 243.245 121.41 242.369 121.434 241.233C121.41 240.191 120.889 239.363 119.871 238.747C118.877 238.132 117.315 237.634 115.184 237.256L105.525 235.551C99.9614 234.58 95.7947 232.734 93.0249 230.011C90.255 227.289 88.8819 223.785 88.9055 219.5C88.8819 215.712 89.8762 212.504 91.8885 209.876C93.9245 207.225 96.8246 205.213 100.589 203.839C104.377 202.443 108.863 201.744 114.048 201.744C121.931 201.744 128.146 203.378 132.691 206.645C137.26 209.912 139.663 214.434 139.9 220.21ZM175.359 202.455V216.659H139.422V202.455H175.359ZM146.382 189.386H165.984V239.457C165.984 240.215 166.115 240.854 166.375 241.375C166.635 241.872 167.038 242.251 167.582 242.511C168.127 242.748 168.825 242.866 169.678 242.866C170.269 242.866 170.956 242.795 171.737 242.653C172.542 242.511 173.134 242.393 173.513 242.298L176.354 256.077C175.478 256.337 174.223 256.657 172.589 257.036C170.98 257.414 169.062 257.663 166.837 257.781C162.339 258.018 158.563 257.556 155.509 256.396C152.455 255.213 150.158 253.354 148.619 250.821C147.08 248.288 146.335 245.116 146.382 241.304V189.386ZM202.909 257.994C197.085 257.994 192.066 256.882 187.852 254.656C183.662 252.407 180.43 249.187 178.157 244.997C175.908 240.783 174.784 235.741 174.784 229.869C174.784 224.235 175.92 219.311 178.193 215.097C180.466 210.883 183.673 207.604 187.816 205.26C191.959 202.916 196.848 201.744 202.483 201.744C206.602 201.744 210.331 202.384 213.669 203.662C217.007 204.94 219.859 206.799 222.227 209.237C224.594 211.652 226.417 214.588 227.696 218.044C228.974 221.5 229.613 225.395 229.613 229.727V234.273H180.892V223.477H211.574C211.55 221.915 211.147 220.542 210.366 219.358C209.609 218.151 208.579 217.215 207.277 216.553C205.998 215.866 204.542 215.523 202.909 215.523C201.323 215.523 199.867 215.866 198.541 216.553C197.215 217.215 196.15 218.139 195.345 219.322C194.564 220.506 194.149 221.891 194.102 223.477V235.125C194.102 236.877 194.469 238.439 195.203 239.812C195.937 241.186 196.99 242.263 198.363 243.044C199.736 243.825 201.394 244.216 203.335 244.216C204.684 244.216 205.915 244.027 207.028 243.648C208.164 243.269 209.135 242.724 209.94 242.014C210.745 241.28 211.337 240.404 211.716 239.386H229.613C228.998 243.174 227.542 246.465 225.245 249.259C222.949 252.028 219.907 254.183 216.119 255.722C212.355 257.237 207.951 257.994 202.909 257.994ZM281.47 220.21H263.43C263.336 219.098 262.945 218.139 262.259 217.334C261.572 216.529 260.684 215.913 259.595 215.487C258.53 215.037 257.346 214.812 256.044 214.812C254.363 214.812 252.919 215.12 251.712 215.736C250.504 216.351 249.912 217.227 249.936 218.364C249.912 219.169 250.256 219.914 250.966 220.601C251.7 221.287 253.108 221.82 255.192 222.199L266.271 224.188C271.858 225.205 276.013 226.922 278.736 229.337C281.482 231.728 282.867 234.936 282.891 238.96C282.867 242.843 281.707 246.216 279.411 249.081C277.138 251.922 274.025 254.124 270.071 255.686C266.141 257.225 261.655 257.994 256.612 257.994C248.279 257.994 241.757 256.29 237.045 252.881C232.358 249.472 229.742 244.973 229.197 239.386H248.658C248.918 241.115 249.77 242.452 251.214 243.399C252.682 244.322 254.529 244.784 256.754 244.784C258.554 244.784 260.033 244.476 261.193 243.861C262.377 243.245 262.981 242.369 263.004 241.233C262.981 240.191 262.46 239.363 261.442 238.747C260.447 238.132 258.885 237.634 256.754 237.256L247.095 235.551C241.532 234.58 237.365 232.734 234.595 230.011C231.825 227.289 230.452 223.785 230.476 219.5C230.452 215.712 231.446 212.504 233.459 209.876C235.495 207.225 238.395 205.213 242.159 203.839C245.947 202.443 250.433 201.744 255.618 201.744C263.501 201.744 269.716 203.378 274.261 206.645C278.83 209.912 281.233 214.434 281.47 220.21ZM316.93 202.455V216.659H280.992V202.455H316.93ZM287.952 189.386H307.555V239.457C307.555 240.215 307.685 240.854 307.945 241.375C308.206 241.872 308.608 242.251 309.153 242.511C309.697 242.748 310.396 242.866 311.248 242.866C311.84 242.866 312.526 242.795 313.308 242.653C314.112 242.511 314.704 242.393 315.083 242.298L317.924 256.077C317.048 256.337 315.793 256.657 314.16 257.036C312.55 257.414 310.632 257.663 308.407 257.781C303.909 258.018 300.133 257.556 297.079 256.396C294.025 255.213 291.728 253.354 290.19 250.821C288.651 248.288 287.905 245.116 287.952 241.304V189.386ZM332.566 257V184.273H352.169V211.972H352.453C353.163 210.125 354.205 208.432 355.578 206.893C356.951 205.331 358.655 204.088 360.691 203.165C362.727 202.218 365.095 201.744 367.794 201.744C371.392 201.744 374.813 202.703 378.056 204.621C381.324 206.538 383.975 209.557 386.011 213.676C388.071 217.795 389.1 223.146 389.1 229.727C389.1 236.025 388.118 241.245 386.153 245.388C384.212 249.531 381.608 252.62 378.341 254.656C375.097 256.692 371.534 257.71 367.652 257.71C365.095 257.71 362.81 257.296 360.798 256.467C358.809 255.615 357.105 254.467 355.684 253.023C354.288 251.555 353.21 249.898 352.453 248.051H352.027V257H332.566ZM351.743 229.727C351.743 232.379 352.086 234.675 352.772 236.616C353.483 238.534 354.477 240.026 355.755 241.091C357.057 242.133 358.608 242.653 360.407 242.653C362.207 242.653 363.734 242.144 364.988 241.126C366.267 240.085 367.237 238.605 367.9 236.688C368.587 234.746 368.93 232.426 368.93 229.727C368.93 227.028 368.587 224.72 367.9 222.803C367.237 220.861 366.267 219.382 364.988 218.364C363.734 217.322 362.207 216.801 360.407 216.801C358.608 216.801 357.057 217.322 355.755 218.364C354.477 219.382 353.483 220.861 352.772 222.803C352.086 224.72 351.743 227.028 351.743 229.727ZM391.304 257V202.455H410.906V257H391.304ZM401.14 196.773C398.465 196.773 396.181 195.897 394.287 194.145C392.393 192.393 391.446 190.286 391.446 187.824C391.446 185.362 392.393 183.255 394.287 181.503C396.181 179.751 398.453 178.875 401.105 178.875C403.78 178.875 406.053 179.751 407.923 181.503C409.817 183.255 410.764 185.362 410.764 187.824C410.764 190.286 409.817 192.393 407.923 194.145C406.053 195.897 403.792 196.773 401.14 196.773ZM432.507 244.074L432.649 220.778H435.206L448.416 202.455H470.433L448.274 231.006H442.734L432.507 244.074ZM414.893 257V184.273H434.496V257H414.893ZM448.558 257L436.058 235.409L448.842 221.489L471.001 257H448.558ZM493.428 257.994C487.604 257.994 482.585 256.882 478.371 254.656C474.181 252.407 470.95 249.187 468.677 244.997C466.428 240.783 465.303 235.741 465.303 229.869C465.303 224.235 466.44 219.311 468.712 215.097C470.985 210.883 474.193 207.604 478.336 205.26C482.479 202.916 487.368 201.744 493.002 201.744C497.121 201.744 500.85 202.384 504.188 203.662C507.526 204.94 510.379 206.799 512.746 209.237C515.114 211.652 516.937 214.588 518.215 218.044C519.494 221.5 520.133 225.395 520.133 229.727V234.273H471.411V223.477H502.093C502.069 221.915 501.667 220.542 500.886 219.358C500.128 218.151 499.098 217.215 497.796 216.553C496.518 215.866 495.062 215.523 493.428 215.523C491.842 215.523 490.386 215.866 489.06 216.553C487.735 217.215 486.669 218.139 485.864 219.322C485.083 220.506 484.669 221.891 484.621 223.477V235.125C484.621 236.877 484.988 238.439 485.722 239.812C486.456 241.186 487.51 242.263 488.883 243.044C490.256 243.825 491.913 244.216 493.854 244.216C495.204 244.216 496.435 244.027 497.548 243.648C498.684 243.269 499.655 242.724 500.46 242.014C501.264 241.28 501.856 240.404 502.235 239.386H520.133C519.517 243.174 518.061 246.465 515.765 249.259C513.469 252.028 510.426 254.183 506.638 255.722C502.874 257.237 498.471 257.994 493.428 257.994ZM571.99 220.21H553.95C553.855 219.098 553.465 218.139 552.778 217.334C552.092 216.529 551.204 215.913 550.115 215.487C549.049 215.037 547.866 214.812 546.564 214.812C544.883 214.812 543.439 215.12 542.231 215.736C541.024 216.351 540.432 217.227 540.456 218.364C540.432 219.169 540.775 219.914 541.485 220.601C542.219 221.287 543.628 221.82 545.711 222.199L556.791 224.188C562.378 225.205 566.533 226.922 569.255 229.337C572.002 231.728 573.386 234.936 573.41 238.96C573.386 242.843 572.226 246.216 569.93 249.081C567.657 251.922 564.544 254.124 560.591 255.686C556.661 257.225 552.174 257.994 547.132 257.994C538.798 257.994 532.276 256.29 527.565 252.881C522.877 249.472 520.261 244.973 519.717 239.386H539.177C539.438 241.115 540.29 242.452 541.734 243.399C543.202 244.322 545.048 244.784 547.274 244.784C549.073 244.784 550.553 244.476 551.713 243.861C552.896 243.245 553.5 242.369 553.524 241.233C553.5 240.191 552.979 239.363 551.961 238.747C550.967 238.132 549.404 237.634 547.274 237.256L537.615 235.551C532.051 234.58 527.885 232.734 525.115 230.011C522.345 227.289 520.972 223.785 520.995 219.5C520.972 215.712 521.966 212.504 523.978 209.876C526.014 207.225 528.914 205.213 532.679 203.839C536.467 202.443 540.953 201.744 546.137 201.744C554.021 201.744 560.235 203.378 564.781 206.645C569.35 209.912 571.753 214.434 571.99 220.21Z" fill="#009400"/>
</svg>
