<svg width="1379" height="84" viewBox="0 0 1379 84" fill="none" xmlns="http://www.w3.org/2000/svg">
<path d="M24.25 66.8352C19.2784 66.8352 15.0227 65.8509 11.483 63.8821C7.94318 61.8935 5.22869 59.1293 3.33949 55.5895C1.45028 52.0298 0.505682 47.9034 0.505682 43.2102C0.505682 38.517 1.45028 34.4006 3.33949 30.8608C5.22869 27.3011 7.94318 24.5369 11.483 22.5682C15.0227 20.5795 19.2784 19.5852 24.25 19.5852C28.7443 19.5852 32.6321 20.4006 35.9134 22.0312C39.2145 23.642 41.7699 25.929 43.5795 28.892C45.3892 31.8352 46.304 35.2955 46.3239 39.2727H31.0511C30.8324 36.8665 30.1364 35.0369 28.9631 33.7841C27.8097 32.5114 26.3182 31.875 24.4886 31.875C23.0568 31.875 21.804 32.2926 20.7301 33.1278C19.6563 33.9432 18.821 35.1861 18.2244 36.8565C17.6278 38.5071 17.3295 40.5852 17.3295 43.0909C17.3295 45.5966 17.6278 47.6847 18.2244 49.3551C18.821 51.0057 19.6563 52.2486 20.7301 53.0838C21.804 53.8991 23.0568 54.3068 24.4886 54.3068C25.7017 54.3068 26.7756 54.0284 27.7102 53.4716C28.6449 52.8949 29.4006 52.0597 29.9773 50.9659C30.5739 49.8523 30.9318 48.5 31.0511 46.9091H46.3239C46.2642 50.946 45.3395 54.4659 43.5497 57.4688C41.7599 60.4517 39.2244 62.7585 35.9432 64.3892C32.6818 66.0199 28.7841 66.8352 24.25 66.8352ZM70.1514 66.8352C65.1798 66.8352 60.9241 65.8509 57.3844 63.8821C53.8446 61.8935 51.1301 59.1293 49.2409 55.5895C47.3517 52.0298 46.4071 47.9034 46.4071 43.2102C46.4071 38.517 47.3517 34.4006 49.2409 30.8608C51.1301 27.3011 53.8446 24.5369 57.3844 22.5682C60.9241 20.5795 65.1798 19.5852 70.1514 19.5852C75.123 19.5852 79.3787 20.5795 82.9185 22.5682C86.4582 24.5369 89.1727 27.3011 91.0619 30.8608C92.9511 34.4006 93.8957 38.517 93.8957 43.2102C93.8957 47.9034 92.9511 52.0298 91.0619 55.5895C89.1727 59.1293 86.4582 61.8935 82.9185 63.8821C79.3787 65.8509 75.123 66.8352 70.1514 66.8352ZM70.2707 54.6648C71.6628 54.6648 72.8659 54.1974 73.8801 53.2628C74.8943 52.3281 75.6798 50.9957 76.2366 49.2656C76.7935 47.5355 77.0719 45.4773 77.0719 43.0909C77.0719 40.6847 76.7935 38.6264 76.2366 36.9162C75.6798 35.1861 74.8943 33.8537 73.8801 32.919C72.8659 31.9844 71.6628 31.517 70.2707 31.517C68.7991 31.517 67.5363 31.9844 66.4824 32.919C65.4284 33.8537 64.623 35.1861 64.0662 36.9162C63.5094 38.6264 63.231 40.6847 63.231 43.0909C63.231 45.4773 63.5094 47.5355 64.0662 49.2656C64.623 50.9957 65.4284 52.3281 66.4824 53.2628C67.5363 54.1974 68.7991 54.6648 70.2707 54.6648ZM137.418 35.0966H122.265C122.185 34.1619 121.857 33.3565 121.28 32.6804C120.704 32.0043 119.958 31.4872 119.043 31.1293C118.148 30.7514 117.154 30.5625 116.06 30.5625C114.648 30.5625 113.435 30.821 112.421 31.3381C111.407 31.8551 110.91 32.5909 110.93 33.5455C110.91 34.2216 111.198 34.848 111.795 35.4247C112.411 36.0014 113.594 36.4489 115.344 36.767L124.651 38.4375C129.344 39.2926 132.834 40.7344 135.121 42.7628C137.428 44.7713 138.592 47.4659 138.611 50.8466C138.592 54.108 137.617 56.9418 135.688 59.348C133.779 61.7344 131.164 63.5838 127.843 64.8963C124.542 66.1889 120.773 66.8352 116.538 66.8352C109.538 66.8352 104.059 65.4034 100.101 62.5398C96.164 59.6761 93.9665 55.8977 93.5091 51.2045H109.856C110.074 52.6562 110.79 53.7798 112.003 54.5753C113.236 55.3509 114.788 55.7386 116.657 55.7386C118.168 55.7386 119.411 55.4801 120.386 54.9631C121.38 54.446 121.887 53.7102 121.907 52.7557C121.887 51.8807 121.449 51.1847 120.594 50.6676C119.759 50.1506 118.447 49.733 116.657 49.4148L108.543 47.983C103.87 47.1676 100.37 45.6165 98.0432 43.3295C95.7165 41.0426 94.5631 38.0994 94.583 34.5C94.5631 31.3182 95.3983 28.6236 97.0887 26.4162C98.7989 24.1889 101.235 22.4986 104.397 21.3452C107.579 20.1719 111.347 19.5852 115.702 19.5852C122.324 19.5852 127.545 20.9574 131.363 23.7017C135.201 26.446 137.219 30.2443 137.418 35.0966ZM167.204 20.1818V32.1136H137.017V20.1818H167.204ZM142.863 9.20454H159.329V51.2642C159.329 51.9006 159.439 52.4375 159.657 52.875C159.876 53.2926 160.214 53.6108 160.672 53.8295C161.129 54.0284 161.716 54.1278 162.431 54.1278C162.929 54.1278 163.505 54.0682 164.162 53.9489C164.838 53.8295 165.335 53.7301 165.653 53.6506L168.039 65.2244C167.304 65.4432 166.25 65.7116 164.878 66.0298C163.525 66.348 161.914 66.5568 160.045 66.6562C156.267 66.8551 153.095 66.4673 150.53 65.4929C147.964 64.4986 146.035 62.9375 144.743 60.8097C143.45 58.6818 142.824 56.017 142.863 52.8153V9.20454ZM168.883 66V20.1818H184.872V28.892H185.349C186.184 25.6705 187.507 23.3139 189.317 21.8224C191.146 20.331 193.284 19.5852 195.73 19.5852C196.446 19.5852 197.152 19.6449 197.848 19.7642C198.564 19.8636 199.25 20.0128 199.906 20.2116V34.2614C199.091 33.983 198.086 33.7741 196.893 33.6349C195.7 33.4957 194.676 33.4261 193.821 33.4261C192.21 33.4261 190.758 33.794 189.466 34.5298C188.193 35.2457 187.189 36.2599 186.453 37.5724C185.717 38.8651 185.349 40.3864 185.349 42.1364V66H168.883ZM229.975 45.9545V20.1818H246.441V66H230.811V57.2898H230.333C229.339 60.2131 227.599 62.5 225.113 64.1506C222.627 65.7812 219.674 66.5966 216.254 66.5966C213.052 66.5966 210.248 65.8608 207.842 64.3892C205.456 62.9176 203.596 60.8892 202.264 58.304C200.951 55.7187 200.285 52.7557 200.265 49.4148V20.1818H216.731V45.9545C216.751 48.2216 217.328 50.0014 218.461 51.294C219.615 52.5866 221.225 53.233 223.294 53.233C224.666 53.233 225.849 52.9446 226.843 52.3679C227.858 51.7713 228.633 50.9361 229.17 49.8622C229.727 48.7685 229.995 47.4659 229.975 45.9545ZM249.776 66V20.1818H266.242V66H249.776ZM258.039 15.4091C255.792 15.4091 253.873 14.6733 252.282 13.2017C250.691 11.7301 249.895 9.96023 249.895 7.89204C249.895 5.82386 250.691 4.05398 252.282 2.58238C253.873 1.11079 255.782 0.375 258.009 0.375C260.256 0.375 262.165 1.11079 263.736 2.58238C265.327 4.05398 266.123 5.82386 266.123 7.89204C266.123 9.96023 265.327 11.7301 263.736 13.2017C262.165 14.6733 260.266 15.4091 258.039 15.4091ZM282.358 66.7159C279.435 66.7159 276.85 66.2386 274.603 65.2841C272.376 64.3097 270.626 62.8381 269.353 60.8693C268.08 58.9006 267.444 56.3949 267.444 53.3523C267.444 50.8466 267.871 48.7088 268.726 46.9389C269.582 45.1491 270.775 43.6875 272.306 42.554C273.837 41.4205 275.617 40.5554 277.645 39.9588C279.694 39.3622 281.901 38.9744 284.268 38.7955C286.833 38.5966 288.891 38.358 290.442 38.0795C292.013 37.7812 293.147 37.3736 293.843 36.8565C294.539 36.3196 294.887 35.6136 294.887 34.7386V34.6193C294.887 33.4261 294.43 32.5114 293.515 31.875C292.6 31.2386 291.427 30.9205 289.995 30.9205C288.424 30.9205 287.141 31.2685 286.147 31.9645C285.172 32.6406 284.586 33.6847 284.387 35.0966H269.233C269.432 32.3125 270.317 29.7472 271.888 27.4006C273.479 25.0341 275.796 23.1449 278.839 21.733C281.881 20.3011 285.68 19.5852 290.233 19.5852C293.515 19.5852 296.458 19.973 299.063 20.7486C301.668 21.5043 303.885 22.5682 305.715 23.9403C307.545 25.2926 308.937 26.8835 309.891 28.7131C310.866 30.5227 311.353 32.4915 311.353 34.6193V66H295.961V59.5568H295.603C294.688 61.267 293.574 62.6491 292.262 63.7031C290.969 64.7571 289.488 65.5227 287.817 66C286.167 66.4773 284.347 66.7159 282.358 66.7159ZM287.728 56.3352C288.981 56.3352 290.154 56.0767 291.248 55.5597C292.361 55.0426 293.266 54.2969 293.962 53.3224C294.658 52.348 295.006 51.1648 295.006 49.7727V45.9545C294.569 46.1335 294.101 46.3026 293.604 46.4616C293.127 46.6207 292.61 46.7699 292.053 46.9091C291.516 47.0483 290.939 47.1776 290.323 47.2969C289.726 47.4162 289.1 47.5256 288.444 47.625C287.171 47.8239 286.127 48.152 285.312 48.6094C284.516 49.0469 283.92 49.5938 283.522 50.25C283.144 50.8864 282.955 51.6023 282.955 52.3977C282.955 53.6705 283.403 54.6449 284.297 55.321C285.192 55.9972 286.336 56.3352 287.728 56.3352ZM314.18 66V20.1818H329.811V28.892H330.288C331.243 26.0284 332.874 23.7614 335.18 22.0909C337.487 20.4205 340.231 19.5852 343.413 19.5852C346.635 19.5852 349.409 20.4403 351.736 22.1506C354.062 23.8409 355.464 26.0881 355.942 28.892H356.419C357.195 26.0881 358.845 23.8409 361.371 22.1506C363.896 20.4403 366.859 19.5852 370.26 19.5852C374.655 19.5852 378.214 20.9972 380.939 23.821C383.683 26.6449 385.055 30.4034 385.055 35.0966V66H368.589V39.2727C368.589 37.2642 368.082 35.6932 367.068 34.5597C366.054 33.4062 364.692 32.8295 362.981 32.8295C361.291 32.8295 359.949 33.4062 358.954 34.5597C357.98 35.6932 357.493 37.2642 357.493 39.2727V66H341.743V39.2727C341.743 37.2642 341.236 35.6932 340.222 34.5597C339.207 33.4062 337.845 32.8295 336.135 32.8295C335.001 32.8295 334.027 33.0881 333.212 33.6051C332.396 34.1222 331.76 34.8679 331.303 35.8423C330.865 36.7969 330.646 37.9403 330.646 39.2727V66H314.18ZM410.21 66.8352C405.239 66.8352 400.983 65.8509 397.443 63.8821C393.904 61.8935 391.189 59.1293 389.3 55.5895C387.411 52.0298 386.466 47.9034 386.466 43.2102C386.466 38.517 387.411 34.4006 389.3 30.8608C391.189 27.3011 393.904 24.5369 397.443 22.5682C400.983 20.5795 405.239 19.5852 410.21 19.5852C415.182 19.5852 419.438 20.5795 422.977 22.5682C426.517 24.5369 429.232 27.3011 431.121 30.8608C433.01 34.4006 433.955 38.517 433.955 43.2102C433.955 47.9034 433.01 52.0298 431.121 55.5895C429.232 59.1293 426.517 61.8935 422.977 63.8821C419.438 65.8509 415.182 66.8352 410.21 66.8352ZM410.33 54.6648C411.722 54.6648 412.925 54.1974 413.939 53.2628C414.953 52.3281 415.739 50.9957 416.296 49.2656C416.852 47.5355 417.131 45.4773 417.131 43.0909C417.131 40.6847 416.852 38.6264 416.296 36.9162C415.739 35.1861 414.953 33.8537 413.939 32.919C412.925 31.9844 411.722 31.517 410.33 31.517C408.858 31.517 407.595 31.9844 406.541 32.919C405.487 33.8537 404.682 35.1861 404.125 36.9162C403.568 38.6264 403.29 40.6847 403.29 43.0909C403.29 45.4773 403.568 47.5355 404.125 49.2656C404.682 50.9957 405.487 52.3281 406.541 53.2628C407.595 54.1974 408.858 54.6648 410.33 54.6648ZM463.757 4.90909V66H447.291V4.90909H463.757ZM489.061 66.8352C484.169 66.8352 479.953 65.9006 476.413 64.0312C472.893 62.142 470.179 59.4375 468.27 55.9176C466.38 52.3778 465.436 48.142 465.436 43.2102C465.436 38.4773 466.39 34.3409 468.299 30.8011C470.209 27.2614 472.903 24.5071 476.383 22.5384C479.863 20.5696 483.97 19.5852 488.703 19.5852C492.163 19.5852 495.295 20.1222 498.099 21.196C500.903 22.2699 503.299 23.831 505.288 25.8793C507.277 27.9077 508.808 30.3736 509.882 33.277C510.956 36.1804 511.493 39.4517 511.493 43.0909V46.9091H470.567V37.8409H496.339C496.319 36.5284 495.981 35.375 495.325 34.3807C494.689 33.3665 493.824 32.581 492.73 32.0241C491.656 31.4474 490.433 31.1591 489.061 31.1591C487.728 31.1591 486.505 31.4474 485.392 32.0241C484.278 32.581 483.383 33.3565 482.707 34.3509C482.051 35.3452 481.703 36.5085 481.663 37.8409V47.625C481.663 49.0966 481.971 50.4091 482.588 51.5625C483.204 52.7159 484.089 53.6207 485.243 54.277C486.396 54.9332 487.788 55.2614 489.419 55.2614C490.552 55.2614 491.586 55.1023 492.521 54.7841C493.476 54.4659 494.291 54.0085 494.967 53.4119C495.643 52.7955 496.14 52.0597 496.459 51.2045H511.493C510.976 54.3864 509.753 57.1506 507.824 59.4972C505.895 61.8239 503.339 63.6335 500.157 64.9261C496.995 66.1989 493.297 66.8352 489.061 66.8352ZM524.628 66V4.90909H541.093V28.1761H541.332C541.929 26.625 542.804 25.2031 543.957 23.9105C545.11 22.598 546.542 21.554 548.253 20.7784C549.963 19.983 551.951 19.5852 554.218 19.5852C557.241 19.5852 560.115 20.3906 562.839 22.0014C565.583 23.6122 567.811 26.1477 569.521 29.608C571.251 33.0682 572.116 37.5625 572.116 43.0909C572.116 48.3807 571.291 52.7656 569.64 56.2457C568.01 59.7259 565.822 62.321 563.078 64.0312C560.353 65.7415 557.36 66.5966 554.099 66.5966C551.951 66.5966 550.032 66.2486 548.342 65.5526C546.672 64.8366 545.24 63.8722 544.047 62.6591C542.873 61.4261 541.968 60.0341 541.332 58.483H540.974V66H524.628ZM540.735 43.0909C540.735 45.3182 541.024 47.2472 541.601 48.8778C542.197 50.4886 543.032 51.7415 544.106 52.6364C545.2 53.5114 546.503 53.9489 548.014 53.9489C549.525 53.9489 550.808 53.5213 551.862 52.6662C552.936 51.7912 553.751 50.5483 554.308 48.9375C554.885 47.3068 555.173 45.358 555.173 43.0909C555.173 40.8239 554.885 38.8849 554.308 37.2741C553.751 35.6435 552.936 34.4006 551.862 33.5455C550.808 32.6705 549.525 32.233 548.014 32.233C546.503 32.233 545.2 32.6705 544.106 33.5455C543.032 34.4006 542.197 35.6435 541.601 37.2741C541.024 38.8849 540.735 40.8239 540.735 43.0909ZM573.967 66V20.1818H590.433V66H573.967ZM582.23 15.4091C579.982 15.4091 578.063 14.6733 576.472 13.2017C574.882 11.7301 574.086 9.96023 574.086 7.89204C574.086 5.82386 574.882 4.05398 576.472 2.58238C578.063 1.11079 579.972 0.375 582.2 0.375C584.447 0.375 586.356 1.11079 587.927 2.58238C589.518 4.05398 590.313 5.82386 590.313 7.89204C590.313 9.96023 589.518 11.7301 587.927 13.2017C586.356 14.6733 584.457 15.4091 582.23 15.4091ZM615.856 66.8352C610.884 66.8352 606.629 65.8509 603.089 63.8821C599.549 61.8935 596.835 59.1293 594.946 55.5895C593.056 52.0298 592.112 47.9034 592.112 43.2102C592.112 38.517 593.056 34.4006 594.946 30.8608C596.835 27.3011 599.549 24.5369 603.089 22.5682C606.629 20.5795 610.884 19.5852 615.856 19.5852C620.35 19.5852 624.238 20.4006 627.519 22.0312C630.821 23.642 633.376 25.929 635.186 28.892C636.995 31.8352 637.91 35.2955 637.93 39.2727H622.657C622.438 36.8665 621.742 35.0369 620.569 33.7841C619.416 32.5114 617.924 31.875 616.095 31.875C614.663 31.875 613.41 32.2926 612.336 33.1278C611.262 33.9432 610.427 35.1861 609.831 36.8565C609.234 38.5071 608.936 40.5852 608.936 43.0909C608.936 45.5966 609.234 47.6847 609.831 49.3551C610.427 51.0057 611.262 52.2486 612.336 53.0838C613.41 53.8991 614.663 54.3068 616.095 54.3068C617.308 54.3068 618.382 54.0284 619.316 53.4716C620.251 52.8949 621.007 52.0597 621.583 50.9659C622.18 49.8523 622.538 48.5 622.657 46.9091H637.93C637.87 50.946 636.946 54.4659 635.156 57.4688C633.366 60.4517 630.831 62.7585 627.549 64.3892C624.288 66.0199 620.39 66.8352 615.856 66.8352ZM639.684 66V20.1818H656.15V66H639.684ZM647.946 15.4091C645.699 15.4091 643.78 14.6733 642.189 13.2017C640.598 11.7301 639.803 9.96023 639.803 7.89204C639.803 5.82386 640.598 4.05398 642.189 2.58238C643.78 1.11079 645.689 0.375 647.917 0.375C650.164 0.375 652.073 1.11079 653.644 2.58238C655.235 4.05398 656.03 5.82386 656.03 7.89204C656.03 9.96023 655.235 11.7301 653.644 13.2017C652.073 14.6733 650.174 15.4091 647.946 15.4091ZM671.193 83.1818V20.1818H687.54V28.1761H687.898C688.495 26.625 689.37 25.2031 690.523 23.9105C691.676 22.598 693.108 21.554 694.818 20.7784C696.529 19.983 698.517 19.5852 700.784 19.5852C703.807 19.5852 706.681 20.3906 709.405 22.0014C712.149 23.6122 714.377 26.1477 716.087 29.608C717.817 33.0682 718.682 37.5625 718.682 43.0909C718.682 48.3807 717.857 52.7656 716.206 56.2457C714.576 59.7259 712.388 62.321 709.644 64.0312C706.919 65.7415 703.926 66.5966 700.665 66.5966C698.517 66.5966 696.598 66.2486 694.908 65.5526C693.238 64.8366 691.806 63.8722 690.613 62.6591C689.439 61.4261 688.534 60.0341 687.898 58.483H687.659V83.1818H671.193ZM687.301 43.0909C687.301 45.3182 687.59 47.2472 688.166 48.8778C688.763 50.4886 689.598 51.7415 690.672 52.6364C691.766 53.5114 693.068 53.9489 694.58 53.9489C696.091 53.9489 697.374 53.5213 698.428 52.6662C699.502 51.7912 700.317 50.5483 700.874 48.9375C701.451 47.3068 701.739 45.358 701.739 43.0909C701.739 40.8239 701.451 38.8849 700.874 37.2741C700.317 35.6435 699.502 34.4006 698.428 33.5455C697.374 32.6705 696.091 32.233 694.58 32.233C693.068 32.233 691.766 32.6705 690.672 33.5455C689.598 34.4006 688.763 35.6435 688.166 37.2741C687.59 38.8849 687.301 40.8239 687.301 43.0909ZM720.54 66V20.1818H737.006V66H720.54ZM728.803 15.4091C726.556 15.4091 724.637 14.6733 723.046 13.2017C721.455 11.7301 720.66 9.96023 720.66 7.89204C720.66 5.82386 721.455 4.05398 723.046 2.58238C724.637 1.11079 726.546 0.375 728.773 0.375C731.02 0.375 732.929 1.11079 734.5 2.58238C736.091 4.05398 736.887 5.82386 736.887 7.89204C736.887 9.96023 736.091 11.7301 734.5 13.2017C732.929 14.6733 731.03 15.4091 728.803 15.4091ZM770.066 45.9545V20.1818H786.532V66H770.901V57.2898H770.424C769.43 60.2131 767.689 62.5 765.204 64.1506C762.718 65.7812 759.765 66.5966 756.344 66.5966C753.143 66.5966 750.339 65.8608 747.932 64.3892C745.546 62.9176 743.687 60.8892 742.354 58.304C741.042 55.7187 740.376 52.7557 740.356 49.4148V20.1818H756.822V45.9545C756.841 48.2216 757.418 50.0014 758.552 51.294C759.705 52.5866 761.316 53.233 763.384 53.233C764.756 53.233 765.939 52.9446 766.934 52.3679C767.948 51.7713 768.724 50.9361 769.26 49.8622C769.817 48.7685 770.086 47.4659 770.066 45.9545ZM758.134 14.4545L749.185 1.09091H763.265L768.992 14.4545H758.134ZM847.737 20.1818L832.345 66H813.254L797.862 20.1818H815.163L822.561 50.4886H823.038L830.436 20.1818H847.737ZM867.94 66.8352C863.048 66.8352 858.832 65.9006 855.292 64.0312C851.773 62.142 849.058 59.4375 847.149 55.9176C845.26 52.3778 844.315 48.142 844.315 43.2102C844.315 38.4773 845.27 34.3409 847.179 30.8011C849.088 27.2614 851.783 24.5071 855.263 22.5384C858.743 20.5696 862.849 19.5852 867.582 19.5852C871.042 19.5852 874.175 20.1222 876.979 21.196C879.783 22.2699 882.179 23.831 884.167 25.8793C886.156 27.9077 887.687 30.3736 888.761 33.277C889.835 36.1804 890.372 39.4517 890.372 43.0909V46.9091H849.446V37.8409H875.219C875.199 36.5284 874.861 35.375 874.204 34.3807C873.568 33.3665 872.703 32.581 871.609 32.0241C870.535 31.4474 869.312 31.1591 867.94 31.1591C866.608 31.1591 865.385 31.4474 864.271 32.0241C863.158 32.581 862.263 33.3565 861.586 34.3509C860.93 35.3452 860.582 36.5085 860.542 37.8409V47.625C860.542 49.0966 860.851 50.4091 861.467 51.5625C862.084 52.7159 862.969 53.6207 864.122 54.277C865.275 54.9332 866.667 55.2614 868.298 55.2614C869.432 55.2614 870.466 55.1023 871.4 54.7841C872.355 54.4659 873.17 54.0085 873.846 53.4119C874.523 52.7955 875.02 52.0597 875.338 51.2045H890.372C889.855 54.3864 888.632 57.1506 886.703 59.4972C884.774 61.8239 882.219 63.6335 879.037 64.9261C875.875 66.1989 872.176 66.8352 867.94 66.8352ZM908.517 4.90909V66H892.051V4.90909H908.517ZM933.94 66.8352C928.969 66.8352 924.713 65.8509 921.173 63.8821C917.634 61.8935 914.919 59.1293 913.03 55.5895C911.141 52.0298 910.196 47.9034 910.196 43.2102C910.196 38.517 911.141 34.4006 913.03 30.8608C914.919 27.3011 917.634 24.5369 921.173 22.5682C924.713 20.5795 928.969 19.5852 933.94 19.5852C938.912 19.5852 943.168 20.5795 946.708 22.5682C950.247 24.5369 952.962 27.3011 954.851 30.8608C956.74 34.4006 957.685 38.517 957.685 43.2102C957.685 47.9034 956.74 52.0298 954.851 55.5895C952.962 59.1293 950.247 61.8935 946.708 63.8821C943.168 65.8509 938.912 66.8352 933.94 66.8352ZM934.06 54.6648C935.452 54.6648 936.655 54.1974 937.669 53.2628C938.683 52.3281 939.469 50.9957 940.026 49.2656C940.583 47.5355 940.861 45.4773 940.861 43.0909C940.861 40.6847 940.583 38.6264 940.026 36.9162C939.469 35.1861 938.683 33.8537 937.669 32.919C936.655 31.9844 935.452 31.517 934.06 31.517C932.588 31.517 931.325 31.9844 930.271 32.919C929.217 33.8537 928.412 35.1861 927.855 36.9162C927.298 38.6264 927.02 40.6847 927.02 43.0909C927.02 45.4773 927.298 47.5355 927.855 49.2656C928.412 50.9957 929.217 52.3281 930.271 53.2628C931.325 54.1974 932.588 54.6648 934.06 54.6648ZM981.4 66.8352C976.429 66.8352 972.173 65.8509 968.633 63.8821C965.094 61.8935 962.379 59.1293 960.49 55.5895C958.601 52.0298 957.656 47.9034 957.656 43.2102C957.656 38.517 958.601 34.4006 960.49 30.8608C962.379 27.3011 965.094 24.5369 968.633 22.5682C972.173 20.5795 976.429 19.5852 981.4 19.5852C985.895 19.5852 989.783 20.4006 993.064 22.0312C996.365 23.642 998.92 25.929 1000.73 28.892C1002.54 31.8352 1003.45 35.2955 1003.47 39.2727H988.202C987.983 36.8665 987.287 35.0369 986.114 33.7841C984.96 32.5114 983.469 31.875 981.639 31.875C980.207 31.875 978.954 32.2926 977.881 33.1278C976.807 33.9432 975.971 35.1861 975.375 36.8565C974.778 38.5071 974.48 40.5852 974.48 43.0909C974.48 45.5966 974.778 47.6847 975.375 49.3551C975.971 51.0057 976.807 52.2486 977.881 53.0838C978.954 53.8991 980.207 54.3068 981.639 54.3068C982.852 54.3068 983.926 54.0284 984.861 53.4716C985.795 52.8949 986.551 52.0597 987.128 50.9659C987.724 49.8523 988.082 48.5 988.202 46.9091H1003.47C1003.41 50.946 1002.49 54.4659 1000.7 57.4688C998.91 60.4517 996.375 62.7585 993.094 64.3892C989.832 66.0199 985.935 66.8352 981.4 66.8352ZM1005.23 66V20.1818H1021.69V66H1005.23ZM1013.49 15.4091C1011.24 15.4091 1009.32 14.6733 1007.73 13.2017C1006.14 11.7301 1005.35 9.96023 1005.35 7.89204C1005.35 5.82386 1006.14 4.05398 1007.73 2.58238C1009.32 1.11079 1011.23 0.375 1013.46 0.375C1015.71 0.375 1017.62 1.11079 1019.19 2.58238C1020.78 4.05398 1021.57 5.82386 1021.57 7.89204C1021.57 9.96023 1020.78 11.7301 1019.19 13.2017C1017.62 14.6733 1015.72 15.4091 1013.49 15.4091ZM1049.5 66.7159C1046.58 66.7159 1044 66.2386 1041.75 65.2841C1039.52 64.3097 1037.77 62.8381 1036.5 60.8693C1035.23 58.9006 1034.59 56.3949 1034.59 53.3523C1034.59 50.8466 1035.02 48.7088 1035.87 46.9389C1036.73 45.1491 1037.92 43.6875 1039.45 42.554C1040.98 41.4205 1042.76 40.5554 1044.79 39.9588C1046.84 39.3622 1049.05 38.9744 1051.41 38.7955C1053.98 38.5966 1056.04 38.358 1057.59 38.0795C1059.16 37.7812 1060.29 37.3736 1060.99 36.8565C1061.69 36.3196 1062.03 35.6136 1062.03 34.7386V34.6193C1062.03 33.4261 1061.58 32.5114 1060.66 31.875C1059.75 31.2386 1058.57 30.9205 1057.14 30.9205C1055.57 30.9205 1054.29 31.2685 1053.29 31.9645C1052.32 32.6406 1051.73 33.6847 1051.53 35.0966H1036.38C1036.58 32.3125 1037.46 29.7472 1039.03 27.4006C1040.63 25.0341 1042.94 23.1449 1045.99 21.733C1049.03 20.3011 1052.83 19.5852 1057.38 19.5852C1060.66 19.5852 1063.6 19.973 1066.21 20.7486C1068.81 21.5043 1071.03 22.5682 1072.86 23.9403C1074.69 25.2926 1076.08 26.8835 1077.04 28.7131C1078.01 30.5227 1078.5 32.4915 1078.5 34.6193V66H1063.11V59.5568H1062.75C1061.83 61.267 1060.72 62.6491 1059.41 63.7031C1058.12 64.7571 1056.63 65.5227 1054.96 66C1053.31 66.4773 1051.49 66.7159 1049.5 66.7159ZM1054.87 56.3352C1056.13 56.3352 1057.3 56.0767 1058.39 55.5597C1059.51 55.0426 1060.41 54.2969 1061.11 53.3224C1061.8 52.348 1062.15 51.1648 1062.15 49.7727V45.9545C1061.72 46.1335 1061.25 46.3026 1060.75 46.4616C1060.27 46.6207 1059.76 46.7699 1059.2 46.9091C1058.66 47.0483 1058.09 47.1776 1057.47 47.2969C1056.87 47.4162 1056.25 47.5256 1055.59 47.625C1054.32 47.8239 1053.27 48.152 1052.46 48.6094C1051.66 49.0469 1051.07 49.5938 1050.67 50.25C1050.29 50.8864 1050.1 51.6023 1050.1 52.3977C1050.1 53.6705 1050.55 54.6449 1051.44 55.321C1052.34 55.9972 1053.48 56.3352 1054.87 56.3352ZM1097.79 4.90909V66H1081.33V4.90909H1097.79ZM1112.84 66V20.1818H1128.47V28.892H1128.94C1129.9 26.0284 1131.53 23.7614 1133.84 22.0909C1136.14 20.4205 1138.89 19.5852 1142.07 19.5852C1145.29 19.5852 1148.07 20.4403 1150.39 22.1506C1152.72 23.8409 1154.12 26.0881 1154.6 28.892H1155.08C1155.85 26.0881 1157.5 23.8409 1160.03 22.1506C1162.55 20.4403 1165.52 19.5852 1168.92 19.5852C1173.31 19.5852 1176.87 20.9972 1179.6 23.821C1182.34 26.6449 1183.71 30.4034 1183.71 35.0966V66H1167.25V39.2727C1167.25 37.2642 1166.74 35.6932 1165.72 34.5597C1164.71 33.4062 1163.35 32.8295 1161.64 32.8295C1159.95 32.8295 1158.61 33.4062 1157.61 34.5597C1156.64 35.6932 1156.15 37.2642 1156.15 39.2727V66H1140.4V39.2727C1140.4 37.2642 1139.89 35.6932 1138.88 34.5597C1137.86 33.4062 1136.5 32.8295 1134.79 32.8295C1133.66 32.8295 1132.68 33.0881 1131.87 33.6051C1131.05 34.1222 1130.42 34.8679 1129.96 35.8423C1129.52 36.7969 1129.3 37.9403 1129.3 39.2727V66H1112.84ZM1208.87 66.8352C1203.89 66.8352 1199.64 65.8509 1196.1 63.8821C1192.56 61.8935 1189.85 59.1293 1187.96 55.5895C1186.07 52.0298 1185.12 47.9034 1185.12 43.2102C1185.12 38.517 1186.07 34.4006 1187.96 30.8608C1189.85 27.3011 1192.56 24.5369 1196.1 22.5682C1199.64 20.5795 1203.89 19.5852 1208.87 19.5852C1213.84 19.5852 1218.09 20.5795 1221.63 22.5682C1225.17 24.5369 1227.89 27.3011 1229.78 30.8608C1231.67 34.4006 1232.61 38.517 1232.61 43.2102C1232.61 47.9034 1231.67 52.0298 1229.78 55.5895C1227.89 59.1293 1225.17 61.8935 1221.63 63.8821C1218.09 65.8509 1213.84 66.8352 1208.87 66.8352ZM1208.99 54.6648C1210.38 54.6648 1211.58 54.1974 1212.6 53.2628C1213.61 52.3281 1214.39 50.9957 1214.95 49.2656C1215.51 47.5355 1215.79 45.4773 1215.79 43.0909C1215.79 40.6847 1215.51 38.6264 1214.95 36.9162C1214.39 35.1861 1213.61 33.8537 1212.6 32.919C1211.58 31.9844 1210.38 31.517 1208.99 31.517C1207.51 31.517 1206.25 31.9844 1205.2 32.919C1204.14 33.8537 1203.34 35.1861 1202.78 36.9162C1202.22 38.6264 1201.95 40.6847 1201.95 43.0909C1201.95 45.4773 1202.22 47.5355 1202.78 49.2656C1203.34 50.9957 1204.14 52.3281 1205.2 53.2628C1206.25 54.1974 1207.51 54.6648 1208.99 54.6648ZM1250.72 40.2273V66H1234.25V20.1818H1249.88V28.892H1250.36C1251.35 25.9886 1253.1 23.7116 1255.61 22.0611C1258.14 20.4105 1261.08 19.5852 1264.44 19.5852C1267.68 19.5852 1270.5 20.331 1272.88 21.8224C1275.29 23.294 1277.15 25.3224 1278.46 27.9077C1279.79 30.4929 1280.45 33.446 1280.43 36.767V66H1263.96V40.2273C1263.98 37.9602 1263.41 36.1804 1262.23 34.8878C1261.08 33.5952 1259.47 32.9489 1257.4 32.9489C1256.05 32.9489 1254.86 33.2472 1253.85 33.8438C1252.86 34.4205 1252.09 35.2557 1251.55 36.3494C1251.02 37.4233 1250.74 38.7159 1250.72 40.2273ZM1300.1 66.5966C1296.84 66.5966 1293.84 65.7415 1291.09 64.0312C1288.37 62.321 1286.18 59.7259 1284.53 56.2457C1282.9 52.7656 1282.09 48.3807 1282.09 43.0909C1282.09 37.5625 1282.94 33.0682 1284.65 29.608C1286.38 26.1477 1288.61 23.6122 1291.33 22.0014C1294.08 20.3906 1296.96 19.5852 1299.98 19.5852C1302.25 19.5852 1304.24 19.983 1305.95 20.7784C1307.66 21.554 1309.09 22.598 1310.24 23.9105C1311.4 25.2031 1312.27 26.625 1312.87 28.1761H1313.11V4.90909H1329.57V66H1313.23V58.483H1312.87C1312.23 60.0341 1311.32 61.4261 1310.13 62.6591C1308.95 63.8722 1307.52 64.8366 1305.83 65.5526C1304.16 66.2486 1302.25 66.5966 1300.1 66.5966ZM1306.19 53.9489C1307.7 53.9489 1308.99 53.5114 1310.07 52.6364C1311.16 51.7415 1311.99 50.4886 1312.57 48.8778C1313.17 47.2472 1313.47 45.3182 1313.47 43.0909C1313.47 40.8239 1313.17 38.8849 1312.57 37.2741C1311.99 35.6435 1311.16 34.4006 1310.07 33.5455C1308.99 32.6705 1307.7 32.233 1306.19 32.233C1304.68 32.233 1303.38 32.6705 1302.31 33.5455C1301.26 34.4006 1300.44 35.6435 1299.86 37.2741C1299.31 38.8849 1299.03 40.8239 1299.03 43.0909C1299.03 45.358 1299.31 47.3068 1299.86 48.9375C1300.44 50.5483 1301.26 51.7912 1302.31 52.6662C1303.38 53.5213 1304.68 53.9489 1306.19 53.9489ZM1354.69 66.8352C1349.72 66.8352 1345.46 65.8509 1341.92 63.8821C1338.39 61.8935 1335.67 59.1293 1333.78 55.5895C1331.89 52.0298 1330.95 47.9034 1330.95 43.2102C1330.95 38.517 1331.89 34.4006 1333.78 30.8608C1335.67 27.3011 1338.39 24.5369 1341.92 22.5682C1345.46 20.5795 1349.72 19.5852 1354.69 19.5852C1359.66 19.5852 1363.92 20.5795 1367.46 22.5682C1371 24.5369 1373.71 27.3011 1375.6 30.8608C1377.49 34.4006 1378.44 38.517 1378.44 43.2102C1378.44 47.9034 1377.49 52.0298 1375.6 55.5895C1373.71 59.1293 1371 61.8935 1367.46 63.8821C1363.92 65.8509 1359.66 66.8352 1354.69 66.8352ZM1354.81 54.6648C1356.2 54.6648 1357.41 54.1974 1358.42 53.2628C1359.43 52.3281 1360.22 50.9957 1360.78 49.2656C1361.33 47.5355 1361.61 45.4773 1361.61 43.0909C1361.61 40.6847 1361.33 38.6264 1360.78 36.9162C1360.22 35.1861 1359.43 33.8537 1358.42 32.919C1357.41 31.9844 1356.2 31.517 1354.81 31.517C1353.34 31.517 1352.08 31.9844 1351.02 32.919C1349.97 33.8537 1349.16 35.1861 1348.61 36.9162C1348.05 38.6264 1347.77 40.6847 1347.77 43.0909C1347.77 45.4773 1348.05 47.5355 1348.61 49.2656C1349.16 50.9957 1349.97 52.3281 1351.02 53.2628C1352.08 54.1974 1353.34 54.6648 1354.81 54.6648Z" fill="#009400"/>
</svg>
