<?xml version="1.0" encoding="UTF-8" standalone="no"?>
<svg
   width="6867.0063"
   height="850.28027"
   viewBox="0 0 6867.0064 850.28027"
   fill="none"
   version="1.1"
   id="svg14"
   xmlns="http://www.w3.org/2000/svg"
   xmlns:svg="http://www.w3.org/2000/svg">
  <path
     d="m 3016.9721,848.56714 -0.036,0.2374 c -0.026,0.1651 -0.062,0.3457 -0.1135,0.5367 -0.052,0.1909 -0.1032,0.3715 -0.1548,0.5366 -0.057,0.1703 -0.098,0.3044 -0.1342,0.4025 h -0.3973 c 0.021,-0.093 0.046,-0.2167 0.077,-0.3715 0.031,-0.1497 0.062,-0.3251 0.093,-0.516 0.031,-0.1858 0.057,-0.3819 0.077,-0.578 l 0.026,-0.2477 z"
     fill="#000000"
     id="path3"
     style="fill:#f5f7ed;fill-opacity:1;stroke-width:0.516009" />
  <g
     clip-path="url(#clip0_254_61)"
     id="g14"
     transform="matrix(0.51600945,0,0,0.51600945,9.2408137,-2003.1487)"
     style="fill:#f5f7ed;fill-opacity:1">
    <path
       d="m 68.6761,5316.1 c -25.709,0.19 -85.7579,0.19 -85.7579,-37.18 l -0.8264,-645.11 C -18,4355.32 227.246,4130.73 539.61,4130.73 c 312.365,0 557.61,223.58 557.61,500.87 0,277.29 -245.245,500.87 -557.61,500.87 -155.539,0 -297.306,-58.86 -395.735,-148.75 v 296.85 c 0,35.26 -52.5198,35.35 -75.2907,35.53 z M 539.61,4957 c 216.691,0 388.666,-154.43 388.666,-325.49 0,-171.06 -171.884,-325.49 -388.666,-325.49 -216.782,0 -388.665,154.43 -388.665,325.49 0,171.06 171.883,325.49 388.665,325.49 z"
       fill="#252525"
       id="path4"
       style="fill:#f5f7ed;fill-opacity:1" />
    <path
       d="m 1842.32,5132.47 c -312.36,0 -557.61,-223.58 -557.61,-500.87 0,-277.29 245.25,-500.87 557.61,-500.87 312.37,0 557.61,223.58 557.61,500.87 0,277.29 -245.24,500.87 -557.61,500.87 z m 0,-826.36 c -216.69,0 -388.66,154.43 -388.66,325.49 0,171.06 171.88,325.5 388.66,325.5 216.79,0 388.58,-154.44 388.58,-325.5 0,-171.06 -171.89,-325.49 -388.58,-325.49 z"
       fill="#252525"
       id="path5"
       style="fill:#f5f7ed;fill-opacity:1" />
    <path
       d="m 2742.87,4184.91 v 8.44 c -0.18,44.35 -0.64,254.25 -0.64,431.64 0,189.97 174.91,345.14 376.82,345.14 h 462.21 c 38.93,0 65.01,39.12 65.01,80.53 0,41.41 -26.17,80.52 -65.01,80.52 0,0 -185.65,1.2 -462.21,1.2 -317.87,0 -533.74,-227.99 -552.19,-504.73 v -0.82 l 14.96,-442.11 c 0.1,-37.73 39.12,-63.63 80.53,-63.63 41.41,0 80.43,25.62 80.52,63.73 z"
       fill="#252525"
       id="path6"
       style="fill:#f5f7ed;fill-opacity:1" />
    <path
       d="m 3909.42,4122.47 c 40.68,0 79.42,18.73 80.52,48.21 v 913.86 c 0,29.84 -40.4,47.93 -80.52,47.93 -40.12,0 -80.52,-18.36 -80.52,-47.93 0,-0.64 -0.28,-910.65 0,-913.22 1.56,-31.68 40.85,-48.85 80.52,-48.85 z"
       fill="#252525"
       id="path7"
       style="fill:#f5f7ed;fill-opacity:1" />
    <path
       d="m 4727.24,4121.19 c 277.11,0 460.93,1.19 463.32,1.28 39.11,1.19 63.9,39.76 63.9,80.53 0,40.76 -26.07,80.52 -65,80.52 0,0 -271.33,0 -462.22,0 -201.9,0 -376.82,154.44 -376.82,343.49 0,189.05 174.92,343.49 376.82,343.49 h 462.22 c 38.93,0 65,39.12 65,80.53 0,41.41 -26.17,80.52 -65,80.52 0,0 -185.66,1.19 -462.22,1.19 -317.04,0 -552.19,-226.69 -552.19,-505.82 0,-279.13 235.15,-505.83 552.19,-505.83 z"
       fill="#252525"
       id="path8"
       style="fill:#f5f7ed;fill-opacity:1" />
    <path
       d="m 6414.03,4121.46 c 41.23,0 80.53,25.16 80.53,62.99 0,0 1.19,179.59 1.19,446.97 0,267.37 -232.21,501.05 -531.44,501.05 -299.24,0 -531.45,-224.4 -531.45,-501.05 0,-276.65 1.2,-446.97 1.2,-446.97 0,-37.74 39.3,-62.99 80.52,-62.99 41.23,0 80.53,24.98 80.53,62.62 0,0 0,260.58 0,443.94 0,173.63 163.71,328.89 369.2,328.89 205.49,0 369.2,-155.35 369.2,-328.89 v -444.03 c 0,-37.65 39.29,-62.62 80.52,-62.62 z"
       fill="#252525"
       id="path9"
       style="fill:#f5f7ed;fill-opacity:1" />
    <path
       d="m 8385.82,4622.51 c 0,268.02 -1.19,445.69 -1.28,447.98 -1.2,38.11 -39.85,61.98 -80.53,61.98 -40.67,0 -80.52,-24.98 -80.52,-62.62 0,0 0,-260.58 0,-443.94 0,-183.36 -102.01,-328.89 -298.96,-328.89 -196.95,0 -300.34,151.13 -300.34,328.89 v 444.03 c 0,37.74 -39.48,62.62 -83.92,62.62 -44.44,0 -82.64,-24.88 -82.64,-62.62 0,0 0,-260.58 0,-443.94 0,-183.36 -103.38,-328.89 -300.33,-328.89 -196.95,0 -300.71,151.22 -300.71,328.89 v 444.03 c 0,37.65 -39.29,62.62 -80.52,62.62 -41.23,0 -80.52,-25.16 -80.52,-62.98 0,0 -1.2,-179.6 -1.2,-446.97 0,-267.38 170.69,-501.05 462.95,-501.05 188.41,0 298.41,99.98 383.61,238.26 87.78,-142.5 196.31,-238.26 383.62,-238.26 292.35,0 461.2,227.34 461.2,501.05 z"
       fill="#252525"
       id="path10"
       style="fill:#f5f7ed;fill-opacity:1" />
    <path
       d="m 8582.13,4628.57 0.92,-709.38 c 0,-36.91 58.39,-37.19 83.55,-37.19 23.32,0 77.5,-0.28 77.5,35.53 v 361.86 c 102.19,-93.47 241.02,-148.66 395.64,-148.66 312.36,0 557.61,223.58 557.61,500.87 0,277.29 -245.25,500.87 -557.61,500.87 -312.37,0 -557.61,-224.96 -557.61,-503.9 z m 557.7,328.43 c 216.69,0 388.67,-154.43 388.67,-325.49 0,-171.06 -171.89,-325.49 -388.67,-325.49 -216.78,0 -388.66,154.43 -388.66,325.49 0,171.06 171.88,325.49 388.66,325.49 z"
       fill="#252525"
       id="path11"
       style="fill:#f5f7ed;fill-opacity:1" />
    <path
       d="m 10694.7,5062.87 c -243.1,138.09 -615.4,76.67 -759.36,-163.44 -143.33,-240.1 -48.39,-551.64 212.96,-695.42 221.9,-116.98 491.7,-87.78 662,57.47 16.9,15.15 48.5,38.48 72.1,63.63 21,23.23 45.8,61.61 13.7,91.27 -107.2,98.8 -223.7,192.08 -346.6,281.15 -26.3,19.46 -78.7,29.29 -110.2,-9 -27.3,-33.24 -28.5,-78.23 0.9,-103.02 44,-34.43 222.6,-160.13 248.9,-196.58 -146.7,-65.93 -301.6,-114.87 -448.7,-32.87 -186.4,97.97 -248.78,310.34 -158.5,458.72 8,12.67 17.2,24.79 27.7,36.45 111.8,127.44 339.4,182.99 490.3,71.16 l 216.7,-156.18 c 25.3,-20.48 65.3,-26.08 99.3,2.2 32.5,23.78 44.6,70.7 15.7,95.67 -105,102.11 -82.2,105.32 -236.9,198.88 z"
       fill="#252525"
       id="path12"
       style="fill:#f5f7ed;fill-opacity:1" />
    <path
       d="m 12186.7,4622.51 c 0,268.02 -1.2,445.69 -1.3,447.98 -1.2,38.11 -39.8,61.98 -80.5,61.98 -40.7,0 -80.5,-24.98 -80.5,-62.62 0,0 0,-260.58 0,-443.94 0,-173.63 -163.7,-328.89 -369.2,-328.89 -205.5,0 -369.2,155.35 -369.2,328.89 v 444.03 c 0,37.65 -39.3,62.62 -80.5,62.62 -41.3,0 -80.6,-25.16 -80.6,-62.99 0,0 -1.2,-179.59 -1.2,-446.97 0,-267.37 232.2,-501.05 531.5,-501.05 299.2,0 531.4,224.41 531.4,501.05 z"
       fill="#252525"
       id="path13"
       style="fill:#f5f7ed;fill-opacity:1" />
    <path
       d="m 12355.5,4200.42 c 0,-40.58 26.5,-76.94 64.8,-78.04 h 375.1 c 11.1,-2.66 17.5,-3.31 27.3,-3.31 9.9,0 23.3,2.39 27.3,3.31 h 375 c 38.8,0 65,37.92 65,78.04 0,40.13 -26.6,78.05 -65,78.05 0,0 -143.6,0 -316.3,0.09 v 790.83 c 0,38.1 -42.2,63.08 -86,63.08 -43.8,0 -85.9,-25.25 -85.9,-62.99 0,0 -0.3,-560.27 -0.2,-790.83 -183.3,0 -311.8,0.28 -317,-0.18 0,0 -64.2,-39.57 -64.2,-78.05 z"
       fill="#252525"
       id="path14"
       style="fill:#f5f7ed;fill-opacity:1" />
  </g>
  <defs
     id="defs14">
    <clipPath
       id="clip0_254_61">
      <rect
         width="13308.1"
         height="1434.1"
         fill="#ffffff"
         transform="translate(-18,3882)"
         id="rect14"
         x="0"
         y="0" />
    </clipPath>
  </defs>
</svg>
