<svg width="140" height="16" viewBox="0 0 140 16" fill="none" xmlns="http://www.w3.org/2000/svg">
<path d="M1.718 15.566V12.452C2.762 13.388 4.256 14 5.894 14C9.17 14 11.744 11.66 11.744 8.744C11.744 5.828 9.17 3.47 5.894 3.47C2.6 3.47 0.0260001 5.828 0.0260001 8.762V15.548C0.0260001 15.944 0.656 15.944 0.926 15.944C1.178 15.944 1.718 15.944 1.718 15.566ZM1.79 8.744C1.79 6.944 3.608 5.324 5.894 5.324C8.162 5.324 9.98 6.944 9.98 8.744C9.98 10.544 8.162 12.164 5.894 12.164C3.608 12.164 1.79 10.544 1.79 8.744ZM23.5993 8.744C23.5993 10.544 21.7813 12.164 19.5133 12.164C17.2273 12.164 15.4093 10.544 15.4093 8.744C15.4093 6.944 17.2273 5.324 19.5133 5.324C21.7813 5.324 23.5993 6.944 23.5993 8.744ZM25.3633 8.744C25.3633 5.828 22.7893 3.47 19.5133 3.47C16.2193 3.47 13.6453 5.828 13.6453 8.744C13.6453 11.66 16.2193 14 19.5133 14C22.7893 14 25.3633 11.66 25.3633 8.744ZM28.0607 3.56C27.6107 3.56 27.2147 3.83 27.1967 4.208L27.0527 8.78V8.798C27.2507 11.66 29.5187 14 32.8487 14C35.7647 14 37.7087 14 37.7087 14C38.1227 14 38.3927 13.586 38.3927 13.154C38.3927 12.722 38.1227 12.308 37.7087 12.308H32.8487C30.7247 12.308 28.8887 10.706 28.8887 8.744C28.8887 6.926 28.8887 4.766 28.9067 4.298V4.208C28.8887 3.812 28.4927 3.56 28.0607 3.56ZM40.2414 3.902C40.2414 3.938 40.2414 13.496 40.2414 13.496C40.2414 13.82 40.6734 14 41.0874 14C41.5194 14 41.9334 13.82 41.9334 13.496V3.902C41.9154 3.578 41.5194 3.38 41.0874 3.38C40.6734 3.38 40.2594 3.578 40.2414 3.902Z" fill="#009400"/>
<path d="M43.8017 8.78C43.8017 11.678 46.2857 14.018 49.6157 14.018C52.5137 14.018 54.4757 14 54.4757 14C54.8897 14 55.1597 13.586 55.1597 13.154C55.1597 12.722 54.8897 12.308 54.4757 12.308H49.6157C47.4917 12.308 45.6557 10.724 45.6557 8.78C45.6557 6.836 47.4197 5.27 49.4357 5.27C51.5417 5.27 54.4757 5.27 54.4757 5.27C54.8897 5.27 55.1597 4.856 55.1597 4.406C55.1597 3.992 54.8897 3.578 54.4757 3.56C54.4577 3.56 52.4957 3.56 49.4357 3.56C46.2677 3.56 43.8017 5.9 43.8017 8.78ZM66.4211 4.046V8.708C66.4211 10.526 64.7111 12.164 62.5511 12.164C60.3731 12.164 58.6631 10.526 58.6631 8.708C58.6631 6.782 58.6631 4.046 58.6631 4.046C58.6631 3.632 58.2491 3.38 57.8171 3.38C57.3851 3.38 56.9711 3.65 56.9711 4.046C56.9711 4.046 56.9531 5.936 56.9531 8.744C56.9531 11.642 59.4011 14 62.5511 14C65.6831 14 68.1311 11.642 68.1311 8.744C68.1311 5.936 68.1131 4.046 68.1131 4.046C68.1131 3.65 67.6991 3.38 67.2671 3.38C66.8351 3.38 66.4211 3.65 66.4211 4.046ZM83.095 3.38C81.115 3.38 79.981 4.388 79.063 5.882C78.163 4.424 76.993 3.38 75.013 3.38C71.953 3.38 70.153 5.774 70.153 8.654C70.153 11.462 70.171 13.352 70.171 13.352C70.171 13.748 70.585 14 71.017 14C71.449 14 71.863 13.748 71.863 13.352V8.69C71.863 6.818 72.943 5.216 75.013 5.216C77.083 5.216 78.181 6.818 78.181 8.69C78.181 10.616 78.181 13.352 78.181 13.352C78.181 13.748 78.595 14 79.045 14C79.513 14 79.927 13.748 79.927 13.352V8.69C79.927 6.818 81.025 5.216 83.095 5.216C85.165 5.216 86.227 6.818 86.227 8.69C86.227 10.616 86.227 13.352 86.227 13.352C86.227 13.748 86.641 14 87.073 14C87.505 14 87.919 13.766 87.919 13.352C87.919 13.334 87.937 11.462 87.937 8.654C87.937 5.774 86.155 3.38 83.095 3.38ZM95.8115 14C99.0875 14 101.661 11.66 101.661 8.744C101.661 5.828 99.0875 3.47 95.8115 3.47C94.1735 3.47 92.7155 4.064 91.6355 5.036V1.238C91.6355 0.86 91.0775 0.86 90.8255 0.86C90.5555 0.86 89.9435 0.86 89.9435 1.256V8.708C89.9435 11.642 92.5175 14 95.8115 14ZM91.7075 8.744C91.7075 6.944 93.5255 5.324 95.8115 5.324C98.0795 5.324 99.8975 6.944 99.8975 8.744C99.8975 10.544 98.0795 12.164 95.8115 12.164C93.5255 12.164 91.7075 10.544 91.7075 8.744ZM114.562 11.192C114.868 10.922 114.742 10.436 114.4 10.184C114.04 9.878 113.626 9.95 113.356 10.148L111.07 11.804C109.486 12.974 107.092 12.398 105.922 11.048C105.814 10.922 105.706 10.796 105.634 10.67C104.68 9.104 105.346 6.872 107.29 5.846C108.838 4.982 110.476 5.504 112.024 6.188C111.736 6.566 109.864 7.898 109.396 8.258C109.09 8.51 109.108 8.996 109.396 9.338C109.72 9.734 110.278 9.644 110.548 9.428C111.844 8.492 113.068 7.52 114.202 6.476C114.526 6.17 114.274 5.756 114.058 5.522C113.806 5.252 113.464 5.018 113.284 4.856C111.502 3.326 108.658 3.02 106.336 4.244C103.582 5.756 102.592 9.032 104.086 11.552C105.598 14.09 109.522 14.738 112.078 13.28C113.698 12.29 113.464 12.254 114.562 11.192ZM122.099 3.38C118.949 3.38 116.519 5.738 116.519 8.654C116.519 11.462 116.519 13.352 116.519 13.352C116.519 13.748 116.933 14 117.365 14C117.797 14 118.211 13.748 118.211 13.352V8.69C118.211 6.854 119.939 5.216 122.099 5.216C124.259 5.216 125.987 6.854 125.987 8.69C125.987 10.616 125.987 13.352 125.987 13.352C125.987 13.748 126.401 14 126.833 14C127.247 14 127.661 13.766 127.679 13.352C127.679 13.334 127.679 11.462 127.679 8.654C127.679 5.738 125.249 3.38 122.099 3.38ZM130.06 5.036C130.132 5.036 131.482 5.036 133.408 5.036C133.408 7.448 133.408 13.352 133.408 13.352C133.408 13.748 133.84 14 134.308 14C134.776 14 135.208 13.748 135.208 13.352V5.036C137.026 5.036 138.538 5.036 138.538 5.036C138.934 5.036 139.222 4.64 139.222 4.208C139.222 3.794 138.952 3.38 138.538 3.38H134.596C134.56 3.38 134.416 3.344 134.308 3.344C134.2 3.344 134.128 3.362 134.02 3.38H130.078C129.664 3.398 129.394 3.776 129.394 4.208C129.394 4.604 130.06 5.036 130.06 5.036Z" fill="black"/>
</svg>
