<svg width="978" height="564" viewBox="0 0 978 564" fill="none" xmlns="http://www.w3.org/2000/svg">
<path fill-rule="evenodd" clip-rule="evenodd" d="M289.848 122.967C274.899 121.928 245.001 118.227 245.001 118.227L236.062 207.632C236.062 207.632 269.271 210.848 285.876 212.05C310.449 213.828 359.594 216.572 359.594 216.572L362.032 126.354C362.032 126.354 313.91 124.638 289.848 122.967Z" fill="white" stroke="#1B2126" stroke-width="3" stroke-linecap="round" stroke-linejoin="round"/>
<path fill-rule="evenodd" clip-rule="evenodd" d="M558.71 84.0903L557.897 86.5286H556.272L557.084 94.6563V99.533L550.583 103.597L549.77 106.035L548.145 108.473V110.912L550.583 111.725L552.208 114.163L551.395 117.414L550.583 119.852L551.395 121.478L550.583 122.291L551.395 123.916L550.583 128.793L554.646 132.044H557.897L560.335 134.482L563.586 135.295L566.837 138.546L569.275 141.797L571.713 143.423H574.964L578.215 146.674L579.028 149.112V155.614H579.84L580.653 158.053L583.091 159.678L581.466 162.116L582.279 167.806L584.717 172.682H589.593L591.218 176.746L639.981 171.87L639.169 168.619L639.981 166.993V164.555L638.356 163.742L637.543 160.491L636.73 155.614V152.363L637.543 149.925V147.487L639.169 144.235L637.543 142.61L638.356 137.733L639.169 135.295L641.607 133.669L639.981 131.231V126.354L642.419 122.291L641.607 119.852L644.045 117.414L644.858 113.35L645.67 110.099L647.296 107.661H645.67L644.858 110.099L643.232 112.537H642.419V114.976L640.794 116.601L641.607 118.227L640.794 119.039H639.981L637.543 119.852L635.918 123.103L634.292 124.729L632.667 127.167L631.041 126.354V123.916L632.667 119.852L634.292 117.414L636.73 115.788V114.163L634.292 112.537L635.918 107.661H635.105L632.667 108.473H631.854L633.48 105.222L631.854 101.159L629.416 99.533H626.978V97.0946L624.54 96.2819L618.851 95.4691L615.6 96.2819L612.349 94.6563L601.784 92.218L592.844 90.5925L590.406 87.3414L587.968 86.5286L582.279 84.9031L579.028 86.5286V84.9031L580.653 79.2137L579.028 78.4009L574.964 80.8392L572.526 81.652L566.837 84.9031L561.961 85.7158L558.71 84.0903Z" fill="white" stroke="#1B2126" stroke-width="3" stroke-linecap="round" stroke-linejoin="round"/>
<path fill-rule="evenodd" clip-rule="evenodd" d="M757.825 268.589V269.402H758.638V271.027H759.45V272.653H760.263L761.076 274.278H763.514L764.327 275.091L766.765 275.904L769.203 273.466L770.016 271.84L773.267 273.466L774.892 271.84H778.143L778.956 270.215L778.143 268.589L779.768 267.776L781.394 268.589L784.645 266.151L785.457 266.963L788.708 264.525L787.895 263.712L789.521 262.087V261.274H787.895V259.648L788.708 257.21L791.959 252.334L792.772 249.082L791.959 248.27L794.397 245.831L793.584 245.019L795.21 242.58V239.329L796.023 238.516H797.648L799.273 240.142H802.524L804.15 238.516V236.078L804.962 235.265V232.827L805.775 231.201L806.588 230.389L809.026 231.201L809.839 227.95H811.464V227.138L813.09 225.512V223.886L814.715 221.448V219.01L815.528 217.384L814.715 215.759L815.528 214.946L825.28 219.823L826.093 214.946V213.32L824.468 212.508L823.655 210.882H822.842L823.655 209.257L820.404 210.069L817.153 208.444L816.34 209.257L815.528 210.882H813.09L812.277 213.32L810.651 214.133H808.213L806.588 211.695V214.133L804.15 216.572H801.712L800.899 218.197L799.273 220.635L796.023 223.886L793.584 212.508L775.705 215.759L771.641 195.439L769.203 197.065L771.641 198.691L770.828 201.129L771.641 203.567L770.828 206.818V210.882L770.016 215.759V219.01L765.952 221.448V223.886L762.701 227.138L761.076 225.512L758.638 227.138V228.763L757.012 229.576L756.2 232.827L755.387 234.453L756.2 235.265V236.891L754.574 238.516H753.761V236.891L752.136 236.078L750.511 237.704L749.698 240.142V241.767L750.511 245.831L748.885 246.644V249.082L744.009 251.521L744.822 253.959L744.009 257.21L747.26 260.461L748.072 262.087L751.323 266.151L755.387 268.589H757.825Z" fill="white" stroke="#1B2126" stroke-width="3" stroke-linecap="round" stroke-linejoin="round"/>
<path fill-rule="evenodd" clip-rule="evenodd" d="M840.722 223.887L842.348 222.262L839.909 219.823L839.097 221.449L839.909 222.262L840.722 223.887Z" fill="white" stroke="#1B2126" stroke-width="3" stroke-linecap="round" stroke-linejoin="round"/>
<path fill-rule="evenodd" clip-rule="evenodd" d="M150.727 84.0902V81.6519L151.54 80.8391V79.2136L149.914 75.9625L158.854 19.8812C158.854 19.8812 112.813 11.9037 89.7922 7.5085C83.0133 6.21425 69.4555 2.81299 69.4555 2.81299L68.6428 4.43853L69.4555 8.50239H71.8937V11.7535L71.081 15.0046H69.4555L68.6428 13.379L67.8301 11.7535L65.392 8.50239L63.7665 9.31517L65.392 10.1279L67.0174 11.7535L65.392 12.5663L62.9538 10.9407L60.5157 10.1279L61.3284 12.5663L65.392 14.1918L67.0174 12.5663L68.6428 15.0046L66.2047 18.2557L67.0174 20.694L68.6428 25.5706L70.2682 26.3834L69.4555 23.9451L67.8301 19.8812L68.6428 17.4429H70.2682L71.8937 18.2557V21.5068V23.9451L73.5191 24.7578L71.8937 27.1962L69.4555 29.6345V32.0728V34.5111L68.6428 38.575L67.0174 41.0133L65.392 40.2005L62.9538 42.6388L62.1411 43.4516L59.703 42.6388L58.0775 43.4516L55.6394 42.6388L57.2648 40.2005L59.703 37.7622L61.3284 38.575L62.9538 36.9494L64.5792 39.3877L65.392 34.5111L63.7665 33.6983L64.5792 30.4472C63.7192 30.4472 67.0174 30.4472 67.0174 30.4472L67.8301 28.0089L62.1411 31.26L60.5157 32.0728L57.2648 34.5111L58.8902 36.1367H60.5157L58.8902 36.9494H54.8267L55.6394 35.3239L58.8902 32.0728L61.3284 29.6345V27.1962H62.9538V28.8217L65.392 26.3834L63.7665 21.5068V23.9451L61.3284 21.5068L60.5157 22.3195L58.0775 19.8812H55.6394L46.6995 16.6301L43.4487 15.0046L41.8232 13.379L36.1342 10.1279L34.5088 14.1918V19.0684L36.9469 22.3195L37.7596 25.5706L36.9469 32.0728L38.5724 34.5111L37.7596 39.3877H40.1978V41.0133L43.4487 42.6388L39.3851 43.4516L38.5724 45.0771L37.7596 44.2644V46.7027H41.0105L42.6359 49.141H40.1978L39.3851 52.3921L40.1978 54.8304H37.7596L36.9469 53.2049L36.1342 56.456H37.7596L39.3851 57.2687H42.6359L43.4487 58.0815H45.8868L46.6995 60.5198L48.3249 61.3326H50.7631L53.2012 63.7709L54.8267 67.8348L54.0139 73.5242V75.1497L59.703 76.7753L62.1411 78.4008L67.8301 76.7753L70.2682 75.9625L75.1445 76.7753L79.2081 78.4008L80.0208 80.8391L83.2717 80.0264L84.0844 80.8391L89.7734 80.0264L93.837 80.8391L97.9006 80.0264L105.215 79.2136L107.653 78.4008L114.968 80.0264L117.406 78.4008L150.727 84.0902Z" fill="white" stroke="#1B2126" stroke-width="3" stroke-linecap="round" stroke-linejoin="round"/>
<path fill-rule="evenodd" clip-rule="evenodd" d="M872.417 74.3367L901.675 66.209L902.487 67.0218L903.3 68.6473L901.675 71.8984L904.113 75.1495L903.3 75.9623V77.5878L900.862 81.6517L900.049 82.4644H898.424L897.611 84.09L898.424 86.5283V88.9666V92.2177L897.611 93.0305V96.2816L896.798 97.9071V100.345L895.986 101.158L896.798 106.035L897.611 106.848L896.798 110.099L897.611 111.724V114.163L896.798 114.975V117.414L900.049 119.852L886.233 122.29L885.42 121.477L882.17 106.848V105.222L880.544 103.597L878.919 105.222V100.345L878.106 99.5326V98.7199L877.293 97.9071L876.481 95.4688H875.668V91.4049L876.481 89.7794L874.855 87.3411L874.042 84.09L873.23 82.4644V78.4006L872.417 77.5878V74.3367Z" fill="white" stroke="#1B2126" stroke-width="3" stroke-linecap="round" stroke-linejoin="round"/>
<path fill-rule="evenodd" clip-rule="evenodd" d="M869.167 271.028V269.402H869.98V265.338L868.355 262.9H862.666L863.478 265.338L861.04 264.525L859.415 266.151V263.713L855.351 262.087V259.649H852.913H850.475L848.85 258.023L843.161 258.836V257.21L849.662 256.398L850.475 258.023L851.288 255.585L852.1 258.023H855.351H856.164V259.649L861.04 262.087L862.666 260.462L861.04 259.649V258.023L859.415 257.21H856.977L851.288 252.334V250.708L856.977 255.585H859.415L857.789 253.959L858.602 251.521L861.853 253.959L861.04 251.521L858.602 249.895L855.351 249.083L853.726 246.644L851.288 245.832L848.037 243.393L845.599 240.142H843.973L841.535 239.329L842.348 238.517H845.599L851.288 244.206H852.913L856.164 247.457V245.832L858.602 247.457V244.206L857.789 242.581L859.415 241.768L856.977 240.955L853.726 240.142L852.913 238.517L850.475 237.704L848.85 238.517L845.599 237.704L843.161 235.266V233.64L840.722 236.078H837.472V234.453V233.64V228.763L839.097 227.138L840.722 226.325V223.887L839.91 222.261L839.097 221.448H836.659L835.846 219.823H832.595L830.97 218.197L831.783 215.759L829.344 214.946H826.094L825.281 219.823L815.528 214.946L814.716 215.759L815.528 217.385L814.716 219.01V221.448L813.09 223.887V225.512L811.465 227.138V227.951H809.839L809.027 231.202L806.588 230.389L805.776 231.202L804.963 232.827V235.266L804.15 236.078V238.517L802.525 240.142H799.274L797.648 238.517H796.023L795.21 239.329V242.581L793.585 245.019L794.398 245.832L791.959 248.27L792.772 249.083L791.959 252.334L788.709 257.21L787.896 259.649V261.274H789.521V262.087L787.896 263.713L788.709 264.525L785.458 266.964L784.645 266.151L781.394 268.589L779.769 267.776L778.143 268.589L778.956 270.215L778.143 271.84H774.892L773.267 273.466L770.016 271.84L769.203 273.466L766.765 275.904L764.327 275.091L763.514 274.279H761.076L760.264 272.653H759.451V271.028H758.638V269.402H757.825L752.136 276.717L746.447 279.968V282.406L744.822 284.032V285.657L740.758 287.283L739.946 289.721L731.006 294.598L766.765 288.909V289.721L869.167 271.028ZM869.98 236.891V238.517L869.167 239.329L869.98 240.955L868.355 243.393L867.542 245.832V249.083L866.729 252.334L867.542 255.585L868.355 256.398L869.167 253.959V249.083L869.98 246.644L872.418 247.457V242.581L874.044 239.329L873.231 237.704V235.266L869.98 236.891Z" fill="white" stroke="#1B2126" stroke-width="3" stroke-linecap="round" stroke-linejoin="round"/>
<path fill-rule="evenodd" clip-rule="evenodd" d="M186.486 179.185L172.67 291.347C172.67 291.347 197.497 294.82 209.91 296.15C227.838 298.071 263.694 301.1 263.694 301.1L271.008 210.883L236.062 207.632L238.5 185.687L186.486 179.185Z" fill="white" stroke="#1B2126" stroke-width="3" stroke-linecap="round" stroke-linejoin="round"/>
<path fill-rule="evenodd" clip-rule="evenodd" d="M373.41 318.981L429.487 319.794V363.683H431.925L436.802 368.56L439.24 367.747H440.865L441.678 366.122L444.929 369.373V371.811H448.992L453.869 373.437L456.307 372.624L458.745 375.062L461.183 373.437H466.059V375.875L468.497 376.688L470.123 379.939L474.999 375.875L475.812 378.313H477.437L479.875 379.939L483.126 378.313L484.752 382.377L488.003 376.688L492.066 379.126L494.504 378.313L496.13 379.939L501.006 381.564H502.631L503.444 379.126L507.508 378.313H509.133L514.009 376.688L517.26 377.501L520.511 375.875L525.387 377.501L527.826 379.939L530.264 381.564L535.14 382.377L538.391 384.003L539.204 383.19H543.267L544.08 384.003V396.194H544.893L545.705 419.765L548.143 422.203L550.582 425.454V428.705L552.207 430.331V431.144L553.832 432.769V435.207L555.458 436.833L556.271 437.646V440.084L557.083 440.897L556.271 441.71V446.586L555.458 449.025L553.832 452.276V454.714L553.02 456.339L554.645 459.591L553.832 462.842L552.207 464.467L550.582 467.718L549.769 469.344L551.394 471.782H548.143L540.829 475.846H537.578L533.515 476.659L535.14 474.22L535.953 471.782L534.327 470.969L532.702 471.782L531.076 473.408L527.826 472.595L528.638 475.846L530.264 478.284L531.889 479.91L531.076 481.535L527.826 484.787L526.2 483.974L527.013 488.038L522.137 492.101L517.26 495.353L511.571 496.165L510.759 497.791H506.695V496.165L504.257 497.791L502.631 496.165L501.006 494.54L501.819 498.604L499.381 497.791L497.755 496.165L496.942 496.978L498.568 500.229L500.193 501.042L498.568 502.668L501.819 501.855V503.48L497.755 505.919L494.504 501.855L493.692 504.293V508.357L492.879 509.982L492.066 506.731L487.19 509.982L486.377 511.608L488.003 513.234L490.441 511.608L487.19 516.485L480.688 515.672L479.875 517.297L482.314 518.11L485.564 520.548L482.314 528.676L480.688 527.051L478.25 528.676L474.999 525.425L475.812 528.676L474.999 529.489L475.812 530.302L479.875 531.115L481.501 530.302L480.688 535.991L479.875 536.804V541.681H481.501L482.314 546.557L481.501 548.183L483.939 552.247L485.564 556.31L487.19 557.123L486.377 560.374L484.752 562L481.501 561.187L478.25 557.936H466.872L462.808 554.685L457.932 553.872L454.681 550.621H448.992V548.183L447.367 547.37L445.741 540.868L443.303 537.617L441.678 535.991V531.927L440.052 529.489L440.865 527.863V525.425L440.052 522.987L436.802 521.361L432.738 518.11L431.925 515.672L428.674 510.795L426.236 509.17L424.611 506.731L422.985 501.042L420.547 497.791L419.735 495.353L417.296 492.101V488.038L414.858 486.412V484.787L409.169 481.535V479.91L405.918 479.097V476.659H404.293L401.855 472.595H396.166L391.289 471.782H387.226L383.975 470.157L382.35 472.595L376.661 473.408L373.41 478.284L372.597 482.348L370.972 484.787L366.908 488.85V490.476L362.032 488.85L359.594 486.412H356.343L353.905 483.161L349.841 482.348L344.965 477.472L342.527 476.659L340.088 474.22L339.276 470.969L337.65 467.718L336.838 465.28L337.65 462.842L334.399 457.152V454.714L331.961 450.65L327.898 447.399L324.647 446.586L320.583 441.71V440.084L317.332 437.646L314.082 434.395L311.643 432.769L309.205 431.144L306.767 428.705V425.454L305.142 424.641L303.516 423.829L301.078 421.39V418.952L370.159 422.203L373.41 318.981Z" fill="white" stroke="#1B2126" stroke-width="3" stroke-linecap="round" stroke-linejoin="round"/>
<path fill-rule="evenodd" clip-rule="evenodd" d="M612.35 345.803L723.692 332.798V327.109L724.504 326.296L727.755 327.109L728.568 322.232L733.444 318.168H737.508L743.197 311.666H746.448L747.26 307.602H748.886L749.698 305.164L752.137 304.351L752.949 305.977H754.575L756.2 301.913L760.264 301.1L761.889 301.913L764.327 296.224L765.953 294.598H766.765V288.909L731.006 294.598L729.381 296.224L654.611 303.539H649.734L650.547 305.977V307.602L625.353 310.041L624.54 310.854L622.915 309.228V310.854L623.728 314.105H622.102L622.915 316.543H621.289L622.915 318.981L621.289 319.794L620.477 322.232L622.102 323.045L622.915 323.858H620.477V325.483L621.289 326.296L617.226 328.735L618.039 331.986V333.611H616.413L615.6 336.862L614.788 339.301L616.413 342.552H613.975L612.35 345.803Z" fill="white" stroke="#1B2126" stroke-width="3" stroke-linecap="round" stroke-linejoin="round"/>
<path fill-rule="evenodd" clip-rule="evenodd" d="M752.136 327.109L746.447 329.547L744.822 331.986L742.384 336.862L746.447 338.488L747.26 339.3L749.698 340.926L752.949 340.113V342.552L755.387 344.177L756.2 346.615L757.013 347.428L759.451 349.054L760.264 351.492H761.889L762.702 353.118L766.765 354.743L769.203 358.807H771.642L774.08 361.245V362.871L776.518 363.684V365.309L778.143 366.122V367.748H780.581L784.645 370.186V371.811L786.27 374.25L787.083 377.501L787.896 379.126H790.334L791.147 380.752L793.585 384.003V387.254L795.21 389.692L796.023 388.88H797.648H799.274L800.087 386.441V384.003L801.712 385.628L799.274 381.565L797.648 378.314L798.461 377.501L800.899 381.565L802.525 382.377L801.712 379.126L803.337 380.752L804.15 383.19L805.776 381.565L804.963 379.126L803.337 378.314L801.712 377.501L804.963 376.688L807.401 377.501L809.026 375.875V374.25H811.465L813.903 372.624L815.528 370.999L813.903 369.373V367.748H815.528L816.341 369.373L817.966 367.748L819.592 366.122V362.871L821.217 362.058L822.843 362.871L824.468 360.433L823.655 358.807L826.906 357.181L824.468 356.369V353.93L826.093 351.492V355.556L828.532 348.241L830.97 344.177L835.033 340.113L811.465 323.045L790.334 326.296L789.521 323.045L786.27 320.607L784.645 322.232L783.832 319.794L759.451 323.045L756.2 324.671L753.762 325.483L752.949 327.109H752.136Z" fill="white" stroke="#1B2126" stroke-width="3" stroke-linecap="round" stroke-linejoin="round"/>
<path fill-rule="evenodd" clip-rule="evenodd" d="M398.003 172.498C385.742 172.288 361.221 171.056 361.221 171.056L362.033 126.354H362.846L363.659 106.035C363.659 106.035 408.936 106.847 431.927 106.847C450.114 106.847 487.192 106.035 487.192 106.035L486.379 108.473L484.753 110.911L482.315 112.537L484.753 117.413L488.004 118.226L489.63 120.665L490.442 160.49H488.004V162.116L489.63 163.742L488.817 166.18L490.442 167.805L489.63 174.308L488.004 176.746L490.442 182.435H488.817L487.192 179.997V178.371H484.753L483.941 177.559L481.503 176.746H479.064L476.626 174.308L472.563 175.12H466.874L465.248 176.746H462.81L456.308 172.682C456.308 172.682 417.438 172.83 398.003 172.498Z" fill="white" stroke="#1B2126" stroke-width="3" stroke-linecap="round" stroke-linejoin="round"/>
<path fill-rule="evenodd" clip-rule="evenodd" d="M914.68 132.856L917.931 144.235V147.486L919.556 146.673L921.181 145.048H923.62V143.422V141.797L922.807 140.171L923.62 138.546H921.994L922.807 136.92L921.994 135.295L922.807 134.482V132.856H921.994L921.181 130.418L914.68 132.856Z" fill="white" stroke="#1B2126" stroke-width="3" stroke-linecap="round" stroke-linejoin="round"/>
<path fill-rule="evenodd" clip-rule="evenodd" d="M766.766 165.367L771.642 195.439L775.705 215.759L858.602 199.503L859.415 197.065L861.041 195.439H865.104L865.917 193.814L868.355 192.188V190.563L874.044 185.686V184.061L869.168 180.81H867.542L866.73 177.558L864.291 178.371L863.479 175.12L864.291 172.682L865.104 171.056L863.479 169.431V167.805L865.104 166.18L866.73 162.929V161.303L869.168 158.865L867.542 157.239H865.104H862.666L861.041 154.801V153.175V150.737L858.602 149.111L856.977 149.924L856.164 148.299L853.726 147.486L779.769 162.929L778.956 157.239L766.766 165.367Z" fill="white" stroke="#1B2126" stroke-width="3" stroke-linecap="round" stroke-linejoin="round"/>
<path fill-rule="evenodd" clip-rule="evenodd" d="M135.285 171.869L141.787 131.231L143.412 127.98V125.541L145.037 123.916L143.412 122.29L140.161 121.478L140.974 116.601L145.037 111.724L148.288 108.473L149.101 106.035L152.352 101.158L153.165 99.5327L157.228 94.656L156.415 90.5922L151.539 86.5283V84.09L117.405 78.4006L114.967 80.0261L107.653 78.4006L105.214 79.2133L97.9 80.0261L93.8364 80.8389L89.7728 80.0261L84.0838 80.8389L83.2711 80.0261L80.0202 80.8389L79.2075 78.4006L75.1439 76.775L70.2677 75.9623L62.1405 78.4006L59.7024 76.775L54.0134 75.1495V73.5239L54.8261 67.8345L53.2006 63.7707L50.7625 61.3324L48.3243 62.1451H45.8862L45.0735 59.7068L41.8226 60.5196L40.1972 59.7068L39.3845 61.3324L36.9463 58.894V62.9579L35.3209 64.5834V67.8345L36.1336 69.4601L34.5082 71.0856L35.3209 74.3367H33.6955L28.8192 88.1538L28.0065 90.5922L28.8192 92.2177L28.0065 93.8433L27.1938 95.4688V97.0943L25.5683 98.7199L23.9429 106.035L22.3175 110.099L23.1302 111.724L21.5047 112.537L19.0666 116.601H20.692V119.039L19.0666 118.226L17.4412 120.665L16.6285 119.039L14.1903 124.729L11.7522 129.605L12.5649 132.856L11.7522 137.733L10.9395 142.61V145.861L12.5649 149.112L84.0838 163.742L135.285 171.869Z" fill="white" stroke="#1B2126" stroke-width="3" stroke-linecap="round" stroke-linejoin="round"/>
<path fill-rule="evenodd" clip-rule="evenodd" d="M375.036 306.79C375.036 306.79 425.126 308.15 450.171 308.018C476.327 307.879 528.639 305.977 528.639 305.977L529.452 318.169L533.516 341.739L535.141 382.378L530.265 381.565L527.827 379.939L525.388 377.501L522.95 376.688L520.512 375.875L517.261 377.501L514.01 376.688L509.134 378.314H507.509L503.445 379.127L502.632 381.565H501.007L498.569 380.752L496.131 379.939L494.505 378.314L492.067 379.127L488.004 376.688L484.753 382.378L483.127 378.314L479.876 379.939L477.438 378.314H475.813L475 375.875L470.124 379.939L468.498 376.688L466.06 375.875V373.437H461.184L458.746 375.063L456.308 372.624L453.869 373.437L448.993 371.812H444.93V369.373L441.679 366.122L440.866 367.748H439.241L436.802 368.561L434.364 366.122L431.926 363.684H429.488V319.794L375.036 318.981V306.79Z" fill="white" stroke="#1B2126" stroke-width="3" stroke-linecap="round" stroke-linejoin="round"/>
<path fill-rule="evenodd" clip-rule="evenodd" d="M694.434 183.249L701.748 241.768L703.373 240.143L705.812 241.768L707.437 240.143L709.062 241.768H710.688L713.126 246.645L715.564 247.458L719.628 246.645L722.066 249.083L723.691 249.896L725.317 247.458H728.568L730.193 249.083L731.006 248.27H733.444L734.257 246.645L737.507 244.207L739.133 248.27L742.384 249.083L744.009 251.522L745.635 250.709L748.885 249.083V246.645L750.511 245.832L749.698 241.768V240.143L750.511 237.704L752.136 236.079L753.762 236.892V238.517H754.575L756.2 236.892V235.266L755.387 234.453L756.2 232.828L757.013 229.577L758.638 228.764V227.138L761.076 225.513L762.702 227.138L765.953 223.887V221.449L770.016 219.011V215.76L770.829 210.883V206.819L771.642 203.568L770.829 201.13L771.642 198.691L769.203 197.066L771.642 195.44L766.765 165.368L753.762 173.495L748.073 179.998L745.635 180.81H742.384L739.133 182.436L736.695 183.249L735.882 184.874L731.006 184.061H729.38L727.755 184.874L725.317 184.061L730.193 181.623H728.568L726.942 182.436L722.879 180.81L718.815 179.998L717.19 179.185L694.434 183.249Z" fill="white" stroke="#1B2126" stroke-width="3" stroke-linecap="round" stroke-linejoin="round"/>
<path fill-rule="evenodd" clip-rule="evenodd" d="M426.237 106.848C405.255 106.848 363.658 106.035 363.658 106.035L365.284 39.3877C365.284 39.3877 395.895 40.4289 411.201 40.5432C432.196 40.6999 474.187 40.2005 474.187 40.2005L476.626 46.7026L475.813 49.141V58.0815L480.689 69.4603L481.502 73.5241V80.0263L482.315 84.0902V85.7157L483.127 91.4051L483.94 94.6562L486.378 97.9073L487.191 106.035C487.191 106.035 446.432 106.848 426.237 106.848Z" fill="white" stroke="#1B2126" stroke-width="3" stroke-linecap="round" stroke-linejoin="round"/>
<path fill-rule="evenodd" clip-rule="evenodd" d="M766.764 289.721L869.166 271.027L872.417 274.278L875.668 279.155L871.605 275.904L872.417 278.342L868.354 275.904L866.728 276.717L870.792 279.155L869.166 279.968L865.916 279.155L868.354 281.593L863.477 279.155V280.781L865.916 282.406L863.477 284.032H860.227L859.414 280.781V277.53H857.788V282.406L859.414 284.844V287.283L863.477 286.47L865.103 284.844L866.728 286.47L869.166 285.657L870.792 283.219L872.417 285.657L871.605 288.096L873.23 288.908L871.605 290.534H874.043L874.855 287.283L874.043 284.844H876.481L877.294 283.219L878.919 286.47V288.908V291.347L877.294 290.534L876.481 291.347L874.855 296.223L873.23 297.849H869.979L868.354 296.223L866.728 297.849L865.916 296.223L867.541 294.598L862.665 295.411L864.29 297.849H859.414L856.163 297.036L857.788 299.474L862.665 300.287H867.541V301.913L864.29 303.538L866.728 304.351L864.29 307.602H861.852L856.976 305.164L860.227 309.228L863.477 310.04H865.103L866.728 307.602L868.354 309.228L872.417 306.789L869.166 313.292L866.728 311.666L864.29 313.292L860.227 315.73L857.788 314.104V316.543L855.35 319.794L854.538 316.543H852.912L853.725 318.168L852.912 318.981L854.538 320.606L851.287 323.045L848.849 327.109L847.223 331.172V333.611L845.598 330.36V337.675H839.909H839.096L837.471 339.3L835.032 340.113L811.464 323.045L790.333 326.296L789.52 323.045L786.269 320.606L784.644 322.232L783.831 319.794L759.45 323.045L753.761 325.483L752.948 327.109H752.135L746.446 329.547L723.69 332.798V327.109L724.503 326.296L727.754 327.109L728.567 322.232L733.443 318.168H737.507L743.196 311.666H746.446L747.259 307.602H748.885L749.697 305.164L752.135 304.351L752.948 305.977H754.574L756.199 301.913L760.263 301.1L761.888 301.913L764.326 296.223L765.952 294.598H766.764V289.721Z" fill="white" stroke="#1B2126" stroke-width="3" stroke-linecap="round" stroke-linejoin="round"/>
<path fill-rule="evenodd" clip-rule="evenodd" d="M135.903 172.308C152.764 174.871 186.486 179.184 186.486 179.184L170.232 308.415L169.419 310.041L167.794 313.292H165.356L164.543 310.041L162.918 310.854L160.479 309.228L157.229 310.854L156.416 314.105L157.229 316.543L156.416 318.168L157.229 322.232L156.416 324.671L157.229 328.734V331.986L155.603 332.798V336.049L71.8936 229.576L84.0843 163.742C84.0843 163.742 118.901 169.723 135.903 172.308Z" fill="#009400" stroke="#1B2126" stroke-width="3" stroke-linecap="round" stroke-linejoin="round"/>
<path fill-rule="evenodd" clip-rule="evenodd" d="M778.955 157.24L779.768 162.929L853.725 147.486L856.163 148.299L856.976 149.925L858.601 149.112L861.039 150.738V154.801L862.665 157.24H867.541L869.166 158.865L883.795 163.742V162.929L882.983 160.491L881.357 158.865V156.427H882.17L882.983 158.052L883.795 159.678L884.608 160.491L885.421 166.993L887.859 164.555L888.672 162.929L887.046 160.491L890.297 156.427L888.672 154.801L886.233 138.546H885.421L886.233 122.29L885.421 121.478L882.17 106.848V105.222L880.544 103.597L879.732 104.409L878.919 105.222V103.597V100.346L878.106 99.5329V98.7201L877.294 97.9073L876.481 95.469H875.668V91.4051L876.481 89.7796L874.855 87.3413L874.043 84.0902L873.23 82.4646V80.0263V78.4008L872.417 77.588V74.3369L849.661 80.0263H847.223L843.16 83.2774L841.534 85.7157L836.658 92.2179L835.845 93.8434V96.2818L833.407 98.7201L827.718 104.409L828.531 105.222H830.969H832.594L833.407 106.035L832.594 107.661L830.969 110.099H830.156L831.782 111.724V113.35L833.407 114.163L832.594 114.976V116.601L830.969 117.414H829.343L826.093 121.478L825.28 123.103L822.029 124.729L821.216 125.542H818.778H816.34L814.715 126.354L811.464 127.98H809.838L808.213 126.354L800.898 127.167L799.273 127.98H796.022L786.27 132.044L787.082 133.669V135.295V136.108H790.333V137.733L789.52 139.359L791.146 140.984V142.61L789.52 145.048L787.895 148.299L784.644 150.738L783.019 153.176L778.955 157.24ZM882.983 171.87L882.17 172.682L881.357 175.121L882.983 174.308L883.795 172.682L882.983 171.87ZM884.608 171.057V171.87L885.421 172.682L886.233 171.87L887.046 171.057L887.859 170.244L889.484 171.057L890.297 170.244L896.799 166.993H899.237V165.367H900.862L904.113 162.929L908.177 162.116L908.989 160.491L908.177 159.678L907.364 160.491L906.551 159.678L909.802 155.614L908.989 154.801L905.739 158.865L904.926 159.678L900.862 160.491H899.237L898.424 161.304H897.611V162.116L894.361 162.929L893.548 163.742L891.922 162.929V164.555L891.11 163.742L890.297 164.555V166.18L888.672 166.993L887.859 167.806H886.233L885.421 168.618L884.608 171.057ZM909.802 158.865V159.678H910.615L913.053 158.052L913.866 156.427H915.491L917.929 153.989L914.678 155.614H913.866H913.053L911.428 156.427L910.615 157.24L909.802 158.865Z" fill="white" stroke="#1B2126" stroke-width="3" stroke-linecap="round" stroke-linejoin="round"/>
<path fill-rule="evenodd" clip-rule="evenodd" d="M263.693 301.1C263.693 301.1 293.149 303.633 307.878 304.493C330.263 305.8 375.035 307.602 375.035 307.602V318.981H373.41L370.159 422.203L301.078 418.952V421.39L303.516 423.829L270.195 421.39L269.382 431.956L253.128 430.331L263.693 301.1Z" fill="white" stroke="#1B2126" stroke-width="3" stroke-linecap="round" stroke-linejoin="round"/>
<path fill-rule="evenodd" clip-rule="evenodd" d="M869.168 158.864L883.796 163.741L884.609 164.554L883.796 167.805V170.243L882.171 171.056L881.358 172.681L880.546 175.12L881.358 176.745L884.609 177.558H886.235L887.047 181.622L886.235 185.686V188.124V190.562L885.422 191.375L886.235 193.001L885.422 196.252L884.609 197.065H882.984L884.609 199.503H882.984V201.128L883.796 201.941H882.171L881.358 203.567L879.733 204.38L881.358 205.192L879.733 208.443V209.256L878.92 210.069V211.694L877.295 213.32V211.694V207.631H875.669H874.044L872.418 208.443L871.606 206.818H869.168L868.355 205.192H866.729L864.291 203.567V201.128L863.479 200.316L864.291 197.877V196.252H865.104L866.729 193.813L868.355 192.188V190.562L874.044 185.686V184.06L869.168 180.809H867.542L866.729 177.558L864.291 178.371L863.479 175.12L864.291 172.681L865.104 171.056L863.479 169.43V167.805L865.104 166.179L866.729 162.928V161.303L869.168 158.864Z" fill="white" stroke="#1B2126" stroke-width="3" stroke-linecap="round" stroke-linejoin="round"/>
<path fill-rule="evenodd" clip-rule="evenodd" d="M900.05 119.852L917.117 115.788L919.555 114.975L921.18 111.724H921.993L922.806 110.099L924.431 109.286H926.057V106.848L926.87 105.222L923.619 103.597V101.158L920.368 99.5327V97.0943L918.742 93.0305L907.364 58.894L906.552 60.5196L904.113 59.7068L903.301 60.5196V62.1451L902.488 64.5834V67.0218L903.301 68.6473L901.675 71.8984L904.113 75.1495L903.301 75.9623V77.5878L900.863 81.6517L900.05 82.4644H898.424L897.612 84.09L898.424 86.5283V92.2177L897.612 93.0305V96.2816L896.799 97.9071V100.345L895.986 101.158L896.799 106.035L897.612 106.848L896.799 110.099L897.612 111.724V114.163L896.799 114.975V117.414L900.05 119.852Z" fill="white" stroke="#1B2126" stroke-width="3" stroke-linecap="round" stroke-linejoin="round"/>
<path fill-rule="evenodd" clip-rule="evenodd" d="M394.541 216.572V240.143C394.541 240.143 426.944 240.512 443.145 240.29C466.496 239.97 513.198 238.517 513.198 238.517L511.572 236.892V235.266L509.947 232.828L507.509 231.202L505.883 227.138L504.258 226.326V223.075L502.633 221.449V218.198V211.696L501.007 210.07L502.633 209.257L500.194 207.632V205.194L497.756 202.755L498.569 197.879L496.944 196.253V193.815L495.318 193.002L494.505 190.564L492.88 189.751V186.5L492.067 182.436H488.816L487.191 179.998V178.372H484.753L483.94 177.559L481.502 176.747H479.064L476.626 174.308L472.562 175.121H470.937H466.873L465.248 176.747H462.81L456.308 172.683C456.308 172.683 416.473 172.814 396.556 172.474C384.777 172.273 361.22 171.057 361.22 171.057L359.595 216.572H394.541Z" fill="white" stroke="#1B2126" stroke-width="3" stroke-linecap="round" stroke-linejoin="round"/>
<path fill-rule="evenodd" clip-rule="evenodd" d="M302.203 124.021C321.333 125.34 362.846 126.354 362.846 126.354L365.284 39.3871C365.284 39.3871 335.339 38.3511 303.557 36.0903C284.552 34.7383 264.889 32.4261 250.581 31.0865C225.153 28.7058 174.296 22.3188 174.296 22.3188L171.045 42.6382L174.296 47.5148L175.921 51.5786L175.108 53.2042L175.921 55.6425H175.108L178.359 59.7064L180.798 61.3319L186.487 68.6469L185.674 70.2724L188.925 73.5235H190.55V75.9618H195.426L192.176 85.7151L190.55 86.5279L191.363 93.03L188.925 93.8428V98.7194L192.176 101.971L198.677 97.0939L200.303 100.345L201.928 106.847L205.179 113.349L204.366 116.6L206.804 119.039H209.243L210.868 125.541L214.119 128.792L215.744 126.354L221.433 127.979L223.059 125.541L230.373 126.354L231.186 127.166H236.062L237.688 123.915H239.313L243.377 129.605L244.189 128.792L245.002 118.226C245.002 118.226 282.052 122.631 302.203 124.021Z" fill="white" stroke="#1B2126" stroke-width="3" stroke-linecap="round" stroke-linejoin="round"/>
<path fill-rule="evenodd" clip-rule="evenodd" d="M533.487 223.851C523.744 224.405 504.258 224.7 504.258 224.7V226.325L505.883 227.138L507.509 231.202L509.947 232.827L511.572 235.266V236.891L513.198 238.517L517.261 240.955L518.887 240.142L520.512 240.955L521.325 243.393L519.699 244.206L518.887 245.832L517.261 248.27L518.887 249.896L521.325 251.521V253.147L522.95 255.585H525.388L527.014 256.398L528.639 305.977L529.452 317.356L611.536 311.666L613.974 314.105V315.73L609.911 321.42L609.098 322.232V323.045V323.858L620.476 322.232L621.289 319.794L622.914 318.981L621.289 316.543H622.914L622.101 314.105H623.727L622.914 310.853V309.228L624.54 310.853L625.352 310.041L626.165 307.602V306.79L628.603 308.415L629.416 305.977L630.229 303.539L629.416 301.913L630.229 298.662H628.603L626.978 297.036V298.662L624.54 297.849V296.224L622.101 292.972V292.16L622.914 289.721V288.909L621.289 287.283V284.032L618.038 282.406L616.412 279.968H615.6L612.349 278.343L610.723 277.53L604.222 272.653V269.402L606.66 262.9V260.462L607.473 258.836L605.034 256.398H601.784L599.345 258.836L597.72 257.21L596.095 253.147V250.708L594.469 248.27L589.593 245.832L588.78 244.206L583.904 240.142L583.091 238.517L582.278 236.891L581.466 235.266L579.84 230.389L580.653 227.138L581.466 225.512L575.777 220.636C575.777 220.636 547.584 223.051 533.487 223.851Z" fill="white" stroke="#1B2126" stroke-width="3" stroke-linecap="round" stroke-linejoin="round"/>
<path fill-rule="evenodd" clip-rule="evenodd" d="M651.36 341.739L652.173 343.364L653.798 344.177V400.258V414.076L658.674 446.586L657.862 449.025L654.611 447.399L653.798 448.212H651.36L648.109 446.586L644.858 449.025L642.42 450.65L639.982 449.025V450.65L639.169 453.089L635.106 453.901V452.276L633.48 448.212L631.042 445.774L630.229 443.335L631.042 437.646V436.02L594.47 439.271V436.02L593.657 432.769H595.283L596.095 431.144L595.283 427.893L596.908 425.454L598.534 419.765L603.41 415.701L602.597 412.45H603.41L605.035 407.573L601.784 405.135V402.697L600.159 400.258L601.784 399.446L600.972 398.633L600.159 397.007L601.784 394.569L599.346 392.943V390.505L600.972 388.88L599.346 386.441V382.377L597.721 380.752L599.346 379.126L597.721 377.501L600.159 374.25L599.346 370.186L602.597 368.56L603.41 367.747L601.784 366.122L605.035 362.871V361.245L607.473 359.62V352.305H609.912V349.866L612.35 348.241V345.803L651.36 341.739Z" fill="white" stroke="#1B2126" stroke-width="3" stroke-linecap="round" stroke-linejoin="round"/>
<path fill-rule="evenodd" clip-rule="evenodd" d="M579.027 155.614L490.441 160.491L489.628 120.665L488.003 118.227L484.752 117.414L482.314 112.537L484.752 110.912L486.377 108.473L487.19 106.035L486.377 97.9074L483.939 94.6563L483.126 91.4052L482.314 85.7158V84.0902L481.501 80.0264V73.5242L480.688 68.6476L475.812 58.0815V49.141L476.625 46.7027L474.187 40.2005L507.508 38.575V30.4473L510.759 31.26L512.384 33.6984L514.01 38.575V41.8261L516.448 44.2644H521.324L522.137 45.0772L528.638 45.8899L529.451 48.3283L531.889 47.5155H535.14L535.953 45.8899L538.391 45.0772H543.267L544.893 45.8899H548.144V47.5155H546.518L547.331 48.3283H550.582L551.394 51.5793L553.02 52.3921L553.833 53.2049L554.645 49.9538H557.896L558.709 52.3921H560.334H562.772L563.585 54.8304H565.211L566.023 56.456L570.087 54.8304L571.712 54.0177L576.589 50.7666L579.027 54.0177L582.278 53.2049L589.592 52.3921L592.03 54.8304L593.656 54.0177H596.906L591.217 58.0815L582.278 61.3326L576.589 66.2092L570.087 73.5242L563.585 80.0264L559.522 82.4647L558.709 84.903L557.896 86.5286H556.271L557.083 94.6563V99.5329L554.645 101.158L550.582 103.597L549.769 106.035L548.144 108.473V110.912L550.582 111.724L552.207 114.163L551.394 117.414L550.582 119.852L551.394 121.478L550.582 122.291L551.394 123.916L550.582 128.793L554.645 132.044H557.896L560.334 134.482L563.585 135.295L566.836 138.546L569.274 141.797L571.712 143.423H574.963L578.214 146.674L579.027 149.112V155.614Z" fill="white" stroke="#1B2126" stroke-width="3" stroke-linecap="round" stroke-linejoin="round"/>
<path fill-rule="evenodd" clip-rule="evenodd" d="M659.486 186.499L694.433 181.622V183.248L717.189 179.184V176.746L720.44 172.682V166.992L722.065 163.741L724.503 162.928L723.69 159.677L726.129 158.052L725.316 156.426L726.941 155.614L729.379 158.052L731.005 148.299L727.754 144.235L725.316 136.107L722.878 129.605L721.252 126.354H718.001L714.751 128.792H713.125L710.687 135.294H709.062L708.249 137.733H705.811L701.747 136.92L702.56 130.418L705.811 128.792L707.436 127.167V123.915L709.062 122.29L710.687 120.664L709.874 111.724L708.249 108.473L705.811 106.847L706.623 104.409L709.062 105.222L707.436 102.783H705.811V99.5323H702.56L700.122 98.7195L697.684 97.9067H692.807L691.995 95.4684L689.556 94.6556H687.118L682.242 93.0301L679.804 94.6556L677.366 97.0939V99.5323L678.178 100.345L681.429 101.158L680.617 101.971L675.74 103.596L673.302 105.222L674.115 109.286V114.162L672.489 117.413L670.864 116.6L670.051 114.975V110.911V107.66L667.613 112.537L666.8 114.162H665.175L662.737 115.788L663.549 118.226L660.299 119.852L661.924 122.29V127.979L660.299 131.23L657.86 134.481L660.299 137.733V140.171L658.673 143.422L660.299 147.486L662.737 150.737L663.549 151.55H665.175L664.362 153.988L665.988 158.052L666.8 160.49V171.056L664.362 176.746L662.737 180.809L661.924 184.873L659.486 186.499ZM636.73 114.162L641.606 102.783L644.044 98.7195L644.857 93.8429L646.482 96.2812V98.7195L648.921 95.4684L652.172 93.8429L652.984 97.094L650.546 99.5323L651.359 100.345L655.422 95.4684L657.048 93.0301L660.299 91.4046L662.737 92.2173L666.8 90.5918L668.426 88.1535L674.115 87.3407L678.991 88.9662L681.429 91.4046L683.055 86.5279H687.118L693.62 87.3407L696.058 86.5279H698.496H701.747V84.9024L700.122 83.2768L698.496 85.7151H695.245L692.807 84.0896L691.182 83.2768L689.556 82.4641V80.8385L690.369 78.4002L689.556 75.1491L687.118 76.7746L683.867 78.4002H682.242L681.429 77.5874L678.991 78.4002L674.928 77.5874V71.898L671.677 72.7108L666.8 75.9619L661.111 75.1491L656.235 76.7746L651.359 80.8385L649.733 82.4641L647.295 81.6513L645.67 83.2768L643.232 80.8385L639.168 83.2768L636.73 82.4641L631.854 75.9619L626.977 75.1491L623.726 75.9619L618.85 79.213L618.037 73.5236L621.288 69.4597L625.352 65.3958L624.539 64.5831L629.415 62.9575H626.977L622.101 63.7703L617.225 67.0214L615.599 69.4597L613.161 70.2725L611.536 72.7108L609.91 75.1491H607.472L604.221 78.4002L596.907 80.0257L595.281 82.4641L592.843 84.0896L587.154 86.5279L590.405 87.3407L592.843 90.5918L612.348 94.6556L615.599 96.2812L619.663 95.4684L624.539 96.2812L626.977 97.094V99.5323H629.415L631.854 101.158L633.479 105.222L631.854 108.473H632.666L635.104 107.66H635.917L634.292 112.537L636.73 114.162Z" fill="white" stroke="#1B2126" stroke-width="3" stroke-linecap="round" stroke-linejoin="round"/>
<path fill-rule="evenodd" clip-rule="evenodd" d="M885.421 138.545H886.234L896.799 136.107L897.612 136.92L914.679 132.043V132.856L921.18 130.418L921.993 132.856H922.806H923.619V135.294L926.057 136.107L926.869 133.669H927.682V135.294L926.869 136.92L927.682 140.171L928.495 140.984L929.308 139.358L930.12 138.545L930.933 139.358L931.746 137.733V136.107H932.558L934.184 134.482V132.856H935.809L936.622 134.482V136.92H938.247L939.06 135.294L939.873 134.482L942.311 133.669L947.187 131.23V128.792L946.375 127.979L945.562 126.354L943.936 123.916H943.124L943.936 125.541C943.936 125.541 945.813 127.315 946.345 128.201C946.626 128.669 946.375 129.605 946.375 129.605L943.936 130.418L943.124 131.23L942.311 132.043H940.686H937.435L936.622 130.418V127.979L934.997 128.792L932.558 127.979L933.371 125.541L930.12 122.29L928.495 123.103L927.682 123.916L926.057 123.103L925.244 122.29V120.664L926.057 119.852V119.039L927.682 118.226L926.869 117.413V115.788L930.12 114.975L930.933 113.35L929.308 114.162L927.682 113.35L926.869 112.537V110.911H925.244L926.057 109.286H924.431L922.806 110.098C922.806 110.098 922.264 111.182 921.993 111.724H921.18L919.555 114.975L917.117 115.788L900.05 119.852L886.234 122.29L885.421 138.545ZM935.809 140.984V142.609L937.435 140.984L940.686 140.171L938.247 138.545L937.435 140.171L935.809 140.984ZM926.057 137.733L925.244 139.358L926.057 141.797L926.869 140.984L926.057 137.733Z" fill="white" stroke="#1B2126" stroke-width="3" stroke-linecap="round" stroke-linejoin="round"/>
<path fill-rule="evenodd" clip-rule="evenodd" d="M793.585 212.508L796.023 223.887L799.274 220.636L800.899 218.198L801.712 216.572H804.15L806.588 214.134V211.695L808.214 214.134H810.652L812.277 213.321L813.09 210.883H815.528L816.341 209.257L817.154 208.444L820.405 210.07L823.655 209.257L822.843 210.883H823.655L824.468 212.508L826.094 213.321V214.947H829.344L831.783 215.759L830.97 218.198L832.595 219.823H835.846L836.659 221.449H839.097L839.91 219.823L842.348 222.262L841.535 223.887V225.513L840.722 227.138V228.764L839.097 231.202V233.64H840.722V231.202L842.348 232.015L843.161 231.202L844.786 233.64L846.411 234.453L845.599 232.015L847.224 233.64L848.037 235.266L850.475 234.453L852.1 235.266L852.913 236.079L854.539 235.266L856.164 237.704L856.977 236.079L854.539 233.64H853.726L851.288 232.015L849.662 231.202L848.037 228.764V225.513L849.662 228.764L851.288 230.389L854.539 232.015V231.202L851.288 227.951V225.513L849.662 223.887V222.262V219.823L848.037 219.01L849.662 218.198L847.224 217.385L849.662 214.947L846.411 212.508L848.037 211.695L848.85 212.508V210.883L850.475 209.257L849.662 208.444L851.288 207.632L852.1 209.257V206.006L852.913 207.632L854.539 206.819L853.726 205.193L854.539 203.568L856.164 201.942L856.977 204.381L858.602 202.755V204.381L856.977 206.006L859.415 206.819L858.602 207.632L855.351 208.444L853.726 210.883V214.134L855.351 213.321H856.164L855.351 216.572L854.539 217.385H852.913V219.01L856.164 217.385L856.977 219.01L856.164 220.636H857.789L856.977 222.262L856.164 223.074L858.602 224.7L860.228 223.887L861.04 225.513L856.164 226.325L856.977 227.951L856.164 229.576L859.415 230.389L861.04 232.828V230.389H862.666L864.291 227.951V230.389V232.015H865.104L864.291 233.64H865.917L866.729 235.266L865.917 237.704L869.98 236.891L874.044 235.266V232.828L875.669 232.015L874.856 229.576L877.295 228.764V227.138L875.669 224.7L865.917 227.138L858.602 199.504L793.585 212.508Z" fill="white" stroke="#1B2126" stroke-width="3" stroke-linecap="round" stroke-linejoin="round"/>
<path fill-rule="evenodd" clip-rule="evenodd" d="M923.619 5.25109L916.304 23.9449L917.117 29.6343L915.491 32.0726V33.6981L914.679 36.1364L916.304 36.9492L915.491 37.762V41.0131H917.117L915.491 44.2642V46.7025L913.053 49.9536L912.241 52.3919L913.866 54.0174L913.053 55.643L911.428 54.8302V55.643V58.8941L908.99 56.4557L907.364 58.8941L920.368 97.0944V99.5327L923.619 101.158V103.597L926.869 105.222L927.682 101.158L926.869 97.9071L929.308 96.2816L930.12 95.4688L929.308 92.2177L931.746 91.405L930.12 88.1539L933.371 84.09H934.997V86.5283L935.809 84.9028L937.435 86.5283L938.247 84.9028L934.184 80.0261L938.247 83.2772V79.2134L940.686 83.2772L942.311 77.5878L944.749 79.2134L946.375 77.5878L947.187 74.3367L946.375 68.6473L947.187 67.0218L948.813 64.5835L949.625 66.209L951.251 68.6473H953.689L954.502 65.3962L956.94 66.209L958.565 67.8346L960.191 62.9579L958.565 61.3324L961.816 62.9579L964.254 61.3324L966.692 56.4557H968.318L971.569 54.8302L975.632 51.5791L976.445 48.328L974.007 49.1408V45.8897L970.756 43.4514L969.131 44.2642L965.88 42.6386L965.067 41.0131L964.254 38.5748L965.067 36.1364L963.442 35.3237H959.378L957.753 34.5109L956.94 29.6343L948.813 6.06386L944.749 4.43832L942.311 2L939.06 2.81277L937.435 5.25109L934.184 6.87663L930.933 8.50218L928.495 7.68941L927.682 4.43832L923.619 5.25109Z" fill="white" stroke="#1B2126" stroke-width="3" stroke-linecap="round" stroke-linejoin="round"/>
<path fill-rule="evenodd" clip-rule="evenodd" d="M544.894 396.194L599.345 392.943L601.784 394.569L600.158 397.007L600.971 398.633L601.784 399.446L600.158 400.258L601.784 402.697V405.135L605.034 407.573L603.409 412.45H602.596L603.409 415.701L598.533 419.765L596.907 425.454L595.282 427.893L596.095 431.144L595.282 432.769H593.656L594.469 436.02V439.271L631.041 436.02V437.646L630.229 443.335L631.041 445.774L633.479 448.212L635.105 453.089V453.901H632.667L628.603 453.089L626.165 450.65H622.914L618.851 455.527L619.663 457.965L622.914 458.778L626.165 459.591L631.041 456.34H634.292L633.479 457.965L631.041 458.778L631.854 460.403H633.479L635.105 462.029L636.73 460.403L638.356 457.152L639.981 460.403L640.794 462.029H638.356L636.73 465.28L634.292 464.467L635.105 466.906L633.479 467.718L639.169 471.782L645.67 473.408L648.921 477.472L646.483 479.91L644.045 477.472L643.232 478.284L640.794 475.846L637.543 475.033L636.73 473.408L634.292 474.221L631.854 470.97L626.978 469.344H624.54L625.352 470.97L627.79 472.595V475.033V477.472L626.165 479.91L624.54 478.284V476.659L621.289 475.033L618.851 475.846L617.225 476.659L616.412 479.91L610.723 479.097H608.285L604.222 478.284V476.659L607.473 477.472L606.66 475.846L604.222 473.408L605.034 470.97L604.222 470.157L602.596 472.595L599.345 471.782L598.533 470.97L597.72 469.344L596.907 470.157L596.095 467.718L592.031 468.531V466.093H589.593L586.342 467.718L584.717 468.531L587.155 470.97L583.904 473.408H575.777L568.462 469.344L563.586 468.531L560.335 469.344L553.833 470.97H552.208L551.395 469.344L553.833 468.531V466.093V464.467V462.842L554.646 459.591L553.021 456.34L553.833 454.714V452.276L555.459 449.025L556.272 446.586V441.71L557.084 440.897L556.272 440.084V437.646L553.833 435.208V432.769L552.208 431.144V430.331L550.583 428.705V425.454L548.144 422.203L545.706 419.765L544.894 396.194Z" fill="white" stroke="#1B2126" stroke-width="3" stroke-linecap="round" stroke-linejoin="round"/>
<path fill-rule="evenodd" clip-rule="evenodd" d="M625.352 310.041L650.546 307.602V305.977L649.733 303.538H654.609L729.379 296.223L731.005 294.598L739.944 289.721L740.757 287.283L744.821 285.657V284.032L746.446 282.406V279.968L752.135 276.717L757.824 269.402V268.589H755.386L751.322 266.151L748.072 262.087L747.259 260.461L744.008 257.21L744.821 253.959L744.008 251.521L742.383 249.083L739.132 248.27L737.506 244.206L734.255 246.644L733.443 248.27H731.005L730.192 249.083L728.566 247.457H725.316L723.69 249.895L722.065 249.083L719.627 246.644L715.563 247.457L713.125 246.644L712.312 245.019L710.687 241.768H709.061L707.436 240.142L705.81 241.768L703.372 240.142L700.934 242.58L701.747 244.206V245.831L703.372 246.644V249.083H700.934L696.87 251.521L695.245 250.708L691.994 251.521L692.807 255.585L691.181 258.023H689.556V261.274L687.931 262.087H686.305L685.492 265.338V268.589L683.054 270.215L680.616 268.589L678.178 267.776L677.365 266.151L675.74 268.589L674.114 271.84L673.302 274.279L671.676 273.466L669.238 271.84L666.8 272.653L665.987 273.466L664.362 276.717L662.736 275.091L658.673 273.466L656.235 275.091L655.422 273.466V275.904L654.609 276.717L653.797 275.091L652.171 275.904L649.733 275.091V278.342H647.295L646.482 279.968L645.669 282.406L647.295 284.032V285.657L640.793 288.096L639.98 290.534L641.606 292.972L642.419 294.598L640.793 295.411H639.98L634.291 292.972H631.853L630.228 294.598L628.602 297.036L629.415 297.849L628.602 298.662H630.228L629.415 301.913L630.228 303.538L628.602 308.415L626.164 306.789V307.602L625.352 310.041Z" fill="white" stroke="#1B2126" stroke-width="3" stroke-linecap="round" stroke-linejoin="round"/>
<path fill-rule="evenodd" clip-rule="evenodd" d="M457.368 240.095C436.426 240.382 394.541 240.143 394.541 240.143L392.916 307.603C392.916 307.603 436.894 308.702 458.883 308.438C482.135 308.16 528.639 305.977 528.639 305.977L527.014 256.398L525.389 255.585H522.95L521.325 253.147V251.521L518.887 249.896L517.261 248.27L518.887 245.832L519.7 244.206L521.325 243.394L520.512 240.955L518.887 240.143L517.261 240.955L513.198 238.517C513.198 238.517 475.978 239.84 457.368 240.095Z" fill="white" stroke="#1B2126" stroke-width="3" stroke-linecap="round" stroke-linejoin="round"/>
<path fill-rule="evenodd" clip-rule="evenodd" d="M504.258 224.699C504.258 224.699 527.549 224.189 539.195 223.527C551.389 222.834 575.777 220.636 575.777 220.636L581.466 225.512L582.279 224.699L581.466 221.448L586.342 218.197V214.946L589.593 211.695L588.781 209.257L585.53 206.006L587.155 201.129L593.657 199.503L598.533 196.252V193.001L600.971 190.563L600.159 184.061L595.282 182.435V179.997L591.219 176.746L589.593 172.682H584.717L582.279 167.805L581.466 162.116L583.092 159.678L580.653 158.052L579.841 155.614L488.004 160.49V162.116L489.629 163.741L488.817 166.18L490.442 167.805L489.629 174.308L488.004 176.746L490.442 182.435H492.067L492.88 186.499V189.75L494.506 190.563L495.318 193.001L496.944 193.814V196.252L498.569 197.878L497.756 202.755L500.195 205.193V207.631L502.633 209.257L501.007 210.07L502.633 211.695V221.448L504.258 223.074V224.699Z" fill="white" stroke="#1B2126" stroke-width="3" stroke-linecap="round" stroke-linejoin="round"/>
<path fill-rule="evenodd" clip-rule="evenodd" d="M647.296 188.938L649.734 190.563H652.172L659.487 186.499L694.434 181.623V183.248L701.748 241.768L700.935 242.58L701.748 244.206V245.832L703.373 246.644V249.083H700.935L696.872 251.521L695.246 250.708L691.995 251.521L692.808 255.585L691.183 258.023H689.557V261.274L687.932 262.087H686.306L685.494 265.338V268.589L683.056 270.215L680.617 268.589L678.179 267.776L677.367 266.151L675.741 268.589L674.928 270.215L674.116 271.84L673.303 274.279L671.678 273.466L669.239 271.84L666.801 272.653L665.989 273.466L664.363 276.717L662.738 275.091L658.674 273.466L656.236 275.091L655.423 273.466V275.904L654.611 276.717L653.798 275.091L652.172 275.904L649.734 275.091V276.717V278.342H647.296L646.483 275.904L647.296 275.091V271.84L648.922 270.215L647.296 268.589L648.109 266.964L649.734 266.151L651.36 262.9L652.985 261.274V258.836L654.611 256.398V254.772L653.798 252.334V250.708L652.172 248.27L650.547 246.644L652.172 245.832L651.36 243.393L652.985 241.768L647.296 188.938Z" fill="white" stroke="#1B2126" stroke-width="3" stroke-linecap="round" stroke-linejoin="round"/>
<path fill-rule="evenodd" clip-rule="evenodd" d="M639.981 171.87L591.218 176.746L595.281 179.997V182.436L600.158 184.061L600.97 190.563L598.532 193.002V196.253L593.656 199.504L587.154 201.129L585.529 206.006L588.78 209.257L589.592 211.695L586.342 214.947V218.198L581.465 221.449L582.278 224.7L581.465 225.513L580.653 227.138L579.84 230.389L581.465 235.266L583.903 240.143L588.78 244.206L589.592 245.832L594.469 248.27L596.094 250.709V253.147L597.72 257.211L599.345 258.836L601.783 256.398H605.034L607.472 258.836L606.659 259.649V262.9L604.221 269.402V272.653L610.723 277.53L615.599 279.968H616.412L618.037 282.407L621.288 284.032V287.283L622.914 288.909V289.722L622.101 292.16V292.973L624.539 296.224V297.849L626.977 298.662V297.037L628.603 298.662L629.415 297.849L628.603 297.037L630.228 294.598L631.854 292.973H634.292L639.981 295.411H640.793L642.419 294.598L641.606 292.973L639.981 290.534L640.793 288.096L643.232 287.283L647.295 285.658V284.032L645.67 282.407L646.482 279.968L647.295 278.343L646.482 275.904L647.295 275.092V271.841L648.921 270.215L647.295 268.59L648.108 266.964L649.733 266.151L651.359 262.9L652.984 261.275V258.836L654.61 256.398V254.772L653.797 252.334V250.709L652.171 248.27L650.546 246.645L652.171 245.832L651.359 243.394L652.984 241.768L647.295 188.938L644.857 186.5L644.044 184.061V181.623L641.606 179.997L640.793 177.559L639.981 176.746V171.87Z" fill="white" stroke="#1B2126" stroke-width="3" stroke-linecap="round" stroke-linejoin="round"/>
<path fill-rule="evenodd" clip-rule="evenodd" d="M238.501 185.686L243.377 129.605L239.314 123.916H237.688L236.063 127.167H231.187L230.374 126.354L223.059 125.541L221.434 127.98L215.745 126.354L214.119 128.792L210.869 125.541L209.243 119.039H206.805L204.367 116.601L205.18 113.35L201.929 106.847L200.303 100.345L198.678 97.0942L192.176 101.971L188.925 98.7198V93.8431L191.363 93.0304L190.551 86.5282L192.176 85.7154L195.427 75.9621H190.551V73.5238H188.925L185.674 70.2727L186.487 68.6472L180.798 61.3322L178.36 59.7067L175.109 55.6428H175.922L175.109 53.2045L175.922 51.579L174.296 47.5151L171.046 42.6385L174.296 22.3192L158.855 19.8809L149.915 75.9621L151.54 79.2132V80.8388L150.728 81.6516L151.54 86.5282L156.417 90.592L157.229 94.6559L153.166 99.5325L152.353 101.158L149.102 106.035L148.29 108.473L145.039 111.724L140.975 116.601L140.162 121.477L143.413 122.29L145.039 123.916L143.413 125.541V127.98L141.788 131.231L135.286 171.869L186.487 179.184L238.501 185.686Z" fill="white" stroke="#1B2126" stroke-width="3" stroke-linecap="round" stroke-linejoin="round"/>
<path fill-rule="evenodd" clip-rule="evenodd" d="M746.446 329.547L699.309 336.05L713.937 381.565L717.188 388.88L719.626 392.131V395.382L722.065 396.195L719.626 398.633V402.697L718.001 404.322V408.386L721.252 412.45L720.439 420.578L722.877 423.016L723.69 425.454L725.315 427.893L726.128 431.144L774.078 427.893L778.955 427.08V428.706L780.58 431.144H783.018L783.831 426.267L782.206 425.454V422.203L783.831 420.578L787.895 421.391H792.771L791.145 418.952L792.771 415.701H791.145L791.958 414.076L791.145 412.45V411.637V409.199H792.771V411.637L794.396 408.386L790.333 407.573V405.948L794.396 406.761L793.584 405.135L796.022 402.697L793.584 403.51L791.958 401.884L795.209 401.071L793.584 399.446L794.396 397.82L792.771 397.007H796.022L796.834 395.382L794.396 394.569L795.209 392.944L798.46 393.756V392.131L800.085 390.505L797.647 389.693L796.022 388.88L795.209 389.693L793.584 387.254V384.003L791.145 380.752L790.333 379.126H787.895L787.082 377.501L786.269 374.25L784.644 371.812V370.186L780.58 367.748H778.142V366.122L776.517 365.309V363.684L774.078 362.871V361.245L771.64 358.807H769.202L766.764 354.743L762.7 353.118L761.888 351.492H760.262L759.45 349.054L757.011 347.428L756.199 346.616L755.386 344.177L752.948 342.552V340.113L749.697 340.926L747.259 339.301L746.446 338.488L744.008 337.675L742.382 336.862L744.008 333.611L744.821 331.986L746.446 329.547Z" fill="white" stroke="#1B2126" stroke-width="3" stroke-linecap="round" stroke-linejoin="round"/>
<path fill-rule="evenodd" clip-rule="evenodd" d="M723.691 425.454L673.303 431.144L672.49 435.208L674.928 437.646L677.367 438.459V441.71L678.179 443.335H679.805L678.179 446.586L678.992 447.399L683.056 442.522L682.243 440.084L684.681 441.71L685.494 440.084H687.119L686.306 441.71L688.745 442.522L687.119 443.335L694.434 442.522L696.059 440.084H697.684L701.748 439.271L704.186 441.71L700.123 442.522L706.624 444.148L711.501 446.586L709.062 444.148L711.501 442.522L712.313 444.148L714.751 441.71L715.564 443.335L713.126 445.774L714.751 446.586H717.19L718.815 448.212L717.19 449.025L714.751 448.212L718.815 450.65L721.253 453.089V455.527H723.691L726.942 453.901L730.193 451.463L731.006 453.089L736.695 448.212H739.946L736.695 446.586L739.946 444.148L742.384 443.335H746.447L749.698 444.961H752.136L755.387 448.212L756.2 449.837L759.451 450.65L760.263 453.901L761.889 455.527L764.327 456.34L765.952 458.778L768.391 460.403H773.267L774.892 464.467L777.33 466.093V469.344L778.143 470.97V479.097L776.518 483.161L778.143 484.787L777.33 490.476L780.581 492.914L781.394 489.663L778.956 488.038L779.769 485.599L783.019 487.225V489.663L784.645 487.225L785.458 488.851L786.27 490.476L783.019 495.353L782.207 498.604L784.645 501.042L785.458 503.48L787.896 506.731L789.521 509.17L791.959 511.608H794.397L791.147 508.357H793.585L796.836 507.544L797.648 508.357L796.023 509.17L796.836 514.859L797.648 517.298L799.274 516.485V514.859L802.525 512.421V514.046L800.899 515.672L799.274 518.11L800.899 518.923L801.712 518.11L803.337 521.361L804.15 525.425L806.588 528.676L813.09 530.302L815.528 531.927V533.553L816.341 534.366L818.779 536.804L820.404 540.055L824.468 540.868L826.093 542.493L824.468 544.119L820.404 541.681V544.119L822.03 545.745L826.093 544.932L826.906 543.306L830.157 544.119L832.595 540.868H835.033L837.471 536.804L835.846 535.179L837.471 529.489L838.284 524.612V520.549V515.672L837.471 514.859V508.357L836.659 503.48L835.033 501.855V500.229L831.782 496.978H830.157L829.344 495.353L831.782 496.165L830.157 492.914L829.344 492.102L826.093 486.412L822.843 481.536L818.779 475.033L814.715 469.344L813.09 463.655L814.715 462.842L815.528 466.093H817.966L810.652 457.152L803.337 447.399L798.461 436.02L797.648 434.395L796.023 431.144L795.21 427.08L792.772 425.454V423.016H794.397V421.39H787.896L783.832 420.578L782.207 422.203V425.454L783.832 426.267L783.019 431.144H780.581L778.956 428.705V427.08L774.08 427.893L726.129 431.144L725.317 427.893L723.691 425.454Z" fill="white" stroke="#1B2126" stroke-width="3" stroke-linecap="round" stroke-linejoin="round"/>
<path fill-rule="evenodd" clip-rule="evenodd" d="M865.916 227.138L875.669 224.699L877.294 223.886V223.074L876.481 221.448L874.043 222.261L874.856 220.635V219.01L876.481 218.197L874.856 217.384L873.23 216.572L870.792 214.946V213.32L867.541 211.695V208.444L862.665 204.38V201.942L861.852 201.129V199.503L863.478 197.878L864.291 195.439H861.04L859.414 197.065L858.602 199.503L865.916 227.138Z" fill="white" stroke="#1B2126" stroke-width="3" stroke-linecap="round" stroke-linejoin="round"/>
<path fill-rule="evenodd" clip-rule="evenodd" d="M337.652 215.759C317.895 214.849 271.01 210.882 271.01 210.882L263.695 301.1C263.695 301.1 294.599 303.754 312.895 304.675C337.672 305.921 392.917 307.602 392.917 307.602L394.542 216.572C394.542 216.572 359.073 216.745 337.652 215.759Z" fill="white" stroke="#1B2126" stroke-width="3" stroke-linecap="round" stroke-linejoin="round"/>
<path fill-rule="evenodd" clip-rule="evenodd" d="M886.233 138.546L888.672 154.802L890.297 156.427L887.046 160.491L888.672 161.304H891.11L895.173 156.427L897.611 155.614L899.237 153.176H900.862L904.926 151.55L908.989 150.738L908.177 149.112L910.615 149.925L912.24 149.112L914.678 148.299L916.304 147.487H917.929V144.236L914.678 132.044L897.611 136.921L896.799 136.108L886.233 138.546Z" fill="white" stroke="#1B2126" stroke-width="3" stroke-linecap="round" stroke-linejoin="round"/>
<path fill-rule="evenodd" clip-rule="evenodd" d="M84.0842 163.742L12.5653 149.112V151.55L10.9399 153.988L12.5653 155.614V162.929L9.31443 169.431V171.057L8.50172 174.308L9.31443 175.121L6.87629 175.933L6.06357 177.559L4.43814 178.372L2 182.435V186.499L5.25086 191.376L6.06357 193.002L8.50172 197.878V205.193L6.06357 209.257L6.87629 211.695L7.689 217.385L6.06357 218.197L11.7526 227.951L15.0034 231.202V234.453L16.6289 236.891L18.2543 240.142V241.768L15.8162 238.517V240.142L19.067 245.019H19.8797L22.3179 247.457L23.9433 240.955L26.3814 240.142L29.6323 243.393L31.2577 242.581L32.8832 241.768L33.6959 243.393L35.3213 244.206H37.7595L40.1976 245.019L42.6357 247.457H41.823L39.3849 245.832L37.7595 246.644L35.3213 245.832L31.2577 244.206L29.6323 245.019L28.0069 243.393L25.5687 245.019V245.832L26.3814 247.457V249.083L28.0069 250.708V253.959V256.398L29.6323 257.211L28.8196 258.023L26.3814 256.398L23.9433 253.147V251.521V249.083H22.3179L21.5052 250.708L22.3179 252.334L21.5052 254.772L22.3179 258.023L21.5052 261.274L23.9433 266.151L26.3814 268.589L29.6323 269.402L31.2577 272.653L30.445 275.904L28.0069 277.53H27.1942V284.032L28.0069 285.658L30.445 288.096L31.2577 291.347L32.8832 292.16V295.411L34.5086 297.849V300.287L37.7595 301.913L38.5722 305.164L41.823 306.79V309.228L40.1976 310.854L41.0103 312.479L44.2612 314.105V316.543L43.4485 319.794V323.045V325.483L41.823 327.109L44.2612 327.922L45.0739 330.36H50.7629L51.5756 331.986H54.0138L55.6392 333.611L58.0773 334.424L60.5155 333.611L65.3918 337.675L67.0172 341.739L72.7062 344.99L74.3316 345.803H79.2079L81.6461 349.054L80.8334 353.118L82.4588 353.93L84.0842 353.118L86.5224 353.93L89.7732 357.994L94.6495 363.684L97.0877 366.122L98.7131 370.999L99.5258 375.063L98.7131 378.314L99.5258 379.939L101.151 381.565V384.003L146.663 387.254L147.476 386.441L149.914 387.254H150.727L151.54 385.629L152.352 384.003V380.752L149.101 379.939L148.289 378.314L149.101 375.875V370.999H151.54L153.165 367.748L153.978 364.496L154.79 361.245V359.62L156.416 357.994L157.229 356.369L160.479 354.743L162.918 352.305L158.854 348.241L158.041 343.364L156.416 340.113L155.603 338.488V336.049L71.8935 229.576L84.0842 163.742Z" fill="white" stroke="#1B2126" stroke-width="3" stroke-linecap="round" stroke-linejoin="round"/>
<path fill-rule="evenodd" clip-rule="evenodd" d="M535.14 382.378L533.515 341.739L529.451 318.169V317.356L611.535 311.667L613.974 314.105V315.73L609.91 321.42L609.097 322.233V323.858L620.475 322.233L622.101 323.045L622.913 323.858H620.475V325.484L621.288 326.296L617.224 328.735L618.037 331.986V333.611H616.412L615.599 336.862L614.786 339.301L616.412 342.552H613.974L612.348 345.803V348.241L609.91 349.867V352.305H607.472V359.62L605.034 361.246V362.871L601.783 366.122L603.408 367.748L602.596 368.561L599.345 370.186L600.157 374.25L597.719 377.501L599.345 379.127L597.719 380.752L599.345 382.378V386.442L600.97 388.88L599.345 390.505V392.944L544.08 396.195V384.003L543.267 383.19H539.204L538.391 384.003L536.766 383.19L535.14 382.378Z" fill="white" stroke="#1B2126" stroke-width="3" stroke-linecap="round" stroke-linejoin="round"/>
<path fill-rule="evenodd" clip-rule="evenodd" d="M206.028 295.734C225.25 297.793 263.695 301.1 263.695 301.1L253.129 430.331L214.119 427.08L144.226 392.13L145.038 389.692L146.664 387.254L147.476 386.441L149.915 387.254H150.727L152.353 384.003V380.752L149.102 379.939L148.289 378.313L149.102 375.875V370.998H151.54L153.165 367.747L154.791 361.245V359.62L156.416 357.994L157.229 356.368L160.48 354.743L162.918 352.305L158.854 348.241L158.042 343.364L155.604 338.487V332.798L157.229 331.985V328.734L156.416 324.67L157.229 322.232L156.416 318.168L157.229 316.543L156.416 314.104L157.229 310.853L160.48 309.228L162.918 310.853L164.543 310.04L165.356 313.292H167.794L170.232 308.415L172.671 291.347C172.671 291.347 194.909 294.542 206.028 295.734Z" fill="white" stroke="#1B2126" stroke-width="3" stroke-linecap="round" stroke-linejoin="round"/>
<path fill-rule="evenodd" clip-rule="evenodd" d="M651.359 341.739L652.172 343.364L653.798 344.177V414.075L658.674 446.586H661.925L663.55 448.212H664.363V443.335L665.176 438.459L668.426 440.897L667.614 444.148L669.239 445.774L672.49 449.025L674.928 448.212L674.115 446.586H675.741L678.179 443.335L677.366 441.71V438.459L674.928 437.646L672.49 435.208L673.303 431.144L723.691 425.454L722.878 423.016L720.44 420.578L721.253 412.45L718.002 408.386V404.322L719.627 402.697V398.633L722.066 396.194L719.627 395.382V392.131L717.189 388.88L713.938 381.565L699.31 336.049L651.359 341.739Z" fill="white" stroke="#1B2126" stroke-width="3" stroke-linecap="round" stroke-linejoin="round"/>
<circle cx="123.094" cy="196.933" r="4.92255" fill="white"/>
</svg>
